<svg width="112" height="154" viewBox="0 0 112 154" fill="none" xmlns="http://www.w3.org/2000/svg">
<path d="M48.3025 153.213C37.5061 153.213 26.8456 150.417 17.2021 144.936L22.2811 136.002C34.5557 142.979 48.8169 144.758 62.4337 141.01C76.0504 137.261 87.3967 128.434 94.3736 116.147C101.35 103.867 103.13 89.6054 99.3816 75.9887C95.633 62.3719 86.8055 51.0315 74.519 44.0487L79.5921 35.1147C94.2613 43.4515 104.803 56.9973 109.285 73.257C113.761 89.5226 111.638 106.551 103.302 121.214C94.9649 135.883 81.4191 146.426 65.1594 150.901C59.5897 152.433 53.9254 153.196 48.3025 153.196V153.213Z" fill="white"/>
<path d="M48.3384 132.661C41.054 132.661 33.8584 130.775 27.3545 127.08L32.3566 118.252C39.8715 122.521 48.6636 123.497 56.9944 121.203C65.3253 118.909 72.2608 113.511 76.5238 105.996C85.3336 90.4868 79.8822 70.7032 64.3793 61.8993L69.4523 52.9653C89.8863 64.5718 97.0642 90.6346 85.4578 111.075C79.8349 120.972 70.694 128.091 59.7201 131.112C55.9597 132.147 52.1343 132.661 48.3384 132.661Z" fill="white"/>
<path d="M32.3567 118.258C17.6934 109.928 7.14529 96.3818 2.66944 80.1221C-1.80641 63.8565 0.316218 46.8223 8.64709 32.1531C25.8587 1.88051 64.4858 -8.75628 94.7643 8.44351L89.6913 17.3775C64.338 2.97434 31.9901 11.8787 17.5811 37.232C10.6042 49.5125 8.82447 63.7797 12.579 77.3964C16.3276 91.0132 25.1078 102.371 37.3883 109.342L32.3626 118.258H32.3567Z" fill="white"/>
<path d="M42.4548 100.408C22.0208 88.8013 14.8961 62.7444 26.5025 42.3045C32.1254 32.4068 41.2782 25.2762 52.2697 22.2312C63.2731 19.1803 74.7849 20.5993 84.6827 26.2222L79.5978 35.1325C72.0947 30.8695 63.3677 29.823 55.0132 32.1348C46.6586 34.4467 39.7054 39.8626 35.4365 47.3835C26.6267 62.8923 32.0781 82.6759 47.581 91.4798L42.4548 100.408Z" fill="white"/>
<path d="M58.5017 72.2403C52.6305 68.9055 50.6084 62.1593 53.7125 56.696C55.3976 53.7338 57.6976 51.9127 60.5475 51.286C63.3146 50.677 66.4779 51.2741 69.4519 52.9651L74.5131 44.0548C69.3277 41.1103 63.5866 40.0934 58.3421 41.2463C52.6837 42.488 47.865 46.1715 44.7727 51.6171C38.8778 61.9937 42.6323 75.0192 53.3932 81.1506C59.164 84.4321 61.2275 91.3262 58.0879 96.8545C56.5801 99.5152 54.2683 101.265 51.4125 101.916C48.5213 102.578 45.3403 102.04 42.449 100.396L37.376 109.33C41.0181 111.4 44.9973 112.464 48.9411 112.464C50.5434 112.464 52.1398 112.286 53.7066 111.932C59.3709 110.637 64.101 107.083 67.0277 101.927C73.0054 91.403 69.2627 78.3657 58.5017 72.2343V72.2403Z" fill="white"/>
</svg>
