<svg fill="none" xmlns="http://www.w3.org/2000/svg" viewBox="0 0 51 52">
  <path fill="url(#cW5-NTaay_Cna)" fill-opacity=".5" d="M6.663 12.15h33.315v33.315H6.663z"/>
  <path fill="url(#cW5-NTaay_Cnb)" fill-opacity=".5" d="M7.643 11.17h33.315v33.315H7.643z"/>
  <path fill="url(#cW5-NTaay_Cnc)" fill-opacity=".5" d="M8.623 10.19h33.315v33.315H8.623z"/>
  <path fill="url(#cW5-NTaay_Cnd)" fill-opacity=".5" d="M9.602 9.211h33.315v33.315H9.602z"/>
  <path fill="url(#cW5-NTaay_Cne)" fill-opacity=".5" d="M10.582 8.231h33.315v33.315H10.582z"/>
  <path fill="url(#cW5-NTaay_Cnf)" fill-opacity=".5" d="M11.562 7.251h33.315v33.315H11.562z"/>
  <path fill="url(#cW5-NTaay_Cng)" fill-opacity=".5" d="M12.444 6.271h33.315v33.315H12.444z"/>
  <defs>
    <linearGradient id="cW5-NTaay_Cna" x1="23.32" y1="12.15" x2="23.32" y2="45.465" gradientUnits="userSpaceOnUse">
      <stop stop-color="#001227"/>
      <stop offset="1" stop-color="#2C7FB8"/>
    </linearGradient>
    <linearGradient id="cW5-NTaay_Cnb" x1="24.3" y1="11.17" x2="24.3" y2="44.485" gradientUnits="userSpaceOnUse">
      <stop stop-color="#001227"/>
      <stop offset="1" stop-color="#2C7FB8"/>
    </linearGradient>
    <linearGradient id="cW5-NTaay_Cnc" x1="25.28" y1="10.19" x2="25.28" y2="43.505" gradientUnits="userSpaceOnUse">
      <stop stop-color="#001227"/>
      <stop offset="1" stop-color="#2C7FB8"/>
    </linearGradient>
    <linearGradient id="cW5-NTaay_Cnd" x1="26.26" y1="9.211" x2="26.26" y2="42.525" gradientUnits="userSpaceOnUse">
      <stop stop-color="#001227"/>
      <stop offset="1" stop-color="#2C7FB8"/>
    </linearGradient>
    <linearGradient id="cW5-NTaay_Cne" x1="27.24" y1="8.231" x2="27.24" y2="41.545" gradientUnits="userSpaceOnUse">
      <stop stop-color="#001227"/>
      <stop offset="1" stop-color="#2C7FB8"/>
    </linearGradient>
    <linearGradient id="cW5-NTaay_Cnf" x1="28.22" y1="7.251" x2="28.22" y2="40.566" gradientUnits="userSpaceOnUse">
      <stop stop-color="#001227"/>
      <stop offset="1" stop-color="#2C7FB8"/>
    </linearGradient>
    <linearGradient id="cW5-NTaay_Cng" x1="29.101" y1="6.271" x2="29.101" y2="39.586" gradientUnits="userSpaceOnUse">
      <stop stop-color="#001227"/>
      <stop offset="1" stop-color="#2C7FB8"/>
    </linearGradient>
  </defs>
</svg>
