<svg fill="none" xmlns="http://www.w3.org/2000/svg" viewBox="0 0 223 219">
  <g clip-path="url(#38X1EDD_LanRa)" fill-opacity=".5">
    <path fill-rule="evenodd" clip-rule="evenodd" d="M-136.788-167.306h50.249-50.249zm125.621 0h50.249-50.249z" fill="url(#38X1EDD_LanRb)"/>
    <path fill-rule="evenodd" clip-rule="evenodd" d="M-86.534-167.306h-50.249 50.249zm125.616 0h.005-50.249 50.244z" fill="url(#38X1EDD_LanRc)"/>
    <path d="M39.087-167.306v50.069C39.087-61.933 84.08-17.1 139.584-17.1v-500.687H39.082v50.068c0 52.247-26.77 98.262-67.389 125.172 40.619 26.91 67.389 72.926 67.389 125.172v50.069h.005z" fill="url(#38X1EDD_LanRd)"/>
    <path d="M39.087 133.107v50.069h100.497V32.969c-55.503 0-100.497 44.833-100.497 100.138z" fill="url(#38X1EDD_LanRe)"/>
    <path d="M-136.783-117.237v-50.069h-.005v-50.069c0-55.304-44.994-100.137-100.497-100.137v500.688h100.502v-50.069c0-52.246 26.77-98.262 67.388-125.172-40.618-26.91-67.388-72.926-67.388-125.172z" fill="url(#38X1EDD_LanRf)"/>
    <path d="M-136.788-467.719v-50.068h-100.497v150.206c55.503 0 100.497-44.833 100.497-100.138z" fill="url(#38X1EDD_LanRg)"/>
    <path fill-rule="evenodd" clip-rule="evenodd" d="M-125.612-167.306h50.249-50.249zm125.622 0h50.248H.01z" fill="url(#38X1EDD_LanRh)"/>
    <path fill-rule="evenodd" clip-rule="evenodd" d="M-75.358-167.306h-50.249 50.249zm125.616 0h.005H.015h50.243z" fill="url(#38X1EDD_LanRi)"/>
    <path d="M50.263-167.306v50.069C50.263-61.933 95.257-17.1 150.76-17.1v-500.687H50.258v50.068c0 52.247-26.77 98.262-67.388 125.172 40.618 26.91 67.388 72.926 67.388 125.172v50.069h.005z" fill="url(#38X1EDD_LanRj)"/>
    <path d="M50.263 133.107v50.069H150.76V32.969c-55.503 0-100.497 44.833-100.497 100.138z" fill="url(#38X1EDD_LanRk)"/>
    <path d="M-125.607-117.237v-50.069h-.005v-50.069c0-55.304-44.994-100.137-100.497-100.137v500.688h100.502v-50.069c0-52.246 26.77-98.262 67.389-125.172-40.619-26.91-67.389-72.926-67.389-125.172z" fill="url(#38X1EDD_LanRl)"/>
    <path d="M-125.612-467.719v-50.068h-100.497v150.206c55.503 0 100.497-44.833 100.497-100.138z" fill="url(#38X1EDD_LanRm)"/>
    <path fill-rule="evenodd" clip-rule="evenodd" d="M-114.435-167.306h50.248-50.248zm125.62 0h50.25-50.249z" fill="url(#38X1EDD_LanRn)"/>
    <path fill-rule="evenodd" clip-rule="evenodd" d="M-64.182-167.306h-50.248 50.248zm125.616 0h.005-50.248 50.243z" fill="url(#38X1EDD_LanRo)"/>
    <path d="M61.44-167.306v50.069C61.44-61.933 106.432-17.1 161.936-17.1v-500.687H61.434v50.068c0 52.247-26.77 98.262-67.388 125.172 40.618 26.91 67.388 72.926 67.388 125.172v50.069h.005z" fill="url(#38X1EDD_LanRp)"/>
    <path d="M61.44 133.107v50.069h100.496V32.969c-55.503 0-100.497 44.833-100.497 100.138z" fill="url(#38X1EDD_LanRq)"/>
    <path d="M-114.43-117.237v-50.069h-.005v-50.069c0-55.304-44.994-100.137-100.498-100.137v500.688h100.503v-50.069c0-52.246 26.77-98.262 67.388-125.172-40.618-26.91-67.388-72.926-67.388-125.172z" fill="url(#38X1EDD_LanRr)"/>
    <path d="M-114.435-467.719v-50.068h-100.498v150.206c55.504 0 100.498-44.833 100.498-100.138z" fill="url(#38X1EDD_LanRs)"/>
    <path fill-rule="evenodd" clip-rule="evenodd" d="M-103.259-167.306h50.248-50.248zm125.621 0h50.249-50.249z" fill="url(#38X1EDD_LanRt)"/>
    <path fill-rule="evenodd" clip-rule="evenodd" d="M-53.006-167.306h-50.248 50.248zm125.617 0h.005-50.249 50.244z" fill="url(#38X1EDD_LanRu)"/>
    <path d="M72.616-167.306v50.069C72.616-61.933 117.61-17.1 173.113-17.1v-500.687H72.611v50.068c0 52.247-26.77 98.262-67.389 125.172 40.619 26.91 67.389 72.926 67.389 125.172v50.069h.005z" fill="url(#38X1EDD_LanRv)"/>
    <path d="M72.616 133.107v50.069h100.497V32.969c-55.503 0-100.497 44.833-100.497 100.138z" fill="url(#38X1EDD_LanRw)"/>
    <path d="M-103.254-117.237v-50.069h-.005v-50.069c0-55.304-44.994-100.137-100.497-100.137v500.688h100.502v-50.069c0-52.246 26.77-98.262 67.388-125.172-40.618-26.91-67.388-72.926-67.388-125.172z" fill="url(#38X1EDD_LanRx)"/>
    <path d="M-103.259-467.719v-50.068h-100.497v150.206c55.503 0 100.497-44.833 100.497-100.138z" fill="url(#38X1EDD_LanRy)"/>
    <path fill-rule="evenodd" clip-rule="evenodd" d="M-92.083-167.306h50.249-50.249zm125.621 0h50.249-50.249z" fill="url(#38X1EDD_LanRz)"/>
    <path fill-rule="evenodd" clip-rule="evenodd" d="M-41.83-167.306h-50.248 50.249zm125.617 0h.005-50.249 50.244z" fill="url(#38X1EDD_LanRA)"/>
    <path d="M83.792-167.306v50.069c0 55.304 44.994 100.137 100.497 100.137v-500.687H83.787v50.068c0 52.247-26.77 98.262-67.389 125.172 40.619 26.91 67.389 72.926 67.389 125.172v50.069h.005z" fill="url(#38X1EDD_LanRB)"/>
    <path d="M83.792 133.107v50.069h100.497V32.969c-55.503 0-100.497 44.833-100.497 100.138z" fill="url(#38X1EDD_LanRC)"/>
    <path d="M-92.078-117.237v-50.069h-.005v-50.069c0-55.304-44.994-100.137-100.497-100.137v500.688h100.502v-50.069c0-52.246 26.77-98.262 67.389-125.172-40.619-26.91-67.389-72.926-67.389-125.172z" fill="url(#38X1EDD_LanRD)"/>
    <path d="M-92.083-467.719v-50.068H-192.58v150.206c55.503 0 100.497-44.833 100.497-100.138z" fill="url(#38X1EDD_LanRE)"/>
  </g>
  <defs>
    <linearGradient id="38X1EDD_LanRb" x1="139.584" y1="-167.306" x2="-237.285" y2="-167.306" gradientUnits="userSpaceOnUse">
      <stop stop-color="#2CA25F"/>
      <stop offset=".159" stop-color="#99D8C9"/>
    </linearGradient>
    <linearGradient id="38X1EDD_LanRc" x1="139.584" y1="-167.306" x2="-237.285" y2="-167.306" gradientUnits="userSpaceOnUse">
      <stop stop-color="#2CA25F"/>
      <stop offset=".159" stop-color="#99D8C9"/>
    </linearGradient>
    <linearGradient id="38X1EDD_LanRd" x1="139.584" y1="-167.306" x2="-237.285" y2="-167.306" gradientUnits="userSpaceOnUse">
      <stop stop-color="#2CA25F"/>
      <stop offset=".159" stop-color="#99D8C9"/>
    </linearGradient>
    <linearGradient id="38X1EDD_LanRe" x1="139.584" y1="-167.306" x2="-237.285" y2="-167.306" gradientUnits="userSpaceOnUse">
      <stop stop-color="#2CA25F"/>
      <stop offset=".159" stop-color="#99D8C9"/>
    </linearGradient>
    <linearGradient id="38X1EDD_LanRf" x1="139.584" y1="-167.306" x2="-237.285" y2="-167.306" gradientUnits="userSpaceOnUse">
      <stop stop-color="#2CA25F"/>
      <stop offset=".159" stop-color="#99D8C9"/>
    </linearGradient>
    <linearGradient id="38X1EDD_LanRg" x1="139.584" y1="-167.306" x2="-237.285" y2="-167.306" gradientUnits="userSpaceOnUse">
      <stop stop-color="#2CA25F"/>
      <stop offset=".159" stop-color="#99D8C9"/>
    </linearGradient>
    <linearGradient id="38X1EDD_LanRh" x1="150.76" y1="-167.306" x2="-226.109" y2="-167.306" gradientUnits="userSpaceOnUse">
      <stop stop-color="#2CA25F"/>
      <stop offset=".159" stop-color="#99D8C9"/>
    </linearGradient>
    <linearGradient id="38X1EDD_LanRi" x1="150.76" y1="-167.306" x2="-226.109" y2="-167.306" gradientUnits="userSpaceOnUse">
      <stop stop-color="#2CA25F"/>
      <stop offset=".159" stop-color="#99D8C9"/>
    </linearGradient>
    <linearGradient id="38X1EDD_LanRj" x1="150.76" y1="-167.306" x2="-226.109" y2="-167.306" gradientUnits="userSpaceOnUse">
      <stop stop-color="#2CA25F"/>
      <stop offset=".159" stop-color="#99D8C9"/>
    </linearGradient>
    <linearGradient id="38X1EDD_LanRk" x1="150.76" y1="-167.306" x2="-226.109" y2="-167.306" gradientUnits="userSpaceOnUse">
      <stop stop-color="#2CA25F"/>
      <stop offset=".159" stop-color="#99D8C9"/>
    </linearGradient>
    <linearGradient id="38X1EDD_LanRl" x1="150.76" y1="-167.306" x2="-226.109" y2="-167.306" gradientUnits="userSpaceOnUse">
      <stop stop-color="#2CA25F"/>
      <stop offset=".159" stop-color="#99D8C9"/>
    </linearGradient>
    <linearGradient id="38X1EDD_LanRm" x1="150.76" y1="-167.306" x2="-226.109" y2="-167.306" gradientUnits="userSpaceOnUse">
      <stop stop-color="#2CA25F"/>
      <stop offset=".159" stop-color="#99D8C9"/>
    </linearGradient>
    <linearGradient id="38X1EDD_LanRn" x1="161.937" y1="-167.306" x2="-214.933" y2="-167.306" gradientUnits="userSpaceOnUse">
      <stop stop-color="#2CA25F"/>
      <stop offset=".159" stop-color="#99D8C9"/>
    </linearGradient>
    <linearGradient id="38X1EDD_LanRo" x1="161.937" y1="-167.306" x2="-214.933" y2="-167.306" gradientUnits="userSpaceOnUse">
      <stop stop-color="#2CA25F"/>
      <stop offset=".159" stop-color="#99D8C9"/>
    </linearGradient>
    <linearGradient id="38X1EDD_LanRp" x1="161.937" y1="-167.306" x2="-214.933" y2="-167.306" gradientUnits="userSpaceOnUse">
      <stop stop-color="#2CA25F"/>
      <stop offset=".159" stop-color="#99D8C9"/>
    </linearGradient>
    <linearGradient id="38X1EDD_LanRq" x1="161.937" y1="-167.306" x2="-214.933" y2="-167.306" gradientUnits="userSpaceOnUse">
      <stop stop-color="#2CA25F"/>
      <stop offset=".159" stop-color="#99D8C9"/>
    </linearGradient>
    <linearGradient id="38X1EDD_LanRr" x1="161.937" y1="-167.306" x2="-214.933" y2="-167.306" gradientUnits="userSpaceOnUse">
      <stop stop-color="#2CA25F"/>
      <stop offset=".159" stop-color="#99D8C9"/>
    </linearGradient>
    <linearGradient id="38X1EDD_LanRs" x1="161.937" y1="-167.306" x2="-214.933" y2="-167.306" gradientUnits="userSpaceOnUse">
      <stop stop-color="#2CA25F"/>
      <stop offset=".159" stop-color="#99D8C9"/>
    </linearGradient>
    <linearGradient id="38X1EDD_LanRt" x1="173.113" y1="-167.306" x2="-203.756" y2="-167.306" gradientUnits="userSpaceOnUse">
      <stop stop-color="#2CA25F"/>
      <stop offset=".159" stop-color="#99D8C9"/>
    </linearGradient>
    <linearGradient id="38X1EDD_LanRu" x1="173.113" y1="-167.306" x2="-203.756" y2="-167.306" gradientUnits="userSpaceOnUse">
      <stop stop-color="#2CA25F"/>
      <stop offset=".159" stop-color="#99D8C9"/>
    </linearGradient>
    <linearGradient id="38X1EDD_LanRv" x1="173.113" y1="-167.306" x2="-203.756" y2="-167.306" gradientUnits="userSpaceOnUse">
      <stop stop-color="#2CA25F"/>
      <stop offset=".159" stop-color="#99D8C9"/>
    </linearGradient>
    <linearGradient id="38X1EDD_LanRw" x1="173.113" y1="-167.306" x2="-203.756" y2="-167.306" gradientUnits="userSpaceOnUse">
      <stop stop-color="#2CA25F"/>
      <stop offset=".159" stop-color="#99D8C9"/>
    </linearGradient>
    <linearGradient id="38X1EDD_LanRx" x1="173.113" y1="-167.306" x2="-203.756" y2="-167.306" gradientUnits="userSpaceOnUse">
      <stop stop-color="#2CA25F"/>
      <stop offset=".159" stop-color="#99D8C9"/>
    </linearGradient>
    <linearGradient id="38X1EDD_LanRy" x1="173.113" y1="-167.306" x2="-203.756" y2="-167.306" gradientUnits="userSpaceOnUse">
      <stop stop-color="#2CA25F"/>
      <stop offset=".159" stop-color="#99D8C9"/>
    </linearGradient>
    <linearGradient id="38X1EDD_LanRz" x1="184.289" y1="-167.306" x2="-192.58" y2="-167.306" gradientUnits="userSpaceOnUse">
      <stop stop-color="#2CA25F"/>
      <stop offset=".159" stop-color="#99D8C9"/>
    </linearGradient>
    <linearGradient id="38X1EDD_LanRA" x1="184.289" y1="-167.306" x2="-192.58" y2="-167.306" gradientUnits="userSpaceOnUse">
      <stop stop-color="#2CA25F"/>
      <stop offset=".159" stop-color="#99D8C9"/>
    </linearGradient>
    <linearGradient id="38X1EDD_LanRB" x1="184.289" y1="-167.306" x2="-192.58" y2="-167.306" gradientUnits="userSpaceOnUse">
      <stop stop-color="#2CA25F"/>
      <stop offset=".159" stop-color="#99D8C9"/>
    </linearGradient>
    <linearGradient id="38X1EDD_LanRC" x1="184.289" y1="-167.306" x2="-192.58" y2="-167.306" gradientUnits="userSpaceOnUse">
      <stop stop-color="#2CA25F"/>
      <stop offset=".159" stop-color="#99D8C9"/>
    </linearGradient>
    <linearGradient id="38X1EDD_LanRD" x1="184.289" y1="-167.306" x2="-192.58" y2="-167.306" gradientUnits="userSpaceOnUse">
      <stop stop-color="#2CA25F"/>
      <stop offset=".159" stop-color="#99D8C9"/>
    </linearGradient>
    <linearGradient id="38X1EDD_LanRE" x1="184.289" y1="-167.306" x2="-192.58" y2="-167.306" gradientUnits="userSpaceOnUse">
      <stop stop-color="#2CA25F"/>
      <stop offset=".159" stop-color="#99D8C9"/>
    </linearGradient>
    <clipPath id="38X1EDD_LanRa">
      <path fill="#fff" d="M0 0h222.324v219H0z"/>
    </clipPath>
  </defs>
</svg>
