<svg fill="none" xmlns="http://www.w3.org/2000/svg" viewBox="0 0 120 120">
  <mask id="YzbYbz9NeaSMb" style="mask-type:alpha" maskUnits="userSpaceOnUse" x="0" y="0" width="120" height="120">
    <circle cx="60" cy="60.159" r="59.377" transform="rotate(180 60 60.159)" fill="url(#YzbYbz9NeaSMa)"/>
  </mask>
  <g mask="url(#YzbYbz9NeaSMb)" stroke="#99D8C9" stroke-width=".073">
    <path d="M83.22 31.547h-3.499v-3.499h3.5zm-3.57 0h-3.5v-3.499h3.5zm0-3.57h-3.5v-3.5h3.5zm0 7.143h-3.5v-3.5h3.5zm-3.573 3.57h-3.499v-3.498h3.5zm14.286 0h-3.499v-3.498h3.499zm-14.286-7.143h-3.499v-3.499h3.5zm14.286 0h-3.499v-3.499h3.499zM76.077 35.12h-3.499v-3.5h3.5zm14.286 0h-3.499v-3.5h3.499zm-14.286-7.143h-3.499v-3.5h3.5zm-3.571 0h-3.499v-3.5h3.5zm21.429 0h-3.499v-3.5h3.499zM72.506 35.12h-3.499v-3.5h3.5zm21.429 0h-3.499v-3.5h3.499zm-21.429 7.142h-3.499v-3.499h3.5zm-3.571 0h-3.499v-3.499h3.499zm28.572 0h-3.5v-3.499h3.5zm-28.572 3.571h-3.499v-3.499h3.499zm-3.571 0h-3.5v-3.499h3.5zm35.714 0h-3.499v-3.499h3.499zm-35.714 3.572h-3.5v-3.499h3.5zm0 3.573h-3.5v-3.5h3.5zm0-50.004h-3.5V-.525h3.5zm0 53.576h-3.5v-3.499h3.5zm0-50.004h-3.5V3.047h3.5zm0 53.576h-3.5v-3.499h3.5zm0-50.003h-3.5v-3.5h3.5zm35.714 39.286h-3.499v-3.499h3.499zm0 3.573h-3.499v-3.5h3.499zm0-50.004h-3.499V-.525h3.499zm0 53.576h-3.499v-3.499h3.499zm0-50.004h-3.499V3.047h3.499zm0 53.577h-3.499v-3.5h3.499zm0-50.004h-3.499v-3.5h3.499zM65.364 31.547h-3.5v-3.499h3.5zm35.714 0h-3.499v-3.499h3.499zM65.364 38.69h-3.5v-3.498h3.5zm35.714 0h-3.499v-3.498h3.499zM65.364 24.405h-3.5v-3.5h3.5zm35.714 0h-3.499v-3.5h3.499zm-35.714-7.143h-3.5v-3.499h3.5zm35.714 0h-3.499v-3.499h3.499zm-35.714 25h-3.5v-3.499h3.5zm35.714 0h-3.499v-3.499h3.499zM65.364 27.977h-3.5v-3.5h3.5zm35.714 0h-3.499v-3.5h3.499zM65.364 35.12h-3.5v-3.5h3.5zm35.714 0h-3.499v-3.5h3.499zM65.364 20.834h-3.5v-3.5h3.5zm.072 28.571v-3.499h3.5v3.5zm0 3.573v-3.5h3.499v3.5zm0-50.004V-.525h3.5v3.5zm0 53.576v-3.499h3.5v3.5zm.001-50.003v-3.5h3.499v3.5zm0 53.576v-3.5h3.499v3.5zm-.001-50.003v-3.5h3.5v3.5zm0 3.57v-3.499h3.499v3.5zm14.286 35.715v-3.499h3.499v3.5zm0 3.572v-3.499h3.499v3.5zm0-50.003V-.525h3.499v3.5zm0 53.576v-3.499h3.499v3.5zm0-50.003v-3.5h3.5v3.5zm0 53.575v-3.499h3.5v3.5zm0-50.003v-3.5h3.5v3.5zm0 3.571v-3.499h3.499v3.5zm-7.143 35.715v-3.499h3.499v3.499zm-.001 3.572v-3.499h3.5v3.5zm.001-50.003V-.525h3.499v3.499zm0 53.576v-3.499h3.499v3.499zm.001-50.003v-3.5h3.498v3.5zm0 53.575v-3.499h3.498v3.5zm-.001-50.003v-3.5h3.499v3.5zm0 3.571v-3.499h3.499v3.5zm14.286 35.715v-3.499h3.499v3.499zm-.001 3.572v-3.499h3.5v3.5zm.001-50.003V-.525h3.499v3.499zm0 53.576v-3.499h3.499v3.499zm0-50.003v-3.5h3.5v3.5zm0 53.575v-3.499h3.5v3.5zm0-50.003v-3.5h3.499v3.5zm0 3.571v-3.499h3.499v3.5zm7.143 35.715v-3.5h3.499v3.5zm-.001 3.572v-3.499h3.5v3.5zm.001-50.003v-3.5h3.499v3.5zm0 53.576v-3.5h3.499v3.5zm0-50.004V3.047h3.5v3.5zm0 53.576v-3.499h3.5v3.5zm0-50.003v-3.5h3.499v3.5zm-.001 3.571v-3.499h3.5v3.5zm-25 35.715v-3.499h3.5v3.5zm0 3.573v-3.5h3.499v3.5zm0-50.004V-.525h3.5v3.5zm0 53.576v-3.498h3.5v3.498zm.001-50.003V3.048h3.499v3.499zm0 53.576v-3.5h3.499v3.5zm-.001-50.003v-3.5h3.5v3.5zm0 3.57v-3.498h3.5v3.499zm14.286 35.715v-3.499h3.5v3.5zm0 3.573v-3.5h3.499v3.5zm0-50.004V-.525h3.5v3.5zm0 53.576v-3.498h3.5v3.498zm.001-50.003V3.048h3.499v3.499zm0 53.576v-3.5h3.499v3.5zm-.001-50.003v-3.5h3.5v3.5zm0 3.57v-3.498h3.5v3.499zM76.15 49.405v-3.499h3.5v3.5zm0 3.573v-3.5h3.499v3.5zm0-50.004V-.525h3.5v3.5zm0 53.576v-3.498h3.5v3.498zm0-50.003V3.048h3.5v3.499zm0 53.576v-3.5h3.5v3.5zm0-50.003v-3.5h3.5v3.5zm0 3.57v-3.498h3.5v3.499zm14.286 35.715v-3.499h3.5v3.5zm0 3.573v-3.5h3.499v3.5zm0-50.004V-.525h3.5v3.5zm0 53.576v-3.499h3.5v3.5zm.001-50.003v-3.5h3.499v3.5zm0 53.576v-3.5h3.499v3.5zm-.001-50.003v-3.5h3.5v3.5zm0 3.57v-3.498h3.499v3.499zm10.642 7.144h-3.499v-3.5h3.499zM65.364 13.69h-3.5v-3.498h3.5zm35.714 0h-3.499v-3.498h3.499zm-3.571 32.143h-3.5v-3.499h3.5zm-21.43 0h-3.499v-3.499h3.5zm7.143 0h-3.499v-3.499h3.5zm7.143 0h-3.499v-3.499h3.499zm-17.857 0h-3.499v-3.499h3.5zm7.144 0h-3.5v-3.499h3.5zm7.142 0h-3.499v-3.499h3.5zm7.143 0h-3.499v-3.499h3.499zm-25-17.856h-3.499v-3.5h3.499zm28.572 0h-3.5v-3.5h3.5zM68.935 35.12h-3.499v-3.5h3.499zm28.572 0h-3.5v-3.5h3.5zM68.935 20.834h-3.499v-3.5h3.499zm28.572 0h-3.5v-3.5h3.5zM68.935 38.69h-3.499v-3.498h3.499zm28.572 0h-3.5v-3.498h3.5zM68.935 24.405h-3.499v-3.5h3.499zm28.572 0h-3.5v-3.5h3.5zm-28.572 7.142h-3.499v-3.499h3.499zm28.572 0h-3.5v-3.499h3.5zM68.935 17.262h-3.499v-3.499h3.499zm28.572 0h-3.5v-3.499h3.5zm-21.43 0h-3.499v-3.499h3.5zm7.143 0h-3.499v-3.499h3.5zm7.143 0h-3.499v-3.499h3.499zm-17.857 0h-3.499v-3.499h3.5zm7.144 0h-3.5v-3.499h3.5zm7.142 0h-3.499v-3.499h3.5zm7.143 0h-3.499v-3.499h3.499zm0 25h-3.499v-3.499h3.499zM72.506 24.405h-3.499v-3.5h3.5zm21.429 0h-3.499v-3.5h3.499zm-21.429-3.571h-3.499v-3.5h3.5zm21.429 0h-3.499v-3.5h3.499zM72.506 31.547h-3.499v-3.499h3.5zm21.429 0h-3.499v-3.499h3.499zM72.506 38.69h-3.499v-3.498h3.5zm21.429 0h-3.499v-3.498h3.499zm-7.07 3.572v-3.5h3.499v3.5zm-.001-21.429v-3.499h3.5v3.5zm-7.142 21.429v-3.499h3.499v3.499zm0-21.429v-3.499h3.499v3.5zm-7.143 21.429v-3.5h3.499v3.5zm-.001-21.429v-3.499h3.5v3.5zm10.715 21.429v-3.499h3.5v3.5zm0-21.428v-3.5h3.499v3.5zM76.15 42.262v-3.499h3.5v3.5zm0-21.428v-3.5h3.499v3.5zm14.213 7.143h-3.499v-3.5h3.499zm-14.286-3.572h-3.499v-3.5h3.5zm14.286 0h-3.499v-3.5h3.499zM79.65 38.69h-3.5v-3.498h3.5zm3.57 0h-3.499v-3.498h3.5zm3.572 0h-3.499v-3.498h3.5zM79.65 24.405h-3.5v-3.5h3.5zm3.57 0h-3.499v-3.5h3.5zm3.572 0h-3.499v-3.5h3.5zM83.22 35.12h-3.499v-3.5h3.5zm3.572 0h-3.499v-3.5h3.5zm-3.499-7.071h3.499v3.499h-3.499zm0-3.571h3.499v3.499h-3.499zm-3.571 0h3.499v3.499h-3.499zm3.498 67.79h-3.499V88.77h3.5zm-3.57 0h-3.5V88.77h3.5zm0-3.571h-3.5v-3.499h3.5zm0 7.143h-3.5v-3.499h3.5zm-3.573 3.571h-3.499v-3.499h3.5zm14.286 0h-3.499v-3.499h3.499zm-14.286-7.143h-3.499V88.77h3.5zm14.286 0h-3.499V88.77h3.499zM76.077 95.84h-3.499v-3.499h3.5zm14.286 0h-3.499v-3.499h3.499zm-14.286-7.143h-3.499v-3.499h3.5zm-3.571 0h-3.499v-3.499h3.5zm21.429 0h-3.499v-3.499h3.499zM72.506 95.84h-3.499v-3.499h3.5zm21.429 0h-3.499v-3.499h3.499zm-21.429 7.143h-3.499v-3.499h3.5zm-3.571 0h-3.499v-3.499h3.499zm28.572 0h-3.5v-3.499h3.5zm-28.572 3.571h-3.499v-3.499h3.499zm-3.571 0h-3.5v-3.499h3.5zm35.714 0h-3.499v-3.499h3.499zm-35.714 3.572h-3.5v-3.499h3.5zm0 3.572h-3.5v-3.499h3.5zm0-50.003h-3.5v-3.5h3.5zm0 53.576h-3.5v-3.499h3.5zm0-50.003h-3.5v-3.5h3.5zm0 53.575h-3.5v-3.499h3.5zm0-50.003h-3.5v-3.5h3.5zm35.714 39.286h-3.499v-3.499h3.499zm0 3.572h-3.499v-3.499h3.499zm0-50.003h-3.499v-3.5h3.499zm0 53.576h-3.499v-3.499h3.499zm0-50.003h-3.499v-3.5h3.499zm0 53.575h-3.499v-3.499h3.499zm0-50.003h-3.499v-3.5h3.499zM65.364 92.268h-3.5V88.77h3.5zm35.714 0h-3.499V88.77h3.499zm-35.714 7.143h-3.5v-3.499h3.5zm35.714 0h-3.499v-3.499h3.499zM65.364 85.125h-3.5v-3.499h3.5zm35.714 0h-3.499v-3.499h3.499zm-35.714-7.142h-3.5v-3.5h3.5zm35.714 0h-3.499v-3.5h3.499zm-35.714 25h-3.5v-3.499h3.5zm35.714 0h-3.499v-3.499h3.499zM65.364 88.697h-3.5v-3.499h3.5zm35.714 0h-3.499v-3.499h3.499zM65.364 95.84h-3.5v-3.499h3.5zm35.714 0h-3.499v-3.499h3.499zM65.364 81.554h-3.5v-3.499h3.5zm.072 28.572v-3.499h3.5v3.5zm0 3.572V110.2h3.5v3.5zm0-50.003v-3.499h3.5v3.499zm0 53.576v-3.499h3.5v3.5zm0-50.004v-3.499h3.499v3.5zm0 53.576v-3.499h3.5v3.5zm0-50.003v-3.5h3.5v3.5zm0 3.571v-3.499h3.499v3.5zm14.286 35.715v-3.499h3.499v3.499zm0 3.572v-3.499h3.499v3.499zm0-50.003v-3.5h3.5v3.5zm0 53.576v-3.499h3.499v3.499zm0-50.004v-3.499h3.499v3.5zm0 53.576v-3.499h3.499v3.499zm0-50.003v-3.5h3.5v3.5zm0 3.571v-3.499h3.499v3.5zm-7.143 35.715v-3.5h3.499v3.5zm0 3.572v-3.5h3.499v3.5zm0-50.003v-3.5h3.499v3.5zm0 53.575v-3.498h3.499v3.499zm0-50.003v-3.499h3.499v3.5zm0 53.576v-3.5h3.499v3.5zm.001-50.003v-3.5h3.498v3.5zm-.001 3.571v-3.499h3.499v3.5zm14.286 35.715v-3.5h3.499v3.5zm0 3.572v-3.5h3.499v3.5zm0-50.003v-3.5h3.499v3.5zm0 53.575v-3.498h3.499v3.499zm0-50.003v-3.499h3.499v3.5zm0 53.576v-3.5h3.499v3.5zm0-50.003v-3.5h3.5v3.5zm0 3.571v-3.499h3.499v3.5zm7.143 35.715v-3.5h3.499v3.5zm0 3.572v-3.5h3.499v3.5zm0-50.003v-3.5h3.499v3.5zm0 53.575v-3.498h3.499v3.499zm-.001-50.003v-3.499h3.5v3.5zm.001 53.576v-3.5h3.499v3.5zm0-50.003v-3.5h3.5v3.5zm0 3.571v-3.499h3.499v3.499zm-25.001 35.715v-3.499h3.5v3.5zm0 3.572V110.2h3.5v3.5zm0-50.003v-3.499h3.5v3.5zm0 53.576v-3.499h3.5v3.5zm0-50.003v-3.5h3.5v3.5zm0 53.575v-3.499h3.5v3.5zm.001-50.003v-3.499h3.499v3.5zm-.001 3.572v-3.5h3.5v3.5zm14.286 35.714v-3.499h3.5v3.5zm0 3.572V110.2h3.5v3.5zm0-50.003v-3.499h3.5v3.5zm0 53.576v-3.499h3.5v3.5zm0-50.003v-3.5h3.5v3.5zm0 53.575v-3.499h3.5v3.5zm.001-50.003v-3.499h3.499v3.5zm-.001 3.572v-3.5h3.5v3.5zm-7.143 35.714v-3.499h3.5v3.5zm0 3.572V110.2h3.5v3.5zm0-50.003v-3.499h3.5v3.5zm0 53.576v-3.499h3.5v3.5zm0-50.003v-3.5h3.5v3.5zm0 53.575v-3.499h3.5v3.5zm0-50.003v-3.499h3.5v3.5zm0 3.572v-3.5h3.5v3.5zm14.286 35.714v-3.499h3.5v3.5zm0 3.572V110.2h3.5v3.5zm0-50.003v-3.499h3.5v3.5zm0 53.576v-3.499h3.5v3.5zm0-50.003v-3.5h3.499v3.5zm0 53.575v-3.499h3.5v3.5zm.001-50.003v-3.499h3.499v3.499zm-.001 3.571v-3.499h3.5v3.5zm10.642 7.143h-3.499v-3.499h3.499zm-35.714-7.143h-3.5v-3.499h3.5zm35.714 0h-3.499v-3.499h3.499zm-3.571 32.143h-3.5v-3.499h3.5zm-21.43 0h-3.499v-3.499h3.5zm7.143 0h-3.499v-3.499h3.5zm7.143 0h-3.499v-3.499h3.499zm-17.857 0h-3.499v-3.499h3.5zm7.144 0h-3.5v-3.499h3.5zm7.142 0h-3.499v-3.499h3.5zm7.143 0h-3.499v-3.499h3.499zm-25-17.857h-3.499v-3.499h3.499zm28.572 0h-3.5v-3.499h3.5zM68.935 95.84h-3.499v-3.499h3.499zm28.572 0h-3.5v-3.499h3.5zM68.935 81.554h-3.499v-3.499h3.499zm28.572 0h-3.5v-3.499h3.5zM68.935 99.411h-3.499v-3.499h3.499zm28.572 0h-3.5v-3.499h3.5zM68.935 85.125h-3.499v-3.499h3.499zm28.572 0h-3.5v-3.499h3.5zm-28.572 7.143h-3.499V88.77h3.499zm28.572 0h-3.5V88.77h3.5zM68.935 77.983h-3.499v-3.5h3.499zm28.572 0h-3.5v-3.5h3.5zm-21.43 0h-3.499v-3.5h3.5zm7.143 0h-3.499v-3.5h3.5zm7.143 0h-3.499v-3.5h3.499zm-17.857 0h-3.499v-3.5h3.5zm7.144 0h-3.5v-3.5h3.5zm7.142 0h-3.499v-3.5h3.5zm7.143 0h-3.499v-3.5h3.499zm0 25h-3.499v-3.499h3.499zM72.506 85.125h-3.499v-3.499h3.5zm21.429 0h-3.499v-3.499h3.499zm-21.429-3.571h-3.499v-3.499h3.5zm21.429 0h-3.499v-3.499h3.499zM72.506 92.268h-3.499V88.77h3.5zm21.429 0h-3.499V88.77h3.499zm-21.429 7.143h-3.499v-3.499h3.5zm21.429 0h-3.499v-3.499h3.499zm-7.07 3.572v-3.5h3.499v3.5zm0-21.429v-3.499h3.499v3.5zm-7.143 21.429v-3.499h3.499v3.499zm0-21.429v-3.499h3.499v3.5zm-7.143 21.429v-3.5h3.499v3.5zm0-21.429v-3.499h3.499v3.5zm10.714 21.429v-3.499h3.5v3.5zm0-21.428v-3.5h3.5v3.5zm-7.143 21.428v-3.499h3.5v3.5zm0-21.428v-3.5h3.5v3.5zm14.213 7.142h-3.499v-3.499h3.499zm-14.286-3.572h-3.499v-3.499h3.5zm14.286 0h-3.499v-3.499h3.499zM79.65 99.411h-3.5v-3.499h3.5zm3.57 0h-3.499v-3.499h3.5zm3.572 0h-3.499v-3.499h3.5zM79.65 85.125h-3.5v-3.499h3.5zm3.57 0h-3.499v-3.499h3.5zm3.572 0h-3.499v-3.499h3.5zM83.22 95.84h-3.499v-3.499h3.5zm3.572 0h-3.499v-3.499h3.5zm-3.499-7.07h3.499v3.499h-3.499zm0-3.572h3.499v3.499h-3.499zm-3.571 0h3.499v3.499h-3.499zM43.935 31.547h-3.499v-3.499h3.499zm-3.572 0h-3.499v-3.499h3.5zm0-3.57h-3.499v-3.5h3.5zm0 7.143h-3.499v-3.5h3.5zm-3.572 3.57h-3.499v-3.498h3.5zm14.286 0h-3.499v-3.498h3.499zm-14.286-7.143h-3.499v-3.499h3.5zm14.286 0h-3.499v-3.499h3.499zM36.791 35.12h-3.499v-3.5h3.5zm14.286 0h-3.499v-3.5h3.499zm-14.286-7.143h-3.499v-3.5h3.5zm-3.571 0h-3.499v-3.5h3.5zm21.429 0H51.15v-3.5h3.499zM33.22 35.12h-3.499v-3.5h3.5zm21.429 0H51.15v-3.5h3.499zM33.22 42.262h-3.499v-3.499h3.5zm-3.572 0H26.15v-3.499h3.5zm28.572 0h-3.498v-3.499h3.499zm-28.572 3.571H26.15v-3.499h3.5zm-3.57 0h-3.5v-3.499h3.5zm35.714 0h-3.5v-3.499h3.5zm-35.714 3.572h-3.5v-3.499h3.5zm0 3.573h-3.5v-3.5h3.5zm0-50.004h-3.5V-.525h3.5zm0 53.576h-3.5v-3.499h3.5zm0-50.004h-3.5V3.047h3.5zm0 53.576h-3.5v-3.499h3.5zm0-50.003h-3.5v-3.5h3.5zm35.714 39.286h-3.5v-3.499h3.5zm0 3.573h-3.5v-3.5h3.5zm0-50.004h-3.5V-.525h3.5zm0 53.576h-3.5v-3.499h3.5zm0-50.004h-3.5V3.047h3.5zm0 53.577h-3.5v-3.5h3.5zm0-50.004h-3.5v-3.5h3.5zM26.078 31.547h-3.5v-3.499h3.5zm35.714 0h-3.5v-3.499h3.5zM26.078 38.69h-3.5v-3.498h3.5zm35.714 0h-3.5v-3.498h3.5zM26.078 24.405h-3.5v-3.5h3.5zm35.714 0h-3.5v-3.5h3.5zm-35.714-7.143h-3.5v-3.499h3.5zm35.714 0h-3.5v-3.499h3.5zm-35.714 25h-3.5v-3.499h3.5zm35.714 0h-3.5v-3.499h3.5zM26.078 27.977h-3.5v-3.5h3.5zm35.714 0h-3.5v-3.5h3.5zM26.078 35.12h-3.5v-3.5h3.5zm35.714 0h-3.5v-3.5h3.5zM26.078 20.834h-3.5v-3.5h3.5zm.072 28.571v-3.499h3.5v3.5zm0 3.573v-3.5h3.499v3.5zm0-50.004V-.525h3.5v3.5zm0 53.576v-3.499h3.5v3.5zm0-50.003v-3.5h3.5v3.5zm0 53.576v-3.5h3.5v3.5zm0-50.003v-3.5h3.5v3.5zm0 3.57v-3.498h3.499v3.498zm14.286 35.715v-3.499h3.499v3.499zm-.001 3.572v-3.499h3.5v3.5zm.001-50.003V-.525h3.499v3.499zm0 53.576v-3.499h3.499v3.499zm0-50.004V3.047h3.5v3.5zm0 53.576v-3.499h3.5v3.5zm0-50.003v-3.5h3.499v3.5zm0 3.571v-3.499h3.499v3.5zm-7.143 35.715v-3.499h3.499v3.499zm-.001 3.572v-3.499h3.5v3.5zm.001-50.003V-.525h3.499v3.499zm0 53.576v-3.499h3.499v3.499zm0-50.003v-3.5h3.5v3.5zm0 53.575v-3.499h3.5v3.5zm0-50.003v-3.5h3.499v3.5zm0 3.571v-3.499h3.499v3.5zm14.286 35.715v-3.499h3.499v3.499zm-.001 3.572v-3.499h3.5v3.5zm.001-50.003V-.525h3.499v3.499zm0 53.576v-3.499h3.499v3.499zm.001-50.004V3.047h3.498v3.5zm0 53.576v-3.499h3.498v3.5zm-.001-50.003v-3.5h3.499v3.5zm0 3.571v-3.499h3.499v3.5zm7.143 35.715v-3.5h3.499v3.5zm-.001 3.572v-3.499h3.5v3.5zm.001-50.003v-3.5h3.499v3.5zm0 53.576v-3.5h3.499v3.5zm0-50.004V3.047h3.5v3.5zm0 53.576v-3.499h3.5v3.5zm0-50.003v-3.5h3.499v3.5zm-.001 3.571v-3.499h3.5v3.5zm-25 35.716v-3.5h3.5v3.5zm0 3.572v-3.5h3.5v3.5zm0-50.003v-3.5h3.5v3.5zm0 53.575v-3.498h3.5v3.499zm.001-50.003V3.048h3.499v3.5zm0 53.576v-3.499h3.499v3.499zm0-50.003v-3.5h3.499v3.5zm-.001 3.57v-3.498h3.5v3.499zm14.286 35.715v-3.499h3.5v3.5zm0 3.573v-3.5h3.499v3.5zm0-50.004V-.525h3.5v3.5zm0 53.576v-3.499h3.5v3.5zm.001-50.003V3.048h3.499v3.499zm0 53.576v-3.5h3.499v3.5zm-.001-50.003v-3.5h3.5v3.5zm0 3.57v-3.498h3.5v3.499zm-7.143 35.715v-3.499h3.5v3.5zm0 3.573v-3.5h3.499v3.5zm0-50.004V-.525h3.5v3.5zm0 53.576v-3.498h3.5v3.499zm.001-50.003V3.048h3.499v3.499zm0 53.576v-3.5h3.499v3.5zm-.001-50.003v-3.5h3.5v3.5zm0 3.57v-3.498h3.5v3.499zM51.15 49.405v-3.499h3.5v3.5zm0 3.573v-3.5h3.499v3.5zm0-50.004V-.525h3.5v3.5zm0 53.576v-3.499h3.5v3.5zm0-50.003v-3.5h3.5v3.5zm0 53.576v-3.5h3.5v3.5zm0-50.003v-3.5h3.5v3.5zm0 3.57v-3.498h3.499v3.499zm10.642 7.144h-3.5v-3.5h3.5zM26.078 13.69h-3.5v-3.498h3.5zm35.714 0h-3.5v-3.498h3.5zM58.22 45.833h-3.498v-3.499h3.499zm-21.429 0h-3.499v-3.499h3.5zm7.144 0h-3.499v-3.499h3.499zm7.142 0h-3.499v-3.499h3.499zm-17.857 0h-3.499v-3.499h3.5zm7.143 0h-3.499v-3.499h3.5zm7.143 0h-3.499v-3.499h3.5zm7.143 0H51.15v-3.499h3.499zM29.648 27.977H26.15v-3.5h3.5zm28.572 0h-3.498v-3.5h3.499zM29.648 35.12H26.15v-3.5h3.5zm28.572 0h-3.498v-3.5h3.499zM29.648 20.834H26.15v-3.5h3.5zm28.572 0h-3.498v-3.5h3.499zM29.648 38.69H26.15v-3.498h3.5zm28.572 0h-3.498v-3.498h3.499zM29.648 24.405H26.15v-3.5h3.5zm28.572 0h-3.498v-3.5h3.499zm-28.572 7.142H26.15v-3.499h3.5zm28.572 0h-3.498v-3.499h3.499zM29.648 17.262H26.15v-3.499h3.5zm28.572 0h-3.498v-3.499h3.499zm-21.429 0h-3.499v-3.499h3.5zm7.144 0h-3.499v-3.499h3.499zm7.142 0h-3.499v-3.499h3.499zm-17.857 0h-3.499v-3.499h3.5zm7.143 0h-3.499v-3.499h3.5zm7.143 0h-3.499v-3.499h3.5zm7.143 0H51.15v-3.499h3.499zm0 25H51.15v-3.499h3.499zM33.22 24.405h-3.499v-3.5h3.5zm21.429 0H51.15v-3.5h3.499zM33.22 20.834h-3.499v-3.5h3.5zm21.429 0H51.15v-3.5h3.499zM33.22 31.547h-3.499v-3.499h3.5zm21.429 0H51.15v-3.499h3.499zM33.22 38.69h-3.499v-3.498h3.5zm21.429 0H51.15v-3.498h3.499zm-7.07 3.572v-3.5h3.499v3.5zm-.001-21.429v-3.499h3.5v3.5zm-7.142 21.429v-3.5h3.499v3.5zm-.001-21.429v-3.499h3.5v3.5zm-7.142 21.429v-3.5h3.499v3.5zm-.001-21.429v-3.499h3.5v3.5zm10.715 21.429v-3.499h3.5v3.5zm0-21.428v-3.5h3.499v3.5zm-7.143 21.428v-3.499h3.5v3.5zm0-21.428v-3.5h3.499v3.5zm14.213 7.143h-3.499v-3.5h3.499zm-14.286-3.572h-3.499v-3.5h3.5zm14.286 0h-3.499v-3.5h3.499zM40.363 38.69h-3.499v-3.498h3.5zm3.572 0h-3.499v-3.498h3.499zm3.571 0h-3.499v-3.498h3.5zm-7.143-14.285h-3.499v-3.5h3.5zm3.572 0h-3.499v-3.5h3.499zm3.571 0h-3.499v-3.5h3.5zM43.935 35.12h-3.499v-3.5h3.499zm3.571 0h-3.499v-3.5h3.5zm-3.499-7.071h3.499v3.499h-3.499zm0-3.571h3.499v3.499h-3.499zm-3.571 0h3.499v3.499h-3.499zm3.499 67.79h-3.499v-3.499h3.499zm-3.572 0h-3.499v-3.499h3.5zm0-3.571h-3.499v-3.499h3.5zm0 7.143h-3.499v-3.499h3.5zm-3.572 3.571h-3.499v-3.499h3.5zm14.286 0h-3.499v-3.499h3.499zm-14.286-7.143h-3.499v-3.499h3.5zm14.286 0h-3.499v-3.499h3.499zM36.791 95.84h-3.499v-3.499h3.5zm14.286 0h-3.499v-3.499h3.499zm-14.286-7.143h-3.499v-3.499h3.5zm-3.571 0h-3.499v-3.499h3.5zm21.429 0H51.15v-3.499h3.499zM33.22 95.84h-3.499v-3.499h3.5zm21.429 0H51.15v-3.499h3.499zm-21.429 7.143h-3.499v-3.499h3.5zm-3.572 0H26.15v-3.499h3.5zm28.572 0h-3.498v-3.499h3.499zm-28.572 3.571H26.15v-3.499h3.5zm-3.57 0h-3.5v-3.499h3.5zm35.714 0h-3.5v-3.499h3.5zm-35.714 3.572h-3.5v-3.499h3.5zm0 3.572h-3.5v-3.499h3.5zm0-50.003h-3.5v-3.5h3.5zm0 53.576h-3.5v-3.499h3.5zm0-50.004h-3.5v-3.499h3.5zm0 53.576h-3.5v-3.499h3.5zm0-50.003h-3.5v-3.5h3.5zm35.714 39.286h-3.5v-3.499h3.5zm0 3.572h-3.5v-3.499h3.5zm0-50.003h-3.5v-3.5h3.5zm0 53.576h-3.5v-3.499h3.5zm0-50.004h-3.5v-3.499h3.5zm0 53.576h-3.5v-3.499h3.5zm0-50.003h-3.5v-3.5h3.5zM26.078 92.268h-3.5v-3.499h3.5zm35.714 0h-3.5v-3.499h3.5zm-35.714 7.143h-3.5v-3.499h3.5zm35.714 0h-3.5v-3.499h3.5zM26.078 85.125h-3.5v-3.499h3.5zm35.714 0h-3.5v-3.499h3.5zm-35.714-7.143h-3.5v-3.499h3.5zm35.714 0h-3.5v-3.499h3.5zm-35.714 25.001h-3.5v-3.499h3.5zm35.714 0h-3.5v-3.499h3.5zM26.078 88.697h-3.5v-3.499h3.5zm35.714 0h-3.5v-3.499h3.5zM26.078 95.84h-3.5v-3.499h3.5zm35.714 0h-3.5v-3.499h3.5zM26.078 81.554h-3.5v-3.499h3.5zm.072 28.572v-3.499h3.5v3.5zm0 3.572V110.2h3.5v3.5zm0-50.003v-3.499h3.5v3.499zm0 53.576v-3.499h3.5v3.5zm0-50.004v-3.499h3.499v3.5zm0 53.576v-3.499h3.5v3.5zm0-50.003v-3.5h3.5v3.5zm0 3.571v-3.499h3.5v3.5zm14.286 35.715v-3.5h3.499v3.5zm0 3.572v-3.5h3.499v3.5zm0-50.003v-3.5h3.5v3.5zm0 53.575v-3.498h3.499v3.499zm0-50.003v-3.499h3.499v3.5zm0 53.576v-3.5h3.499v3.5zm0-50.003v-3.5h3.5v3.5zm0 3.571v-3.499h3.499v3.499zm-7.143 35.715v-3.5h3.499v3.5zm0 3.572v-3.5h3.499v3.5zm0-50.003v-3.5h3.5v3.5zm0 53.575v-3.498h3.499v3.499zm0-50.003v-3.499h3.499v3.5zm0 53.576v-3.5h3.499v3.5zm0-50.003v-3.5h3.5v3.5zm0 3.571v-3.499h3.499v3.499zm14.286 35.715v-3.5h3.499v3.5zm0 3.572v-3.5h3.499v3.5zm.001-50.003v-3.5h3.498v3.5zm-.001 53.575v-3.498h3.499v3.499zm0-50.003v-3.499h3.499v3.5zm0 53.576v-3.5h3.499v3.5zm.001-50.003v-3.5h3.498v3.5zm-.001 3.571v-3.499h3.499v3.499zm7.143 35.715v-3.5h3.499v3.5zm0 3.572v-3.5h3.499v3.5zm0-50.003v-3.5h3.499v3.5zm0 53.575v-3.498h3.499v3.499zm0-50.003v-3.499h3.499v3.499zm0 53.576v-3.5h3.499v3.5zm0-50.003v-3.5h3.5v3.5zm0 3.57v-3.498h3.499v3.499zm-25.001 35.717v-3.5h3.5v3.5zm0 3.571V110.2h3.5v3.5zm.001-50.003v-3.499h3.499v3.5zm-.001 53.576v-3.499h3.5v3.5zm0-50.003v-3.5h3.5v3.5zm0 53.575v-3.499h3.5v3.5zm.001-50.003v-3.499h3.499v3.5zm-.001 3.572v-3.5h3.5v3.5zm14.286 35.714v-3.499h3.5v3.5zm0 3.572V110.2h3.5v3.5zm.001-50.003v-3.499h3.499v3.5zm-.001 53.576v-3.499h3.5v3.5zm0-50.003v-3.5h3.5v3.5zm0 53.575v-3.499h3.5v3.5zm.001-50.003v-3.499h3.499v3.5zm-.001 3.572v-3.5h3.5v3.5zm-7.143 35.714v-3.499h3.5v3.5zm0 3.572V110.2h3.5v3.5zm.001-50.003v-3.499h3.499v3.5zm-.001 53.576v-3.499h3.5v3.5zm0-50.003v-3.5h3.5v3.5zm0 53.575v-3.499h3.5v3.5zm.001-50.003v-3.499h3.499v3.5zm-.001 3.572v-3.5h3.5v3.5zm14.286 35.714v-3.499h3.5v3.5zm0 3.572V110.2h3.5v3.5zm0-50.003v-3.499h3.5v3.5zm0 53.576v-3.499h3.5v3.5zm0-50.004V63.77h3.5v3.498zm0 53.576v-3.499h3.5v3.5zm0-50.003v-3.499h3.5v3.499zm0 3.571v-3.499h3.5v3.5zm10.642 7.143h-3.5v-3.499h3.5zm-35.714-7.143h-3.5v-3.499h3.5zm35.714 0h-3.5v-3.499h3.5zm-3.572 32.143h-3.498v-3.499h3.499zm-21.429 0h-3.499v-3.499h3.5zm7.144 0h-3.499v-3.499h3.499zm7.142 0h-3.499v-3.499h3.499zm-17.857 0h-3.499v-3.499h3.5zm7.143 0h-3.499v-3.499h3.5zm7.143 0h-3.499v-3.499h3.5zm7.143 0H51.15v-3.499h3.499zM29.648 88.697H26.15v-3.499h3.5zm28.572 0h-3.498v-3.499h3.499zM29.648 95.84H26.15v-3.499h3.5zm28.572 0h-3.498v-3.499h3.499zM29.648 81.554H26.15v-3.499h3.5zm28.572 0h-3.498v-3.499h3.499zM29.648 99.411H26.15v-3.499h3.5zm28.572 0h-3.498v-3.499h3.499zM29.648 85.125H26.15v-3.499h3.5zm28.572 0h-3.498v-3.499h3.499zm-28.572 7.143H26.15v-3.499h3.5zm28.572 0h-3.498v-3.499h3.499zM29.648 77.982H26.15v-3.499h3.5zm28.572 0h-3.498v-3.499h3.499zm-21.429 0h-3.499v-3.499h3.5zm7.144 0h-3.499v-3.499h3.499zm7.142 0h-3.499v-3.499h3.499zm-17.857 0h-3.499v-3.499h3.5zm7.143 0h-3.499v-3.499h3.5zm7.143 0h-3.499v-3.499h3.5zm7.143 0H51.15v-3.499h3.499zm0 25.001H51.15v-3.499h3.499zM33.22 85.125h-3.499v-3.499h3.5zm21.429 0H51.15v-3.499h3.499zM33.22 81.554h-3.499v-3.499h3.5zm21.429 0H51.15v-3.499h3.499zM33.22 92.268h-3.499v-3.499h3.5zm21.429 0H51.15v-3.499h3.499zM33.22 99.411h-3.499v-3.499h3.5zm21.429 0H51.15v-3.499h3.499zm-7.07 3.572v-3.5h3.499v3.5zm0-21.429v-3.499h3.499v3.5zm-7.143 21.429v-3.5h3.499v3.5zm0-21.429v-3.499h3.499v3.5zm-7.143 21.429v-3.5h3.499v3.5zm0-21.429v-3.499h3.499v3.5zm10.714 21.429v-3.499h3.5v3.5zm0-21.428v-3.5h3.5v3.5zm-7.143 21.428v-3.499h3.5v3.5zm0-21.428v-3.5h3.5v3.5zm14.213 7.142h-3.499v-3.499h3.499zm-14.286-3.572h-3.499v-3.499h3.5zm14.286 0h-3.499v-3.499h3.499zM40.363 99.411h-3.499v-3.499h3.5zm3.572 0h-3.499v-3.499h3.499zm3.571 0h-3.499v-3.499h3.5zm-7.143-14.286h-3.499v-3.499h3.5zm3.572 0h-3.499v-3.499h3.499zm3.571 0h-3.499v-3.499h3.5zM43.935 95.84h-3.499v-3.499h3.499zm3.571 0h-3.499v-3.499h3.5zm-3.499-7.07h3.499v3.499h-3.499zm0-3.572h3.499v3.499h-3.499zm-3.571 0h3.499v3.499h-3.499zM4.645 31.547H1.146v-3.499h3.5zm-3.571 0h-3.5v-3.499h3.5zm0-3.57h-3.5v-3.5h3.5zm0 7.143h-3.5v-3.5h3.5zm10.715 3.57h-3.5v-3.498h3.5zm0-7.143h-3.5v-3.499h3.5zm0 3.573h-3.5v-3.5h3.5zm3.571-7.143h-3.5v-3.5h3.5zm0 7.143h-3.5v-3.5h3.5zm3.571 7.142h-3.499v-3.499h3.5zm3.571 3.571h-3.499v-3.499h3.499zm0 3.572h-3.499v-3.499h3.499zm0 3.573h-3.499v-3.5h3.499zm0-50.004h-3.499V-.525h3.499zm0 53.576h-3.499v-3.499h3.499zm0-50.004h-3.499V3.047h3.499zm0 53.577h-3.499v-3.5h3.499zm0-50.004h-3.499v-3.5h3.499zm0 21.428h-3.499v-3.499h3.499zm0 7.143h-3.499v-3.498h3.499zm0-14.285h-3.499v-3.5h3.499zm0-7.143h-3.499v-3.499h3.499zm0 25h-3.499v-3.499h3.499zm0-14.285h-3.499v-3.5h3.499zm0 7.143h-3.499v-3.5h3.499zM1.147 49.405v-3.5h3.499v3.5zm-.001 3.572v-3.499h3.5v3.499zm.001-50.003v-3.5h3.499v3.5zm0 53.576v-3.5h3.499v3.5zm0-50.004V3.047h3.499v3.5zm0 53.576v-3.499h3.5v3.5zm0-50.003v-3.5h3.499v3.5zm-.001 3.571v-3.5h3.5v3.5zM8.29 49.405v-3.5h3.498v3.5zm0 3.572v-3.499h3.498v3.499zm0-50.003v-3.5h3.498v3.5zm0 53.576v-3.5h3.498v3.5zm0-50.004V3.047h3.499v3.5zm0 53.576v-3.499h3.5v3.5zm0-50.004V6.62h3.499v3.5zm0 3.572v-3.5h3.498v3.5zm7.142 35.716v-3.5h3.5v3.5zm0 3.572v-3.5h3.5v3.5zm0-50.003v-3.5h3.5v3.5zm0 53.575v-3.498h3.5v3.499zm.001-50.003V3.048h3.499v3.5zm0 53.576v-3.499h3.499v3.499zm0-50.003v-3.5h3.499v3.5zm-.001 3.57v-3.498h3.5v3.499zM4.718 49.405v-3.499h3.499v3.5zm0 3.572v-3.499h3.499v3.5zm0-50.003V-.525h3.499v3.5zm0 53.576v-3.499h3.499v3.5zm0-50.003v-3.5h3.5v3.5zm.001 53.576v-3.5h3.499v3.5zm-.001-50.004v-3.5h3.5v3.5zm0 3.571v-3.499h3.499v3.5zm-7.143 35.715v-3.499h3.499v3.5zm0 3.572V49.48h3.499v3.498zm0-50.003V-.525h3.499v3.5zm0 53.576v-3.499h3.499v3.5zm.001-50.003v-3.5h3.499v3.5zm0 53.576v-3.5h3.499v3.5zm-.001-50.004V6.62h3.5v3.499zm0 3.571v-3.499h3.499v3.5zm14.286 35.715v-3.499h3.499v3.5zm-.001 3.572V49.48h3.5v3.498zm.001-50.003V-.525h3.499v3.5zm0 53.576v-3.499h3.499v3.5zm0-50.003v-3.5h3.5v3.5zm.001 53.576v-3.5h3.499v3.5zm-.001-50.004V6.62h3.5v3.499zm-.001 3.571v-3.499h3.5v3.5zm10.642 7.144h-3.499v-3.5h3.499zm0-7.144h-3.499v-3.498h3.499zm-3.571 32.143h-3.499v-3.499h3.5zm-14.286 0H1.146v-3.499h3.5zm7.144 0h-3.5v-3.499h3.5zm-10.715 0h-3.5v-3.499h3.5zm7.143 0h-3.5v-3.499h3.5zm7.143 0h-3.5v-3.499h3.5zm3.571-17.856h-3.499v-3.5h3.5zm0 7.143h-3.499v-3.5h3.5zm0-14.286h-3.499v-3.5h3.5zm0 17.856h-3.499v-3.498h3.5zm0-14.285h-3.499v-3.5h3.5zm0 7.142h-3.499v-3.499h3.5zm0-14.285h-3.499v-3.499h3.5zm-14.286 0H1.146v-3.499h3.5zm7.144 0h-3.5v-3.499h3.5zm-10.715 0h-3.5v-3.499h3.5zm7.143 0h-3.5v-3.499h3.5zm7.143 0h-3.5v-3.499h3.5zm0 25h-3.5v-3.499h3.5zm0-17.857h-3.5v-3.5h3.5zm0-3.571h-3.5v-3.5h3.5zm0 10.713h-3.5v-3.499h3.5zm0 7.143h-3.5v-3.498h3.5zm-7.07 3.572v-3.5h3.499v3.5zm0-21.429v-3.499h3.498v3.499zM1.147 42.262v-3.5h3.499v3.5zm-.001-21.429v-3.499h3.5v3.499zm3.572 21.429v-3.499h3.5v3.499zm0-21.429v-3.499h3.499v3.5zm-7.143 21.429v-3.499h3.5v3.5zm0-21.429v-3.499h3.499v3.5zm14.214 7.144h-3.5v-3.5h3.5zm0-3.572h-3.5v-3.5h3.5zM1.074 38.69h-3.5v-3.498h3.5zm3.571 0H1.146v-3.498h3.5zm3.572 0h-3.5v-3.498h3.5zM1.074 24.405h-3.5v-3.5h3.5zm3.571 0H1.146v-3.5h3.5zm3.572 0h-3.5v-3.5h3.5zM4.645 35.12H1.146v-3.5h3.5zm3.572 0h-3.5v-3.5h3.5zm-3.499-7.071h3.499v3.499H4.718zm0-3.571h3.499v3.499H4.718zm-3.571 0h3.499v3.499H1.147zm3.498 67.79H1.146V88.77h3.5zm-3.571 0h-3.5V88.77h3.5zm0-3.571h-3.5v-3.499h3.5zm0 7.143h-3.5v-3.499h3.5zm10.714 3.571H8.29v-3.499h3.5zm0-7.143H8.29V88.77h3.5zm0 3.572H8.29v-3.499h3.5zm3.572-7.143h-3.5v-3.499h3.5zm0 7.143h-3.5v-3.499h3.5zm3.571 7.143h-3.499v-3.499h3.499zm3.571 3.572h-3.499v-3.499h3.499zm0 3.571h-3.499v-3.499h3.499zm0 3.572h-3.499v-3.499h3.499zm0-50.003h-3.499v-3.5h3.499zm0 53.576h-3.499v-3.499h3.499zm0-50.003h-3.499v-3.5h3.499zm.001 53.575h-3.5v-3.499h3.5zm-.001-50.003h-3.499v-3.5h3.499zm0 21.428h-3.499V88.77h3.499zm0 7.143h-3.499v-3.499h3.499zm0-14.286h-3.499v-3.499h3.499zm0-7.142h-3.499v-3.5h3.499zm0 25h-3.499v-3.499h3.499zm0-14.286h-3.499v-3.499h3.499zm0 7.143h-3.499v-3.499h3.499zM1.147 110.126v-3.5h3.499v3.5zm0 3.572v-3.5h3.499v3.5zm0-50.003v-3.5h3.499v3.5zm0 53.575v-3.498h3.499v3.499zm-.001-50.003v-3.5h3.5v3.5zm.001 53.576v-3.5h3.499v3.5zm0-50.003v-3.5h3.499v3.5zm-.001 3.57v-3.498h3.5v3.499zm7.144 35.716v-3.499h3.498v3.5zm0 3.572V110.2h3.498v3.5zm0-50.003v-3.499h3.499v3.5zm0 53.576v-3.499h3.498v3.5zm0-50.003v-3.5h3.498v3.5zm0 53.575v-3.499h3.498v3.5zm0-50.003v-3.499h3.499v3.5zm0 3.572v-3.5h3.498v3.5zm7.143 35.715v-3.5h3.498v3.5zm-.001 3.571V110.2h3.5v3.498zm.001-50.003v-3.499h3.499v3.5zm-.001 53.577v-3.5h3.5v3.5zm0-50.004v-3.5h3.5v3.5zm0 53.576v-3.5h3.5v3.5zm.001-50.004v-3.499h3.499v3.5zm-.001 3.572v-3.5h3.5v3.5zM4.718 110.126v-3.499h3.5v3.5zm0 3.572v-3.499h3.5v3.5zm0-50.003v-3.5h3.5v3.5zm0 53.576v-3.499h3.5v3.5zm0-50.004v-3.499h3.499v3.5zm0 53.576v-3.499h3.5v3.5zm0-50.003v-3.5h3.5v3.5zm0 3.571v-3.499h3.499v3.5zm-7.143 35.715v-3.499h3.5v3.5zm0 3.572V110.2h3.5v3.5zm0-50.003v-3.499h3.5v3.499zm0 53.576v-3.499h3.5v3.5zm0-50.004v-3.499h3.499v3.5zm0 53.576v-3.499h3.5v3.5zm0-50.003v-3.5h3.5v3.5zm0 3.571v-3.499h3.499v3.5zm14.286 35.715v-3.499h3.499v3.499zm0 3.572v-3.499h3.499v3.499zm0-50.003v-3.5h3.5v3.5zm0 53.576v-3.499h3.499v3.499zm-.001-50.004v-3.499h3.5v3.5zm.001 53.576v-3.499h3.499v3.499zm0-50.003v-3.5h3.5v3.5zm-.001 3.571v-3.499h3.5v3.5zm10.642 7.143h-3.499v-3.499h3.499zm0-7.143h-3.499v-3.499h3.499zm-3.571 32.144h-3.499v-3.499h3.499zm-14.286 0H1.146v-3.499h3.5zm7.143 0H8.29v-3.499h3.5zm-10.714 0h-3.5v-3.499h3.5zm7.142 0H4.717v-3.499h3.5zm7.144 0h-3.5v-3.499h3.5zm3.571-17.858h-3.499v-3.499h3.499zm0 7.143h-3.499v-3.499h3.499zm0-14.286h-3.499v-3.499h3.499zm0 17.857h-3.499v-3.499h3.499zm0-14.286h-3.499v-3.499h3.499zm0 7.143h-3.499V88.77h3.499zm0-14.285h-3.499v-3.5h3.499zm-14.286 0H1.146v-3.5h3.5zm7.143 0H8.29v-3.5h3.5zm-10.714 0h-3.5v-3.5h3.5zm7.142 0H4.717v-3.5h3.5zm7.144 0h-3.5v-3.5h3.5zm0 25h-3.5v-3.499h3.5zm0-17.858h-3.5v-3.499h3.5zm0-3.571h-3.5v-3.499h3.5zm0 10.714h-3.5V88.77h3.5zm0 7.143h-3.5v-3.499h3.5zm-7.07 3.572v-3.499h3.498v3.5zm0-21.428v-3.5h3.498v3.5zm-7.143 21.428v-3.5h3.499v3.5zm-.001-21.429v-3.5h3.5v3.5zm3.572 21.429v-3.499h3.5v3.5zm0-21.429v-3.499h3.499v3.5zm-7.143 21.429v-3.499h3.5v3.5zm0-21.429v-3.499h3.499v3.5zm14.213 7.143H8.29v-3.499h3.5zm0-3.572H8.29v-3.499h3.5zM1.074 99.411h-3.5v-3.499h3.5zm3.571 0H1.146v-3.499h3.5zm3.571 0H4.717v-3.499h3.5zM1.074 85.125h-3.5v-3.499h3.5zm3.571 0H1.146v-3.499h3.5zm3.571 0H4.717v-3.499h3.5zM4.645 95.84H1.146v-3.499h3.5zm3.571 0H4.717v-3.499h3.5zm-3.498-7.07h3.499v3.499H4.718zm0-3.572h3.499v3.499H4.718zm-3.571 0h3.499v3.499H1.147zm121.337-53.651h-3.499v-3.499h3.499zm-3.571 0h-3.499v-3.499h3.499zm0-3.57h-3.499v-3.5h3.499zm0 7.143h-3.499v-3.5h3.499zm-3.571 3.57h-3.499v-3.498h3.499zm0-7.143h-3.499v-3.499h3.499zm0 3.573h-3.499v-3.5h3.499zm0-7.143h-3.499v-3.5h3.499zm-3.572 0h-3.499v-3.5h3.499zm0 7.143h-3.499v-3.5h3.499zm0 7.142h-3.499v-3.499h3.499zm-3.571 0H104.7v-3.499h3.499zm0 3.571H104.7v-3.499h3.499zm-3.572 0h-3.499v-3.499h3.499zm0 3.572h-3.499v-3.499h3.499zm0 3.573h-3.499v-3.5h3.499zm0-50.004h-3.499V-.525h3.499zm0 53.576h-3.499v-3.499h3.499zm0-50.004h-3.499V3.047h3.499zm0 53.576h-3.499v-3.499h3.499zm0-50.003h-3.499v-3.5h3.499zm0 21.428h-3.499v-3.499h3.499zm0 7.143h-3.499v-3.498h3.499zm0-14.285h-3.499v-3.5h3.499zm0-7.143h-3.499v-3.499h3.499zm0 25h-3.499v-3.499h3.499zm0-14.285h-3.499v-3.5h3.499zm0 7.143h-3.499v-3.5h3.499zm0-14.286h-3.499v-3.5h3.499zm.073 28.571v-3.499h3.499v3.5zm0 3.572v-3.499h3.499v3.5zm0-50.003V-.525h3.499v3.5zm0 53.576v-3.499h3.499v3.5zm0-50.003v-3.5h3.5v3.5zm0 53.575v-3.499h3.5v3.5zm0-50.003v-3.5h3.5v3.5zm0 3.571v-3.499h3.499v3.5zm14.286 35.715v-3.499h3.499v3.5zm0 3.572v-3.499h3.499v3.5zm0-50.003V-.525h3.499v3.5zm0 53.576v-3.499h3.499v3.5zm0-50.003v-3.5h3.5v3.5zm0 53.575v-3.499h3.5v3.5zm0-50.003v-3.5h3.5v3.5zm0 3.571v-3.499h3.499v3.5zm-7.143 35.715v-3.499h3.499v3.5zm0 3.572v-3.499h3.499v3.5zm0-50.003V-.525h3.499v3.5zm0 53.576v-3.499h3.499v3.5zm0-50.003v-3.5h3.5v3.5zm0 53.575v-3.499h3.5v3.5zm0-50.003v-3.5h3.5v3.5zm0 3.571v-3.499h3.499v3.5zm-3.573 35.715v-3.499h3.5v3.5zm0 3.572v-3.499h3.5v3.5zm0-50.003V-.525h3.5v3.5zm0 53.576v-3.499h3.5v3.5zm.001-50.003v-3.5h3.5v3.5zm0 53.575v-3.499h3.5v3.5zm0-50.003v-3.5h3.5v3.5zm-.001 3.571v-3.499h3.5v3.5zm7.144 35.715v-3.499h3.499v3.5zm0 3.572v-3.499h3.499v3.5zm0-50.003V-.525h3.499v3.5zm0 53.576v-3.499h3.499v3.5zm0-50.003v-3.5h3.5v3.5zm0 53.575v-3.499h3.5v3.5zm0-50.003v-3.5h3.5v3.5zm0 3.571v-3.499h3.499v3.5zm-10.787 0h-3.499v-3.498h3.499zm10.715 32.143h-3.499v-3.499h3.499zm7.142 0h-3.499v-3.499h3.499zm-10.714 0h-3.499v-3.499h3.499zm7.143 0h-3.499v-3.499h3.499zm-10.714-17.856H104.7v-3.5h3.499zm0 7.143H104.7v-3.5h3.499zm0-14.286H104.7v-3.5h3.499zm0 17.856H104.7v-3.498h3.499zm0-14.285H104.7v-3.5h3.499zm0 7.142H104.7v-3.499h3.499zm0-14.285H104.7v-3.499h3.499zm7.143 0h-3.499v-3.499h3.499zm7.142 0h-3.499v-3.499h3.499zm-10.714 0h-3.499v-3.499h3.499zm7.143 0h-3.499v-3.499h3.499zm-7.143 7.143h-3.499v-3.5h3.499zm0-3.571h-3.499v-3.5h3.499zm0 10.713h-3.499v-3.499h3.499zm0 7.143h-3.499v-3.498h3.499zm7.216 3.572v-3.499h3.499v3.499zm0-21.429v-3.499h3.499v3.5zm-7.143 21.429v-3.499h3.499v3.499zm0-21.429v-3.499h3.499v3.5zm3.571 21.429v-3.499h3.499v3.499zm0-21.429v-3.499h3.499v3.5zm-.072 3.572h-3.499v-3.5h3.499zm3.571 14.285h-3.499v-3.498h3.499zm3.571 0h-3.499v-3.498h3.499zm-3.571-14.285h-3.499v-3.5h3.499zm3.571 0h-3.499v-3.5h3.499zm0 10.715h-3.499v-3.5h3.499zm-3.498-10.642h3.499v3.499h-3.499zm3.498 67.79h-3.499v-3.499h3.499zm-3.571 0h-3.499v-3.499h3.499zm0-3.571h-3.499v-3.499h3.499zm0 7.143h-3.499v-3.499h3.499zm-3.571 3.571h-3.499v-3.499h3.499zm0-7.143h-3.499v-3.499h3.499zm0 3.572h-3.499v-3.499h3.499zm0-7.143h-3.499v-3.499h3.499zm-3.572 0h-3.499v-3.499h3.499zm0 7.143h-3.499v-3.499h3.499zm0 7.143h-3.499v-3.499h3.499zm-3.571 0H104.7v-3.499h3.499zm0 3.571H104.7v-3.499h3.499zm-3.572 0h-3.499v-3.499h3.499zm0 3.572h-3.499v-3.499h3.499zm0 3.572h-3.499v-3.499h3.499zm0-50.003h-3.499v-3.5h3.499zm0 53.576h-3.499v-3.499h3.499zm0-50.004h-3.499v-3.499h3.499zm0 53.576h-3.499v-3.499h3.499zm0-50.003h-3.499v-3.5h3.499zm0 21.428h-3.499v-3.499h3.499zm0 7.143h-3.499v-3.499h3.499zm0-14.286h-3.499v-3.499h3.499zm0-7.143h-3.499v-3.499h3.499zm0 25.001h-3.499v-3.499h3.499zm0-14.286h-3.499v-3.499h3.499zm0 7.143h-3.499v-3.499h3.499zm0-14.286h-3.499v-3.499h3.499zm.073 28.572v-3.499h3.499v3.499zm0 3.572v-3.499h3.499v3.499zm0-50.003v-3.5h3.5v3.5zm0 53.576v-3.499h3.499v3.499zm0-50.004v-3.499h3.499v3.5zm0 53.576v-3.499h3.499v3.499zm0-50.003v-3.5h3.5v3.5zm0 3.571v-3.499h3.499v3.5zm14.286 35.715v-3.499h3.499v3.499zm0 3.572v-3.499h3.499v3.499zm0-50.003v-3.5h3.5v3.5zm0 53.576v-3.499h3.499v3.499zm0-50.004v-3.499h3.499v3.5zm0 53.576v-3.499h3.499v3.499zm0-50.003v-3.5h3.5v3.5zm0 3.571v-3.499h3.499v3.5zm-7.143 35.715v-3.499h3.499v3.499zm0 3.572v-3.499h3.499v3.499zm0-50.003v-3.5h3.5v3.5zm0 53.576v-3.499h3.499v3.499zm0-50.004v-3.499h3.499v3.5zm0 53.576v-3.499h3.499v3.499zm0-50.003v-3.5h3.5v3.5zm0 3.571v-3.499h3.499v3.5zm-3.572 35.715v-3.499h3.499v3.499zm0 3.572v-3.499h3.499v3.499zm0-50.003v-3.5h3.5v3.5zm0 53.576v-3.499h3.499v3.499zm-.001-50.004v-3.499h3.5v3.5zm.001 53.576v-3.499h3.499v3.499zm0-50.003v-3.5h3.5v3.5zm-.001 3.571v-3.499h3.5v3.5zm7.144 35.715v-3.499h3.499v3.499zm0 3.572v-3.499h3.499v3.499zm0-50.003v-3.5h3.5v3.5zm0 53.576v-3.499h3.499v3.499zm0-50.004v-3.499h3.499v3.5zm0 53.576v-3.499h3.499v3.499zm0-50.003v-3.5h3.5v3.5zm0 3.571v-3.499h3.499v3.5zm-10.787 0h-3.499v-3.499h3.499zm10.715 32.143h-3.499v-3.499h3.499zm7.142 0h-3.499v-3.499h3.499zm-10.714 0h-3.499v-3.499h3.499zm7.143 0h-3.499v-3.499h3.499zm-10.714-17.857H104.7v-3.499h3.499zm0 7.143H104.7v-3.499h3.499zm0-14.286H104.7v-3.499h3.499zm0 17.857H104.7v-3.499h3.499zm0-14.286H104.7v-3.499h3.499zm0 7.143H104.7v-3.499h3.499zm0-14.286H104.7v-3.499h3.499zm7.143 0h-3.499v-3.499h3.499zm7.142 0h-3.499v-3.499h3.499zm-10.714 0h-3.499v-3.499h3.499zm7.143 0h-3.499v-3.499h3.499zm-7.143 7.143h-3.499v-3.499h3.499zm0-3.571h-3.499v-3.499h3.499zm0 10.714h-3.499v-3.499h3.499zm0 7.143h-3.499v-3.499h3.499zm7.216 3.572v-3.499h3.499v3.499zm0-21.429v-3.499h3.499v3.5zm-7.143 21.429v-3.499h3.499v3.499zm0-21.429v-3.499h3.499v3.5zm3.571 21.429v-3.499h3.499v3.499zm0-21.429v-3.499h3.499v3.5zm-.072 3.571h-3.499v-3.499h3.499zm3.571 14.286h-3.499v-3.499h3.499zm3.571 0h-3.499v-3.499h3.499zm-3.571-14.286h-3.499v-3.499h3.499zm3.571 0h-3.499v-3.499h3.499zm0 10.715h-3.499v-3.499h3.499zm-3.498-10.642h3.499v3.499h-3.499z"/>
    <circle cx="76.118" cy="31.579" r="1.083" transform="rotate(180 76.118 31.579)" fill="#99D8C9"/>
    <circle cx="72.534" cy="28.018" r="1.083" transform="rotate(180 72.534 28.018)" fill="#99D8C9"/>
    <circle cx="68.973" cy="28.018" r="1.083" transform="rotate(180 68.973 28.018)" fill="#99D8C9"/>
    <circle cx="65.389" cy="28.018" r="1.083" transform="rotate(180 65.39 28.018)" fill="#99D8C9"/>
    <circle cx="61.828" cy="28.018" r="1.083" transform="rotate(180 61.828 28.018)" fill="#99D8C9"/>
    <circle cx="57.998" cy="31.31" r="1.083" transform="rotate(180 57.998 31.31)" fill="#99D8C9"/>
    <circle cx="54.683" cy="31.579" r="1.083" transform="rotate(180 54.683 31.579)" fill="#99D8C9"/>
    <circle cx="51.122" cy="35.163" r="1.083" transform="rotate(180 51.122 35.163)" fill="#99D8C9"/>
    <circle cx="47.538" cy="38.724" r="1.083" transform="rotate(180 47.538 38.724)" fill="#99D8C9"/>
    <circle cx="43.988" cy="42.296" r=".804" transform="rotate(180 43.988 42.296)" fill="#99D8C9"/>
    <circle cx="47.55" cy="42.296" r=".804" transform="rotate(180 47.55 42.296)" fill="#99D8C9"/>
    <circle cx="43.988" cy="45.858" r=".804" transform="rotate(180 43.988 45.858)" fill="#99D8C9"/>
    <circle cx="43.988" cy="49.419" r=".804" transform="rotate(180 43.988 49.419)" fill="#99D8C9"/>
    <circle cx="43.988" cy="53.025" r=".804" transform="rotate(180 43.988 53.025)" fill="#99D8C9"/>
    <circle cx="43.988" cy="56.631" r=".804" transform="rotate(180 43.988 56.631)" fill="#99D8C9"/>
    <circle cx="43.988" cy="60.17" r=".804" transform="rotate(180 43.988 60.17)" fill="#99D8C9"/>
    <circle cx="47.55" cy="63.754" r=".804" transform="rotate(180 47.55 63.754)" fill="#99D8C9"/>
    <circle cx="47.55" cy="67.315" r=".804" transform="rotate(180 47.55 67.315)" fill="#99D8C9"/>
    <circle cx="51.133" cy="70.898" r=".804" transform="rotate(180 51.133 70.898)" fill="#99D8C9"/>
    <circle cx="51.133" cy="67.315" r=".804" transform="rotate(180 51.133 67.315)" fill="#99D8C9"/>
    <circle cx="54.695" cy="78.021" r=".804" transform="rotate(180 54.695 78.021)" fill="#99D8C9"/>
    <circle cx="54.695" cy="92.311" r=".804" transform="rotate(180 54.695 92.311)" fill="#99D8C9"/>
    <circle cx="51.156" cy="92.311" r=".804" transform="rotate(180 51.156 92.311)" fill="#99D8C9"/>
    <circle cx="47.594" cy="88.75" r=".804" transform="rotate(180 47.594 88.75)" fill="#99D8C9"/>
    <circle cx="47.55" cy="81.605" r=".804" transform="rotate(180 47.55 81.605)" fill="#99D8C9"/>
    <circle cx="43.988" cy="81.605" r=".804" transform="rotate(180 43.988 81.605)" fill="#99D8C9"/>
    <circle cx="43.988" cy="78.043" r=".804" transform="rotate(180 43.988 78.043)" fill="#99D8C9"/>
    <circle cx="40.382" cy="78.043" r=".804" transform="rotate(180 40.382 78.043)" fill="#99D8C9"/>
    <circle cx="40.382" cy="74.46" r=".804" transform="rotate(180 40.382 74.46)" fill="#99D8C9"/>
    <circle cx="36.843" cy="74.46" r=".804" transform="rotate(180 36.843 74.46)" fill="#99D8C9"/>
    <circle cx="36.843" cy="70.898" r=".804" transform="rotate(180 36.843 70.898)" fill="#99D8C9"/>
    <circle cx="33.26" cy="67.315" r=".804" transform="rotate(180 33.26 67.315)" fill="#99D8C9"/>
    <circle cx="33.26" cy="63.731" r=".804" transform="rotate(180 33.26 63.731)" fill="#99D8C9"/>
    <circle cx="29.698" cy="56.586" r=".804" transform="rotate(180 29.698 56.586)" fill="#99D8C9"/>
    <circle cx="33.26" cy="60.17" r=".804" transform="rotate(180 33.26 60.17)" fill="#99D8C9"/>
    <circle cx="29.698" cy="53.025" r=".804" transform="rotate(180 29.698 53.025)" fill="#99D8C9"/>
    <circle cx="29.698" cy="49.464" r=".804" transform="rotate(180 29.698 49.464)" fill="#99D8C9"/>
    <circle cx="29.698" cy="45.858" r=".804" transform="rotate(180 29.698 45.858)" fill="#99D8C9"/>
    <circle cx="33.26" cy="42.296" r=".804" transform="rotate(180 33.26 42.296)" fill="#99D8C9"/>
    <circle cx="33.26" cy="38.713" r=".804" transform="rotate(180 33.26 38.713)" fill="#99D8C9"/>
    <circle cx="33.26" cy="35.174" r=".804" transform="rotate(180 33.26 35.174)" fill="#99D8C9"/>
    <circle cx="36.843" cy="31.59" r=".804" transform="rotate(180 36.843 31.59)" fill="#99D8C9"/>
    <circle cx="40.405" cy="28.029" r=".804" transform="rotate(180 40.405 28.029)" fill="#99D8C9"/>
    <circle cx="43.988" cy="24.445" r=".804" transform="rotate(180 43.988 24.445)" fill="#99D8C9"/>
    <circle cx="47.55" cy="20.884" r=".804" transform="rotate(180 47.55 20.884)" fill="#99D8C9"/>
    <circle cx="51.133" cy="20.884" r=".804" transform="rotate(180 51.133 20.884)" fill="#99D8C9"/>
    <circle cx="51.133" cy="17.3" r=".804" transform="rotate(180 51.133 17.3)" fill="#99D8C9"/>
    <circle cx="54.695" cy="17.3" r=".804" transform="rotate(180 54.695 17.3)" fill="#99D8C9"/>
    <circle cx="58.278" cy="17.3" r=".804" transform="rotate(180 58.278 17.3)" fill="#99D8C9"/>
    <circle cx="61.84" cy="17.3" r=".804" transform="rotate(180 61.84 17.3)" fill="#99D8C9"/>
    <circle cx="65.401" cy="13.739" r=".804" transform="rotate(180 65.4 13.739)" fill="#99D8C9"/>
    <circle cx="68.984" cy="13.739" r=".804" transform="rotate(180 68.984 13.739)" fill="#99D8C9"/>
    <circle cx="72.546" cy="17.3" r=".804" transform="rotate(180 72.546 17.3)" fill="#99D8C9"/>
    <circle cx="76.129" cy="17.3" r=".804" transform="rotate(180 76.13 17.3)" fill="#99D8C9"/>
    <circle cx="79.691" cy="17.3" r=".804" transform="rotate(180 79.69 17.3)" fill="#99D8C9"/>
    <circle cx="83.274" cy="17.3" r=".804" transform="rotate(180 83.274 17.3)" fill="#99D8C9"/>
    <circle cx="58.278" cy="78.021" r=".804" transform="rotate(180 58.278 78.021)" fill="#99D8C9"/>
    <circle cx="58.278" cy="92.311" r=".804" transform="rotate(180 58.278 92.311)" fill="#99D8C9"/>
    <circle cx="65.401" cy="88.75" r=".804" transform="rotate(180 65.4 88.75)" fill="#99D8C9"/>
    <circle cx="61.84" cy="78.021" r=".804" transform="rotate(180 61.84 78.021)" fill="#99D8C9"/>
    <circle cx="61.84" cy="92.311" r=".804" transform="rotate(180 61.84 92.311)" fill="#99D8C9"/>
    <circle cx="68.962" cy="88.75" r=".804" transform="rotate(180 68.962 88.75)" fill="#99D8C9"/>
    <circle cx="72.546" cy="85.166" r=".804" transform="rotate(180 72.546 85.166)" fill="#99D8C9"/>
    <circle cx="76.129" cy="81.605" r=".804" transform="rotate(180 76.13 81.605)" fill="#99D8C9"/>
    <circle cx="79.691" cy="74.46" r=".804" transform="rotate(180 79.69 74.46)" fill="#99D8C9"/>
    <circle cx="79.691" cy="78.021" r=".804" transform="rotate(180 79.69 78.021)" fill="#99D8C9"/>
    <circle cx="76.129" cy="78.021" r=".804" transform="rotate(180 76.13 78.021)" fill="#99D8C9"/>
    <circle cx="79.691" cy="70.898" r=".804" transform="rotate(180 79.69 70.898)" fill="#99D8C9"/>
    <circle cx="79.691" cy="67.315" r=".804" transform="rotate(180 79.69 67.315)" fill="#99D8C9"/>
    <circle cx="79.691" cy="63.754" r=".804" transform="rotate(180 79.69 63.754)" fill="#99D8C9"/>
    <circle cx="79.691" cy="60.17" r=".804" transform="rotate(180 79.69 60.17)" fill="#99D8C9"/>
    <circle cx="76.129" cy="56.586" r=".804" transform="rotate(180 76.13 56.586)" fill="#99D8C9"/>
    <circle cx="72.546" cy="53.025" r=".804" transform="rotate(180 72.546 53.025)" fill="#99D8C9"/>
    <circle cx="72.546" cy="49.486" r=".804" transform="rotate(180 72.546 49.486)" fill="#99D8C9"/>
    <circle cx="79.691" cy="42.296" r=".804" transform="rotate(180 79.69 42.296)" fill="#99D8C9"/>
    <circle cx="83.274" cy="42.296" r=".804" transform="rotate(180 83.274 42.296)" fill="#99D8C9"/>
    <circle cx="76.129" cy="38.735" r=".804" transform="rotate(180 76.13 38.735)" fill="#99D8C9"/>
    <circle cx="83.274" cy="45.858" r=".804" transform="rotate(180 83.274 45.858)" fill="#99D8C9"/>
    <circle cx="86.836" cy="45.88" r=".804" transform="rotate(180 86.836 45.88)" fill="#99D8C9"/>
    <circle cx="86.836" cy="49.419" r=".804" transform="rotate(180 86.836 49.419)" fill="#99D8C9"/>
    <circle cx="90.419" cy="53.025" r=".804" transform="rotate(180 90.42 53.025)" fill="#99D8C9"/>
    <circle cx="90.419" cy="56.586" r=".804" transform="rotate(180 90.42 56.586)" fill="#99D8C9"/>
    <circle cx="90.419" cy="60.17" r=".804" transform="rotate(180 90.42 60.17)" fill="#99D8C9"/>
    <circle cx="93.981" cy="63.731" r=".804" transform="rotate(180 93.98 63.731)" fill="#99D8C9"/>
    <circle cx="93.981" cy="67.315" r=".804" transform="rotate(180 93.98 67.315)" fill="#99D8C9"/>
    <circle cx="93.981" cy="70.898" r=".804" transform="rotate(180 93.98 70.898)" fill="#99D8C9"/>
    <circle cx="93.981" cy="74.482" r=".804" transform="rotate(180 93.98 74.482)" fill="#99D8C9"/>
    <circle cx="90.408" cy="74.471" r=".524" transform="rotate(180 90.408 74.471)" fill="#99D8C9"/>
    <circle cx="90.408" cy="70.887" r=".524" transform="rotate(180 90.408 70.887)" fill="#99D8C9"/>
    <circle cx="90.408" cy="67.304" r=".524" transform="rotate(180 90.408 67.304)" fill="#99D8C9"/>
    <circle cx="90.408" cy="63.742" r=".524" transform="rotate(180 90.408 63.742)" fill="#99D8C9"/>
    <circle cx="93.969" cy="60.159" r=".524" transform="rotate(180 93.97 60.159)" fill="#99D8C9"/>
    <circle cx="86.824" cy="53.014" r=".524" transform="rotate(180 86.824 53.014)" fill="#99D8C9"/>
    <circle cx="79.68" cy="38.724" r=".524" transform="rotate(180 79.68 38.724)" fill="#99D8C9"/>
    <circle cx="72.534" cy="31.579" r=".524" transform="rotate(180 72.534 31.579)" fill="#99D8C9"/>
    <circle cx="83.263" cy="20.873" r=".524" transform="rotate(180 83.263 20.873)" fill="#99D8C9"/>
    <circle cx="72.534" cy="13.728" r=".524" transform="rotate(180 72.534 13.728)" fill="#99D8C9"/>
    <circle cx="68.973" cy="17.289" r=".524" transform="rotate(180 68.973 17.289)" fill="#99D8C9"/>
    <circle cx="61.828" cy="13.728" r=".524" transform="rotate(180 61.828 13.728)" fill="#99D8C9"/>
    <circle cx="58.267" cy="13.728" r=".524" transform="rotate(180 58.267 13.728)" fill="#99D8C9"/>
    <circle cx="47.538" cy="24.434" r=".524" transform="rotate(180 47.538 24.434)" fill="#99D8C9"/>
    <circle cx="43.977" cy="20.873" r=".524" transform="rotate(180 43.977 20.873)" fill="#99D8C9"/>
    <circle cx="40.438" cy="24.434" r=".524" transform="rotate(180 40.438 24.434)" fill="#99D8C9"/>
    <circle cx="36.832" cy="28.018" r=".524" transform="rotate(180 36.832 28.018)" fill="#99D8C9"/>
    <circle cx="29.687" cy="42.308" r=".524" transform="rotate(180 29.687 42.308)" fill="#99D8C9"/>
    <circle cx="33.248" cy="45.869" r=".524" transform="rotate(180 33.248 45.869)" fill="#99D8C9"/>
    <circle cx="33.248" cy="49.43" r=".524" transform="rotate(180 33.248 49.43)" fill="#99D8C9"/>
    <circle cx="33.248" cy="53.014" r=".524" transform="rotate(180 33.248 53.014)" fill="#99D8C9"/>
    <circle cx="36.832" cy="67.304" r=".524" transform="rotate(180 36.832 67.304)" fill="#99D8C9"/>
    <circle cx="33.293" cy="70.865" r=".524" transform="rotate(180 33.293 70.865)" fill="#99D8C9"/>
    <circle cx="61.828" cy="74.449" r=".524" transform="rotate(180 61.828 74.449)" fill="#99D8C9"/>
    <circle cx="65.389" cy="78.032" r=".524" transform="rotate(180 65.39 78.032)" fill="#99D8C9"/>
    <circle cx="72.557" cy="81.571" r=".524" transform="rotate(180 72.557 81.571)" fill="#99D8C9"/>
    <circle cx="72.557" cy="88.739" r=".524" transform="rotate(180 72.557 88.739)" fill="#99D8C9"/>
    <circle cx="68.973" cy="85.2" r=".524" transform="rotate(180 68.973 85.2)" fill="#99D8C9"/>
    <circle cx="65.389" cy="92.322" r=".524" transform="rotate(180 65.39 92.322)" fill="#99D8C9"/>
    <circle cx="61.828" cy="88.739" r=".524" transform="rotate(180 61.828 88.739)" fill="#99D8C9"/>
    <circle cx="51.144" cy="88.739" r=".524" transform="rotate(180 51.144 88.739)" fill="#99D8C9"/>
    <circle cx="47.583" cy="92.3" r=".524" transform="rotate(180 47.583 92.3)" fill="#99D8C9"/>
    <circle cx="76.118" cy="85.155" r=".524" transform="rotate(180 76.118 85.155)" fill="#99D8C9"/>
    <circle cx="68.973" cy="70.887" r=".524" transform="rotate(180 68.973 70.887)" fill="#99D8C9"/>
    <circle cx="68.973" cy="67.304" r=".524" transform="rotate(180 68.973 67.304)" fill="#99D8C9"/>
    <circle cx="65.389" cy="60.159" r=".524" transform="rotate(180 65.39 60.159)" fill="#99D8C9"/>
    <circle cx="58.289" cy="60.159" r=".524" transform="rotate(180 58.29 60.159)" fill="#99D8C9"/>
    <circle cx="54.683" cy="53.014" r=".524" transform="rotate(180 54.683 53.014)" fill="#99D8C9"/>
    <circle cx="54.683" cy="49.452" r=".524" transform="rotate(180 54.683 49.452)" fill="#99D8C9"/>
    <circle cx="61.828" cy="45.869" r=".524" transform="rotate(180 61.828 45.869)" fill="#99D8C9"/>
    <circle cx="69.108" cy="49.408" r=".524" transform="rotate(180 69.108 49.408)" fill="#99D8C9"/>
    <circle cx="76.096" cy="53.014" r=".524" transform="rotate(180 76.096 53.014)" fill="#99D8C9"/>
    <circle cx="76.096" cy="60.159" r=".524" transform="rotate(180 76.096 60.159)" fill="#99D8C9"/>
    <circle cx="33.248" cy="56.62" r=".524" transform="rotate(180 33.248 56.62)" fill="#99D8C9"/>
    <circle cx="29.71" cy="60.159" r=".524" transform="rotate(180 29.71 60.159)" fill="#99D8C9"/>
    <circle cx="36.832" cy="35.163" r=".524" transform="rotate(180 36.832 35.163)" fill="#99D8C9"/>
    <circle cx="65.389" cy="17.289" r=".524" transform="rotate(180 65.39 17.289)" fill="#99D8C9"/>
    <circle cx="76.118" cy="13.728" r=".524" transform="rotate(180 76.118 13.728)" fill="#99D8C9"/>
    <circle cx="61.828" cy="31.87" r=".524" transform="rotate(180 61.828 31.87)" fill="#99D8C9"/>
    <circle cx="58.267" cy="28.018" r=".524" transform="rotate(180 58.267 28.018)" fill="#99D8C9"/>
    <circle cx="54.683" cy="35.163" r=".524" transform="rotate(180 54.683 35.163)" fill="#99D8C9"/>
    <circle cx="51.122" cy="38.702" r=".524" transform="rotate(180 51.122 38.702)" fill="#99D8C9"/>
    <circle cx="47.538" cy="35.163" r=".524" transform="rotate(180 47.538 35.163)" fill="#99D8C9"/>
    <circle cx="47.538" cy="45.869" r=".524" transform="rotate(180 47.538 45.869)" fill="#99D8C9"/>
    <circle cx="47.538" cy="60.159" r=".524" transform="rotate(180 47.538 60.159)" fill="#99D8C9"/>
    <circle cx="43.977" cy="63.72" r=".524" transform="rotate(180 43.977 63.72)" fill="#99D8C9"/>
    <circle cx="54.683" cy="70.887" r=".524" transform="rotate(180 54.683 70.887)" fill="#99D8C9"/>
    <circle cx="51.122" cy="31.579" r=".524" transform="rotate(180 51.122 31.579)" fill="#99D8C9"/>
    <circle cx="90.408" cy="49.475" r=".524" transform="rotate(180 90.408 49.475)" fill="#99D8C9"/>
    <circle cx="93.981" cy="56.586" r=".244" transform="rotate(180 93.98 56.586)" fill="#99D8C9"/>
    <circle cx="83.274" cy="49.419" r=".244" transform="rotate(180 83.274 49.419)" fill="#99D8C9"/>
    <circle cx="86.836" cy="42.319" r=".244" transform="rotate(180 86.836 42.319)" fill="#99D8C9"/>
    <circle cx="83.274" cy="38.735" r=".244" transform="rotate(180 83.274 38.735)" fill="#99D8C9"/>
    <circle cx="79.691" cy="45.88" r=".244" transform="rotate(180 79.69 45.88)" fill="#99D8C9"/>
    <circle cx="76.129" cy="42.296" r=".244" transform="rotate(180 76.13 42.296)" fill="#99D8C9"/>
    <circle cx="76.129" cy="35.174" r=".244" transform="rotate(180 76.13 35.174)" fill="#99D8C9"/>
    <circle cx="79.691" cy="28.029" r=".244" transform="rotate(180 79.69 28.029)" fill="#99D8C9"/>
    <circle cx="79.691" cy="20.884" r=".244" transform="rotate(180 79.69 20.884)" fill="#99D8C9"/>
    <circle cx="86.836" cy="17.3" r=".244" transform="rotate(180 86.836 17.3)" fill="#99D8C9"/>
    <circle cx="79.691" cy="13.739" r=".244" transform="rotate(180 79.69 13.739)" fill="#99D8C9"/>
    <circle cx="54.695" cy="20.884" r=".244" transform="rotate(180 54.695 20.884)" fill="#99D8C9"/>
    <circle cx="54.695" cy="13.739" r=".244" transform="rotate(180 54.695 13.739)" fill="#99D8C9"/>
    <circle cx="47.572" cy="17.3" r=".244" transform="rotate(180 47.572 17.3)" fill="#99D8C9"/>
    <circle cx="43.988" cy="28.029" r=".244" transform="rotate(180 43.988 28.029)" fill="#99D8C9"/>
    <circle cx="40.427" cy="31.59" r=".244" transform="rotate(180 40.427 31.59)" fill="#99D8C9"/>
    <circle cx="33.26" cy="31.59" r=".244" transform="rotate(180 33.26 31.59)" fill="#99D8C9"/>
    <circle cx="36.843" cy="38.735" r=".244" transform="rotate(180 36.843 38.735)" fill="#99D8C9"/>
    <circle cx="29.676" cy="38.735" r=".244" transform="rotate(180 29.676 38.735)" fill="#99D8C9"/>
    <circle cx="68.984" cy="31.59" r=".244" transform="rotate(180 68.984 31.59)" fill="#99D8C9"/>
    <circle cx="65.401" cy="31.59" r=".244" transform="rotate(180 65.4 31.59)" fill="#99D8C9"/>
    <circle cx="47.55" cy="49.441" r=".244" transform="rotate(180 47.55 49.441)" fill="#99D8C9"/>
    <circle cx="47.55" cy="53.025" r=".244" transform="rotate(180 47.55 53.025)" fill="#99D8C9"/>
    <circle cx="47.55" cy="56.586" r=".244" transform="rotate(180 47.55 56.586)" fill="#99D8C9"/>
    <circle cx="54.695" cy="67.315" r=".244" transform="rotate(180 54.695 67.315)" fill="#99D8C9"/>
    <circle cx="40.382" cy="56.586" r=".244" transform="rotate(180 40.382 56.586)" fill="#99D8C9"/>
    <circle cx="29.721" cy="63.754" r=".244" transform="rotate(180 29.72 63.754)" fill="#99D8C9"/>
    <circle cx="36.798" cy="63.731" r=".244" transform="rotate(180 36.798 63.731)" fill="#99D8C9"/>
    <circle cx="40.382" cy="70.876" r=".244" transform="rotate(180 40.382 70.876)" fill="#99D8C9"/>
    <circle cx="40.382" cy="81.605" r=".244" transform="rotate(180 40.382 81.605)" fill="#99D8C9"/>
    <circle cx="36.798" cy="78.021" r=".244" transform="rotate(180 36.798 78.021)" fill="#99D8C9"/>
    <circle cx="47.55" cy="85.166" r=".244" transform="rotate(180 47.55 85.166)" fill="#99D8C9"/>
    <circle cx="47.55" cy="78.021" r=".244" transform="rotate(180 47.55 78.021)" fill="#99D8C9"/>
    <circle cx="54.717" cy="81.605" r=".244" transform="rotate(180 54.717 81.605)" fill="#99D8C9"/>
    <circle cx="58.278" cy="81.605" r=".244" transform="rotate(180 58.278 81.605)" fill="#99D8C9"/>
    <circle cx="68.984" cy="74.46" r=".244" transform="rotate(180 68.984 74.46)" fill="#99D8C9"/>
    <circle cx="68.984" cy="63.754" r=".244" transform="rotate(180 68.984 63.754)" fill="#99D8C9"/>
    <circle cx="61.84" cy="63.754" r=".244" transform="rotate(180 61.84 63.754)" fill="#99D8C9"/>
    <circle cx="61.84" cy="56.586" r=".244" transform="rotate(180 61.84 56.586)" fill="#99D8C9"/>
    <circle cx="54.695" cy="56.586" r=".244" transform="rotate(180 54.695 56.586)" fill="#99D8C9"/>
    <circle cx="54.695" cy="45.858" r=".244" transform="rotate(180 54.695 45.858)" fill="#99D8C9"/>
    <circle cx="58.278" cy="42.296" r=".244" transform="rotate(180 58.278 42.296)" fill="#99D8C9"/>
    <circle cx="65.401" cy="38.735" r=".244" transform="rotate(180 65.4 38.735)" fill="#99D8C9"/>
    <circle cx="68.962" cy="38.735" r=".244" transform="rotate(180 68.962 38.735)" fill="#99D8C9"/>
    <circle cx="72.523" cy="42.319" r=".244" transform="rotate(180 72.523 42.319)" fill="#99D8C9"/>
    <circle cx="68.984" cy="53.025" r=".244" transform="rotate(180 68.984 53.025)" fill="#99D8C9"/>
    <circle cx="72.523" cy="56.586" r=".244" transform="rotate(180 72.523 56.586)" fill="#99D8C9"/>
    <circle cx="76.129" cy="63.731" r=".244" transform="rotate(180 76.13 63.731)" fill="#99D8C9"/>
    <circle cx="79.691" cy="56.586" r=".244" transform="rotate(180 79.69 56.586)" fill="#99D8C9"/>
    <circle cx="83.252" cy="67.315" r=".244" transform="rotate(180 83.252 67.315)" fill="#99D8C9"/>
    <circle cx="83.252" cy="70.876" r=".244" transform="rotate(180 83.252 70.876)" fill="#99D8C9"/>
    <circle cx="76.129" cy="74.46" r=".244" transform="rotate(180 76.13 74.46)" fill="#99D8C9"/>
    <circle cx="79.691" cy="81.582" r=".244" transform="rotate(180 79.69 81.582)" fill="#99D8C9"/>
    <circle cx="68.962" cy="92.333" r=".244" transform="rotate(180 68.962 92.333)" fill="#99D8C9"/>
    <circle cx="58.278" cy="88.75" r=".244" transform="rotate(180 58.278 88.75)" fill="#99D8C9"/>
    <circle cx="54.448" cy="88.75" r=".244" transform="rotate(180 54.448 88.75)" fill="#99D8C9"/>
    <circle cx="76.129" cy="70.876" r=".244" transform="rotate(180 76.13 70.876)" fill="#99D8C9"/>
    <circle cx="76.129" cy="67.315" r=".244" transform="rotate(180 76.13 67.315)" fill="#99D8C9"/>
    <circle cx="40.382" cy="53.025" r=".244" transform="rotate(180 40.382 53.025)" fill="#99D8C9"/>
    <circle cx="40.427" cy="49.419" r=".244" transform="rotate(180 40.427 49.419)" fill="#99D8C9"/>
    <circle cx="90.419" cy="78.021" r=".804" transform="rotate(180 90.42 78.021)" fill="#99D8C9"/>
    <circle cx="90.419" cy="81.605" r=".804" transform="rotate(180 90.42 81.605)" fill="#99D8C9"/>
    <circle cx="90.419" cy="85.188" r=".804" transform="rotate(180 90.42 85.188)" fill="#99D8C9"/>
    <circle cx="86.836" cy="88.75" r=".804" transform="rotate(180 86.836 88.75)" fill="#99D8C9"/>
    <circle cx="83.274" cy="92.311" r=".804" transform="rotate(180 83.274 92.311)" fill="#99D8C9"/>
    <circle cx="79.691" cy="95.895" r=".804" transform="rotate(180 79.69 95.895)" fill="#99D8C9"/>
    <circle cx="76.129" cy="99.456" r=".804" transform="rotate(180 76.13 99.456)" fill="#99D8C9"/>
    <circle cx="72.546" cy="99.456" r=".804" transform="rotate(180 72.546 99.456)" fill="#99D8C9"/>
    <circle cx="72.546" cy="103.04" r=".804" transform="rotate(180 72.546 103.04)" fill="#99D8C9"/>
    <circle cx="68.962" cy="103.04" r=".804" transform="rotate(180 68.962 103.04)" fill="#99D8C9"/>
    <circle cx="65.401" cy="103.04" r=".804" transform="rotate(180 65.4 103.04)" fill="#99D8C9"/>
    <circle cx="65.389" cy="106.59" r=".524" transform="rotate(180 65.39 106.59)" fill="#99D8C9"/>
    <circle cx="61.84" cy="103.04" r=".804" transform="rotate(180 61.84 103.04)" fill="#99D8C9"/>
    <circle cx="61.828" cy="106.59" r=".524" transform="rotate(180 61.828 106.59)" fill="#99D8C9"/>
    <circle cx="58.278" cy="103.04" r=".804" transform="rotate(180 58.278 103.04)" fill="#99D8C9"/>
    <circle cx="58.267" cy="106.59" r=".524" transform="rotate(180 58.267 106.59)" fill="#99D8C9"/>
    <circle cx="54.717" cy="103.04" r=".804" transform="rotate(180 54.717 103.04)" fill="#99D8C9"/>
    <circle cx="54.706" cy="106.59" r=".524" transform="rotate(180 54.706 106.59)" fill="#99D8C9"/>
    <circle cx="51.156" cy="103.04" r=".804" transform="rotate(180 51.156 103.04)" fill="#99D8C9"/>
    <circle cx="51.144" cy="106.59" r=".524" transform="rotate(180 51.144 106.59)" fill="#99D8C9"/>
    <circle cx="43.977" cy="99.445" r=".524" transform="rotate(180 43.977 99.445)" fill="#99D8C9"/>
    <circle cx="68.973" cy="99.445" r=".524" transform="rotate(180 68.973 99.445)" fill="#99D8C9"/>
    <circle cx="76.118" cy="95.883" r=".524" transform="rotate(180 76.118 95.883)" fill="#99D8C9"/>
    <circle cx="79.702" cy="99.445" r=".524" transform="rotate(180 79.702 99.445)" fill="#99D8C9"/>
    <circle cx="83.263" cy="95.883" r=".524" transform="rotate(180 83.263 95.883)" fill="#99D8C9"/>
    <circle cx="79.691" cy="92.311" r=".244" transform="rotate(180 79.69 92.311)" fill="#99D8C9"/>
    <circle cx="76.129" cy="103.04" r=".244" transform="rotate(180 76.13 103.04)" fill="#99D8C9"/>
    <circle cx="43.988" cy="106.601" r=".244" transform="rotate(180 43.988 106.601)" fill="#99D8C9"/>
    <circle cx="68.962" cy="106.601" r=".244" transform="rotate(180 68.962 106.601)" fill="#99D8C9"/>
    <circle cx="86.836" cy="81.582" r=".244" transform="rotate(180 86.836 81.582)" fill="#99D8C9"/>
    <circle cx="90.419" cy="88.75" r=".244" transform="rotate(180 90.42 88.75)" fill="#99D8C9"/>
    <circle cx="94.003" cy="81.605" r=".244" transform="rotate(180 94.003 81.605)" fill="#99D8C9"/>
    <circle cx="36.843" cy="103.04" r=".244" transform="rotate(180 36.843 103.04)" fill="#99D8C9"/>
    <circle cx="86.824" cy="92.3" r=".524" transform="rotate(180 86.824 92.3)" fill="#99D8C9"/>
    <circle cx="83.263" cy="88.739" r=".524" transform="rotate(180 83.263 88.739)" fill="#99D8C9"/>
    <circle cx="86.824" cy="85.2" r=".524" transform="rotate(180 86.824 85.2)" fill="#99D8C9"/>
    <circle cx="87.116" cy="84.886" r=".524" transform="rotate(180 87.116 84.886)" fill="#99D8C9"/>
    <circle cx="47.594" cy="103.04" r=".804" transform="rotate(180 47.594 103.04)" fill="#99D8C9"/>
    <circle cx="47.583" cy="106.59" r=".524" transform="rotate(180 47.583 106.59)" fill="#99D8C9"/>
    <circle cx="40.416" cy="99.445" r=".524" transform="rotate(180 40.416 99.445)" fill="#99D8C9"/>
    <circle cx="43.988" cy="103.04" r=".804" transform="rotate(180 43.988 103.04)" fill="#99D8C9"/>
    <circle cx="40.382" cy="103.04" r=".804" transform="rotate(180 40.382 103.04)" fill="#99D8C9"/>
    <circle cx="65.401" cy="74.46" r=".804" transform="rotate(180 65.4 74.46)" fill="#99D8C9"/>
    <circle cx="65.401" cy="70.876" r=".804" transform="rotate(180 65.4 70.876)" fill="#99D8C9"/>
    <circle cx="65.401" cy="67.315" r=".804" transform="rotate(180 65.4 67.315)" fill="#99D8C9"/>
    <circle cx="65.401" cy="63.731" r=".804" transform="rotate(180 65.4 63.731)" fill="#99D8C9"/>
    <circle cx="61.84" cy="60.17" r=".804" transform="rotate(180 61.84 60.17)" fill="#99D8C9"/>
    <circle cx="58.278" cy="56.631" r=".804" transform="rotate(180 58.278 56.631)" fill="#99D8C9"/>
    <circle cx="58.278" cy="53.025" r=".804" transform="rotate(180 58.278 53.025)" fill="#99D8C9"/>
    <circle cx="58.278" cy="49.464" r=".804" transform="rotate(180 58.278 49.464)" fill="#99D8C9"/>
    <circle cx="58.278" cy="45.858" r=".804" transform="rotate(180 58.278 45.858)" fill="#99D8C9"/>
    <circle cx="61.84" cy="42.296" r=".804" transform="rotate(180 61.84 42.296)" fill="#99D8C9"/>
    <circle cx="65.401" cy="42.296" r=".804" transform="rotate(180 65.4 42.296)" fill="#99D8C9"/>
    <circle cx="68.962" cy="42.296" r=".804" transform="rotate(180 68.962 42.296)" fill="#99D8C9"/>
  </g>
  <defs>
    <radialGradient id="YzbYbz9NeaSMa" cx="0" cy="0" r="1" gradientUnits="userSpaceOnUse" gradientTransform="rotate(90 -.08 60.08) scale(59.377)">
      <stop offset=".685" stop-color="#737373"/>
      <stop offset="1" stop-color="#D9D9D9" stop-opacity="0"/>
    </radialGradient>
  </defs>
</svg>
