<svg fill="none" xmlns="http://www.w3.org/2000/svg" viewBox="0 0 3067 2397">
  <path opacity=".9" d="M2036.07 1446.32c-.47-38.11-35.44-70.76-73.91-62.59-37.31 6.99-55.96 50.13-46.64 83.95 10.5 37.31 54.8 67.63 92.1 45.47 16.33-10.49 27.98-29.15 28.15-48.9.73-5.79.86-11.81.31-17.93h-.01z" fill="#153A90"/>
  <path opacity=".9" d="M2036.07 1446.32c-.47-38.11-35.44-70.76-73.91-62.59-37.31 6.99-55.96 50.13-46.64 83.95 10.5 37.31 54.8 67.63 92.1 45.47 16.33-10.49 27.98-29.15 28.15-48.9.73-5.79.86-11.81.31-17.93h-.01z" fill="#153A90"/>
  <path opacity=".9" d="M2258.44 1355.49c0-7.58-1.28-14.87-3.63-21.65-8.2-20.07-21.02-41.06-44.34-44.56-36.14-4.66-72.28 19.82-78.8 56.35a78.226 78.226 0 00-.63 19.92c1.9 19.83 11.38 38.87 28.13 51.99 17.49 13.99 40.81 17.49 60.63 4.66 17.48-11.66 31.47-27.98 36.3-49.19a66.197 66.197 0 002.34-17.52z" fill="#78CEBC"/>
  <path opacity=".9" d="M2102.22 950.88c0-7.963-1.62-15.566-4.53-22.469a58.35 58.35 0 00-8.64-14.248 58.263 58.263 0 00-12.26-11.159c-17.87-13.666-44.68-14.832-63.34-.839-23.31 16.324-32.64 45.474-22.1 71.173a57.563 57.563 0 0012.37 18.341c5.22 5.212 11.44 9.441 18.28 12.301 4.6 2.08 9.37 3.29 14.2 3.74 4.83.46 9.7.17 14.5-.77 15.23-3.35 29.22-11.516 38.03-22.663 3.29-3.767 6.13-7.848 8.42-12.115 3.19-6.402 5-13.549 5.08-21.303l-.01.011z" fill="#0682B5"/>
  <path opacity=".9" d="M2452.92 915.935c1.22-17.268-17.43-28.929-32.59-27.763-8.16 1.166-16.32 3.498-22.15 9.328-15.16 16.325-3.5 40.811 15.16 46.641 10.49 3.498 22.15 1.166 30.51-7.358 5.44-5.317 8.99-12.744 9.07-20.848z" fill="#04A3C8"/>
  <path opacity=".9" d="M2763.25 956.909c12.67 0 22.93-10.269 22.93-22.936s-10.26-22.935-22.93-22.935c-12.66 0-22.93 10.268-22.93 22.935 0 12.667 10.27 22.936 22.93 22.936z" fill="#02C3DC"/>
  <path opacity=".9" d="M2908.98 704.27a8.16 8.16 0 008.16-8.163 8.16 8.16 0 00-8.16-8.162 8.16 8.16 0 00-8.16 8.162 8.16 8.16 0 008.16 8.163z" fill="#00E4EF"/>
  <path opacity=".9" d="M2076.98 997.089c.84-8.453-1.92-15.333-8.15-21.559a34.263 34.263 0 00-24.32-10.074c-18.99 0-34.39 15.403-34.39 34.397 0 9.507 3.85 18.097 10.07 24.327 13.07 13.24 34.06 8.58 44.88-4.03 6.5-6.46 11.07-14.61 11.9-23.061h.01z" fill="#78CEBC"/>
  <path opacity=".9" d="M2120.07 1194.98c-1.69-35.12-33.17-57.27-63.29-67.31-8.04-2.53-16.27-4.22-24.41-5.02-8.11-.81-16.12-.72-23.72.33-5.02 1.39-9.8 3.47-14.12 6.29-4.31 2.82-8.18 6.39-11.39 10.76-15.54 22.54-26.43 51.82-21.93 77.13 1.12 6.33 3.21 12.41 6.43 18.08 12.02 22.57 36.5 31.9 59.82 28.4 30.11-4.86 57.8-18.62 77.47-40.55 3.94-4.39 7.55-9.1 10.81-14.14 2.03-4.32 3.49-8.96 4.34-13.97h-.01z" fill="#E2F9B4"/>
  <path opacity=".9" d="M1186.16 1419.58c3.04-9.02-1.62-18.35-8.61-20.68-24.49-7-48.97 9.32-60.63 29.15-3.5 6.99-1.16 15.15 6.96 18.93 6.05 4.36 14.69 7.06 24.68 7.06s19.03-4.06 25.57-10.6c6.56-6.51 10.89-15.17 12.04-23.86h-.01z" fill="#153A90"/>
  <path opacity=".9" d="M2040.03 1045.83c.66-8.02.46-15.52-.85-22.59-1.3-7.07-3.6-13.66-7.5-20.31a90.226 90.226 0 00-32.2-32.204c-4.44-2.6-9.1-4.839-13.94-6.693-39.71-16.382-87.5 1.108-108.79 38.807-1.33 4.6-2.25 9.43-2.81 14.46-.64 6.22-.7 12.71-.21 19.32.49 6.6 1.54 13.32 3.1 20.01 1.4 6.51 3.4 12.99 5.98 19.26 16.37 42.87 69.3 75.01 112.72 58.16 6.21-2.4 12.22-5.82 17.91-10.34 16.31-14 23.31-33.82 23.3-54.43 1.59-7.62 2.78-15.51 3.27-23.45h.02zm-78.08 356.12c-.96-20.54-11.45-39.2-21.83-56.84-5.64-8.61-12.34-14.44-21.09-11.52-6.99 2.53-13.44 6.15-19.4 10.64-29.56 30.17-71.53 74.48-52.88 114.12 13.99 29.15 71.12 24.49 95.6 2.33 10.49-9.33 15.15-22.15 18.33-36.05 1.34-7.32 1.8-14.95 1.27-22.69v.01z" fill="#FFF0C6"/>
  <path opacity=".9" d="M2024.9 1292.08c11.87-37.77-16.11-79.75-56.95-71.98-5.14.14-10.27.54-15.26.98-7.07 1.31-13.89 3.64-20.17 7.18a59.253 59.253 0 00-17 14.39c-15.15 18.66-5.83 41.98-2.47 62.04 1.13 4.81 2.44 9.54 3.92 14.21 2.23 6.98 4.85 13.78 7.91 20.28 6.96 29.39 43.11 27.06 64.63 13.22 7.89-4.16 14.76-10.03 20.25-17.11 5.49-7.09 9.63-15.39 12.1-24.44 1.69-5.95 2.7-12.24 3.04-18.77z" fill="#153A90"/>
  <path opacity=".9" d="M2024.9 1292.08c11.87-37.77-16.11-79.75-56.95-71.98-5.14.14-10.27.54-15.26.98-7.07 1.31-13.89 3.64-20.17 7.18a59.253 59.253 0 00-17 14.39c-15.15 18.66-5.83 41.98-2.47 62.04 1.13 4.81 2.44 9.54 3.92 14.21 2.23 6.98 4.85 13.78 7.91 20.28 6.96 29.39 43.11 27.06 64.63 13.22 7.89-4.16 14.76-10.03 20.25-17.11 5.49-7.09 9.63-15.39 12.1-24.44 1.69-5.95 2.7-12.24 3.04-18.77z" fill="#153A90"/>
  <path opacity=".9" d="M1668.53 937.471c0-7.404-1.51-14.458-4.21-20.883a54.258 54.258 0 00-11.5-17.07c-14.77-14.844-39.25-18.342-58.85-11.357-6.37 2.612-12.15 6.529-17 11.38-9.7 9.701-4.43 15.158.04 29.395 5.08 15.205 9.75 29.197 16.79 42.618 5.86 11.986 6.29 19.542 21.1 19.542 29.62 0 53.63-24.008 53.63-53.636v.011zm334.4 265.869c4.69-16.66-5.8-31.82-18.79-40.77-4.52-3.07-9.38-5.52-14.11-7.23-5.11-1.82-10.43-3.02-15.85-3.63-5.42-.6-10.97-.6-16.51-.02-33.81 3.5-53.62 38.48-46.63 69.96 4.66 18.66 20.99 31.48 39.64 34.98 6.41.88 12.38.36 17.98-1.15 5.59-1.52 10.78-4.04 15.63-7.17 10.7-5.68 16.53-16.18 25.59-23.25 5.84-6.73 10.47-14.11 13.06-21.73l-.01.01z" fill="#00E4EF"/>
  <path opacity=".9" d="M1015.63 1028.05c-2.4-9.89-7.1-20.66-13.96-28.827-6.87-8.162-15.905-13.7-26.981-13.117-16.321-1.166-23.316 18.654-18.653 32.644 6.995 20.99 34.975 45.48 55.794 29.74 4.26-4.17 5.74-10.99 3.8-20.45v.01z" fill="#153A90"/>
  <path opacity=".9" d="M1099.54 1093.48c1.06-12.9-8.27-23.4-17.59-31.56-6.71-4.66-14.06-9.4-21.78-13.51-7.72-4.12-15.78-7.61-23.9-9.78-14.95-4.69-33.6-5.86-42.927 6.97-24.483 30.31-8.161 74.62 18.657 96.77 13.99 11.66 33.81 3.5 49.82.04 7.14-2.46 13.76-5.94 19.39-10.67 5.63-4.73 10.27-10.74 13.44-18.25 3.2-7.45 4.92-13.4 4.89-19.99v-.02z" fill="#FFF0C6"/>
  <path opacity=".9" d="M1309.32 1477.54c1.13-29.68-23.35-56.5-52.5-54.17-26.81 2.33-45.46 27.98-43.13 53.64 3.49 26.82 23.31 53.63 51.29 52.47 17.49 0 32.65-13.99 39.93-30.8 2.64-6.51 4.2-13.67 4.41-21.14z" fill="#0682B5"/>
  <path opacity=".9" d="M1153.61 1248.05c-4.04-36.89-33.19-67.21-67-80.04a111.624 111.624 0 00-42.41-5.53c-14.14.87-23.58 5.41-34.96 12.19-33.397 21.33-59.045 56.31-69.188 94.82-1.539 9.63-1.306 19.15.735 28.98 6.936 31.48 27.49 59.02 57.219 74.76 34.974 18.66 74.614 12.83 107.254-9.33 26.82-18.65 43.14-46.64 47.88-76.91 2.29-13.22 2.43-26.35.47-38.94z" fill="#00E4EF"/>
  <path opacity=".9" d="M1199.86 1189.84c-4.24-8.21-7.18-17.15-7.87-28.23-.71-25.78 1.21-53.83-15.8-64.68-5.56-3.34-12.97-4.13-23.56-2.71-17.05.35-34.54 5.01-50.06 14.28-7.9 4.68-14.85 11.03-20.67 17.76-12.78 12.62-30.27 31.27-19.77 48.76 31.48 50.14 89.77 94.45 148.06 79.29 15.16-3.5 5.83-24.49.65-36.84-3.04-7.7-6.9-17.01-10.98-27.63zm149.47 125.05c.64-2.16 1.47-4.26 2.46-6.29 1.74-3.53 1.42-7.84-.53-8.83-14.78-9.09-32.86-4.89-50.36-10.34-.92-.29-1.84-.56-2.78-.79-9.23-2.23-18.41-4.53-27.58-7.02-7.04-1.92-13.85-3.98-20.05-6.3-2.96-1.11-5.66-2.7-8.37-4.34-2.34-1.42-5.36-1.01-6.27.8-10.23 22.73-11.59 47.68-9.35 72.55.13 1.43.34 2.87.62 4.29 1.45 7.29 3.66 13.29 9.77 19.39a75.495 75.495 0 0023.69 16.03c24.88 12.23 60.04 5.78 70.75-21.58.46-1.18.95-2.32 1.53-3.44 3.08-6.01 5.92-12.73 8.53-19.96 3.09-8.57 5.93-17.33 7.97-24.19l-.03.02z" fill="#0682B5"/>
  <path opacity=".9" d="M1316.93 1008.45c-1.62-5.59-2.47-11.302-2.95-17.086-.47-5.795-.57-11.648-.68-17.513.32-9.025.18-18.493-1.62-27.297-1.81-8.803-5.32-16.977-11.73-23.401-30.3-26.807-72.27-41.965-113.08-32.637-55.96 13.992-73.45 74.625-93.29 121.234a76.468 76.468 0 00-4.67 19.96c-3.22 33.24 15.5 65.92 40.43 87.06 7.81 7.82 16.63 14.53 26.28 20.05 10.38 5.66 24.25 22.2 31.24 15.2 23.9-22.73 44.01-48.68 66.45-71.42 7.49-7.57 15.23-14.79 23.45-21.43 12.69-13.25 33.68-20.25 40.69-36.89.73-4.47.44-9.68-.53-15.83h.01z" fill="#FFF0C6"/>
  <path opacity=".9" d="M1316.93 1008.45c-1.62-5.59-2.47-11.302-2.95-17.086-.47-5.795-.57-11.648-.68-17.513.32-9.025.18-18.493-1.62-27.297-1.81-8.803-5.32-16.977-11.73-23.401-30.3-26.807-72.27-41.965-113.08-32.637-55.96 13.992-73.45 74.625-93.29 121.234a76.468 76.468 0 00-4.67 19.96c-3.22 33.24 15.5 65.92 40.43 87.06 7.81 7.82 16.63 14.53 26.28 20.05 10.38 5.66 24.25 22.2 31.24 15.2 23.9-22.73 44.01-48.68 66.45-71.42 7.49-7.57 15.23-14.79 23.45-21.43 12.69-13.25 33.68-20.25 40.69-36.89.73-4.47.44-9.68-.53-15.83h.01z" fill="#FFF0C6"/>
  <path opacity=".9" d="M2015.47 820.008c.12-19.916-8.5-36.951-21.93-50.011-4.48-4.349-9.49-8.267-14.82-11.811-37.55-32.089-100.5-33.255-126.15 14.552-12.83 23.32-13.99 48.972-8.16 74.624 6.99 23.32 23.31 45.475 46.23 53.707 5.82 2.367 11.92 4.104 18.12 5.212 18.62 3.323 38.23 1.142 55.72-7.603 22.15-11.66 38.47-31.482 46.62-55.374 2.53-7.497 4.08-15.321 4.36-23.285l.01-.011z" fill="#153A90"/>
  <path opacity=".9" d="M2015.47 820.008c.12-19.916-8.5-36.951-21.93-50.011-4.48-4.349-9.49-8.267-14.82-11.811-37.55-32.089-100.5-33.255-126.15 14.552-12.83 23.32-13.99 48.972-8.16 74.624 6.99 23.32 23.31 45.475 46.23 53.707 5.82 2.367 11.92 4.104 18.12 5.212 18.62 3.323 38.23 1.142 55.72-7.603 22.15-11.66 38.47-31.482 46.62-55.374 2.53-7.497 4.08-15.321 4.36-23.285l.01-.011z" fill="#153A90"/>
  <path opacity=".9" d="M870.848 1415.94c1.247-19.39-16.24-35.71-34.894-35.71-23.316 1.16-40.804 23.32-38.472 46.64 2.331 17.49 18.653 27.98 34.975 26.82 10.492-1.17 18.653-4.67 26.651-12.01 6.96-6.77 11.39-15.86 11.74-25.74z" fill="#0682B5"/>
  <path opacity=".9" d="M976.24 1550.92c.058-8.39-1.609-16.31-4.64-23.49a60.138 60.138 0 00-12.871-19.09 60.051 60.051 0 00-12.148-9.39c-22.023-12.6-50.003-10.27-69.822 6.05-17.488 15.16-24.483 39.65-18.386 61.77a59.831 59.831 0 006.051 14.34c7.811 13.34 20.636 23.4 35.885 27.6 5.083 1.4 10.434 2.14 15.925 2.18 25.812.22 51.46-18.44 57.686-43.75a61.132 61.132 0 002.32-16.21v-.01z" fill="#153A90"/>
  <path opacity=".9" d="M1052.36 1459.88c.02-7.87-1.56-13.41-4.35-18.14-2.79-4.74-6.75-8.66-11.48-13.26-26.27-19.8-57.376-51.45-91.43-48.46-6.855.6-13.815 2.6-20.915 6.38-27.607 15.98-47.426 47.46-43.929 80.11 2.332 20.99 12.825 39.65 26.791 53.53a88.03 88.03 0 0017.278 13.3 84.706 84.706 0 0020.332 8.58 85.299 85.299 0 0022.629 3.04c37.714 2.01 71.524-25.98 81.834-62.18a85.595 85.595 0 003.25-22.9h-.01z" fill="#3FA8B9"/>
  <path opacity=".9" d="M1259.03 1308.26c0-10.14-5.27-12.51-9.73-18.82-28.63-38.64-43.79-95.77-96.25-108.6-34.19-8.55-68.4 0-95.34 20.13-6.74 5.02-13.02 10.78-18.74 17.17a132.618 132.618 0 00-15.33 21c-40.801 67.63-10.49 162.08 66.46 184.23 58.29 17.49 124.74-7 153.88-59.5 4.78-8.16 8.54-16.99 11.11-26.32 2.56-9.33 3.94-19.14 3.94-29.29z" fill="#5BBBBA"/>
  <path opacity=".9" d="M1483.89 1160.16c8.43-16.63-4.39-32.96-18.38-39.95-55.96-24.49-96.77-67.63-142.23-108.44-4.38-3.5-9.11-5.54-14.02-6.47-4.92-.97-10.01-.83-15.08.04-37.36 9.93-70 35.58-91.67 68.26-2.83 4.29-5.47 8.68-7.88 13.19-2.43 4.48-4.63 9.06-6.57 13.75-3.72 9.62-6.48 19.72-8.18 30.15-2.33 62.97 34.97 127.1 85.56 164.63 8.47 3.94 17.1 7.07 25.91 9.4 70.4 5.54 154.34-45.77 186.34-107.45 3.56-12.93 5.46-26.45 6.19-37.13l.01.02z" fill="#78CEBC"/>
  <path opacity=".9" d="M1483.89 1160.16c8.43-16.63-4.39-32.96-18.38-39.95-55.96-24.49-96.77-67.63-142.23-108.44-4.38-3.5-9.11-5.54-14.02-6.47-4.92-.97-10.01-.83-15.08.04-37.36 9.93-70 35.58-91.67 68.26-2.83 4.29-5.47 8.68-7.88 13.19-2.43 4.48-4.63 9.06-6.57 13.75-3.72 9.62-6.48 19.72-8.18 30.15-2.33 62.97 34.97 127.1 85.56 164.63 8.47 3.94 17.1 7.07 25.91 9.4 70.4 5.54 154.34-45.77 186.34-107.45 3.56-12.93 5.46-26.45 6.19-37.13l.01.02zM1021.31 64.352c.04-6.798-5.66-12.045-12.73-11.73-7.08.28-12.824 6.145-12.836 13.14-.011 6.997 5.706 12.326 12.746 11.836 7.04-.49 12.77-6.448 12.81-13.246h.01z" fill="#78CEBC"/>
  <path opacity=".9" d="M53.839 798.798a9.245 9.245 0 00-9.245-9.246 9.245 9.245 0 00-9.246 9.246 9.245 9.245 0 009.245 9.246c5.107 0 9.257-4.139 9.257-9.246h-.011z" fill="#00E4EF"/>
  <path opacity=".9" d="M25.963 1502.58c-.91-6.4-7.543-11.42-14.701-11.22-7.158.2-12.136 5.5-11.134 11.86.991 6.35 7.497 11.41 14.573 11.26 7.077-.15 12.171-5.49 11.262-11.9z" fill="#78CEBC"/>
  <path opacity=".9" d="M322.868 1936.16c-.117-5.16-4.71-9.09-10.271-8.77-5.561.31-9.898 4.64-9.653 9.65.245 5.02 4.861 8.92 10.306 8.75 5.444-.18 9.746-4.48 9.63-9.63h-.012z" fill="#153A90"/>
  <path opacity=".9" d="M1240.64 2370.71c.02-6.86-5.28-12.86-11.81-13.63-6.53-.77-11.84 4.18-11.93 11.24-.08 7.05 5.15 13.41 11.72 13.98 6.58.57 11.99-4.74 12.02-11.59z" fill="#00E4EF"/>
  <path opacity=".9" d="M1987.97 2316.28c0-6.77-5.48-12.25-12.24-12.25-6.77 0-12.24 5.48-12.24 12.26 0 6.77 5.47 12.23 12.24 12.23 6.76 0 12.24-5.48 12.24-12.24z" fill="#0682B5"/>
  <path opacity=".9" d="M2783.33 1873.12c5.29 0 9.58-4.29 9.58-9.58s-4.29-9.59-9.58-9.59-9.59 4.3-9.59 9.59 4.3 9.58 9.59 9.58zm283.52-557.02c1.04-7.04-3.43-12.8-9.89-12.89-6.46-.08-12.37 5.53-13.36 12.57-.99 7.03 3.34 12.83 9.75 12.92 6.41.1 12.47-5.56 13.5-12.6z" fill="#FFF0C6"/>
  <path opacity=".9" d="M1176.02 304.13c-10.13-5.958-21.79-11.788-34.62-9.456-26.81 4.664-39.63 33.814-30.31 57.134 10.5 24.486 41.97 37.313 66.46 26.818 24.48-10.494 26.81-41.976 12.25-61.402-3.64-4.908-8.27-9.374-13.78-13.094z" fill="#5AD4C9"/>
  <path opacity=".9" d="M1335.37 592.029c1.58-26.246-15.16-49.252-38.49-59.711a68.767 68.767 0 00-14.7-4.699c-33.52-9.071-77.82.257-91.81 35.237-11.66 31.482 1.17 65.296 27.98 85.119 29.15 20.988 72.28 29.15 96.6-1.061 4.33-4.968 8.03-10.506 11.03-16.383 3-5.877 5.28-12.091 6.77-18.434 1.69-6.565 2.6-13.293 2.62-20.079v.011z" fill="#3CD9D6"/>
  <path opacity=".9" d="M1493.87 844.692c-6.22-48.623-41.2-98.761-91.33-103.425-15.54-1.551-30.18 1.679-43.47 8.139-6.65 3.23-12.96 7.252-18.91 11.765-62.36 34.898-71.69 125.847-14.56 167.823 15.15 10.495 32.64-10.494 50.09-14.411 6.18-2.775 12.35-5.551 18.52-8.302 30.84-13.783 61.82-26.982 94.6-37.919 2.33 0 5.83-3.498 5.79-8.675.8-4.034.47-8.897-.73-14.995z" fill="#1EDFE2"/>
  <path opacity=".9" d="M1620.77 1103.38c.95-26.31 13.77-55.46-1.77-80.32-3.52-5.51-7.06-11.37-11.01-16.93-16.58-24.677-42.23-54.993-73.71-43.333-6.85 2.472-14.12 4.921-21.61 7.416-7.5 2.495-15.22 5.06-22.97 7.777-7.75 2.717-15.53 5.585-23.15 8.699-7.63 3.125-15.09 6.494-22.19 10.202-28.41 14.869-51.15 35.269-55.81 67.339-4.66 33.81 34.98 53.63 58.29 76.95 10.5 11.66 16.32 25.66 15.98 40.23.61 9.67.74 19.63.36 28.84 5.81 24.22 40.79 17.22 60.03 24.16 11.67 1.33 21.87 2.26 32.83-.75 10.95-3.01 21.32-7.43 30.91-13.05 30.12-11.8 31.28-45.61 30.93-73.51.33-13.35 1.22-28.47 2.91-43.74l-.02.02zM413.85 1280.36c1.236-8.56-2.262-19.05-10.423-22.55-6.995-2.33-15.156-2.33-22.151 2.33-13.99 9.33-19.819 32.65-2.331 41.98 8.161 4.66 18.653 1.16 25.648-4.79 4.71-4.33 8.173-10.34 9.269-16.97h-.012z" fill="#00E4EF"/>
  <path opacity=".9" d="M665.59 1185.77c.56-7.62-2.203-14.47-7.042-19.4a26.984 26.984 0 00-19.166-7.94 27.614 27.614 0 00-19.155 7.7c-4.896 4.71-7.904 11.14-7.974 18.07-1.318 8.3 3.346 16.46 10.341 21.13 10.492 6.99 24.482 6.99 33.961-1.34 5.071-4.31 8.452-10.59 9.023-18.22h.012z" fill="#5FA9B1"/>
  <path opacity=".9" d="M889.781 1250.79c.093-5.48-2.903-10.6-7.788-14.44-4.885-3.83-11.681-6.39-19.178-6.71-15.202-2.15-31.524 11.84-22.197 27 5.829 8.17 13.99 14 24.168 13.24 6.796.21 12.999-1.82 17.522-5.27 4.524-3.45 7.38-8.34 7.485-13.82h-.012z" fill="#153A90"/>
  <path opacity=".9" d="M949.507 1144.86c1.866-30.48-16.788-57.3-42.436-70.13-31.478-15.15-68.785-6.99-92.102 19.83-12.824 15.74-18.653 35.27-17.336 54.37a77.105 77.105 0 003.673 18.79c7.834 22.46 26.487 42.28 49.804 48.4a79.396 79.396 0 0015.634 3.25c5.282.54 10.598.54 15.844-.04 26.814-3.5 48.965-20.99 60.309-44.52 4.08-9.1 6.435-19.21 6.61-29.94v-.01z" fill="#4784A6"/>
  <path opacity=".9" d="M1191.07 1074.72c7.46-22.14-1.87-48.96-24.02-57.12-24.48-8.16-50.13-9.33-76.18-4.65-6.04 1.05-11.98 2.53-17.71 4.52a94.6 94.6 0 00-16.61 7.51c-6.34 3.67-12.31 8.17-17.74 13.62-18.65 18.66-6.99 46.64-.79 68.39 3.83 9.92 8.78 18.79 15.99 24.97 33.77 18.58 82.73 27.9 112.98.75 5.16-7.91 9.3-17.66 13.16-28.11 1.94-5.2 3.89-10.35 5.75-15.34 1.87-4.99 3.62-9.85 5.17-14.53v-.01z" fill="#2E5F9B"/>
  <path opacity=".9" d="M1457.07 1020.7c.04-7.12.06-14.46-.14-21.862-.2-7.404-.6-14.878-1.37-22.329-1.91-24.696-10.33-52.097-27.11-70.741-8.4-9.317-18.89-16.441-31.71-19.939-35.95-5.83-69.47 11.007-97.87 32.31-5.78 4.093-11.33 8.395-16.7 12.663-31.16 23.821-45.15 71.628-30 105.438 3.5 7 18.65 0 28.95 2.93 9.72.46 14.64 2.23 20.4 4.24 45.08 21.98 88.22 84.95 137.19 62.79 11.65-5.83 9.32-31.48 14.94-47.88 1.97-10.46 3.21-23.17 3.43-37.63l-.01.01z" fill="#153A90"/>
  <path opacity=".9" d="M1677.34 471.499c-.81-10.074-4.31-21.734-13.64-28.73-10.49-8.162-24.48-8.162-36.14-1.166-17.49 10.494-27.98 31.482-19.82 51.304 10.49 22.154 43.14 19.822 59.09 3.638 6.49-6.541 10.51-15.251 10.51-25.046z" fill="#0682B5"/>
  <path opacity=".9" d="M1800.49 673.662c-1.83-7.148-4.59-14.097-8.31-20.627-3.72-6.53-8.4-12.64-14.23-17.922-20.98-17.455-64.12-38.443-76.94-6.961-15.16 37.313 22.15 88.617 63.36 98.015 8.63.502 17.08-1.819 24.08-8.232 6.99-6.996 12.82-15.158 13.04-25.745.78-5.842.48-12.092-1-18.528z" fill="#78CEBC"/>
  <path opacity=".9" d="M2406.52 1062.47c2.15-20.37-14.17-43.69-35.15-41.36-26.82 3.5-40.81 38.48-27.98 61.8 6.99 10.49 17.48 18.65 31.47 16.32 12.83-2.33 23.32-10.49 28.17-22.16 1.96-4.43 3.17-9.36 3.49-14.6zm-1145.44 463.77c-.76-13.08-5.42-25.9-17.08-32.9-13.99-8.16-33.81-2.33-39.64 12.83-4.66 13.99-1.17 27.98 9.33 38.48 10.49 9.33 26.81 13.99 38.54 3.43 5.33-5.11 8.71-12.82 8.86-21.84h-.01z" fill="#FFF0C6"/>
  <path opacity=".9" d="M2448.93 1226.19c-1.78-22.03-23.94-44.18-47.25-34.86-15.16 5.83-22.15 22.16-22.15 37.32 1.16 15.16 9.32 29.15 24.48 33.81 12.82 3.5 29.15 2.33 37.45-9.04 5.95-6.86 8.81-16.54 7.48-27.23h-.01z" fill="#153A90"/>
  <path opacity=".9" d="M2092.12 1496.62c-1.72-30.1-29.7-58.08-61.18-54.58-15.16 2.33-26.81 13.99-33.81 27.98-12.82 29.15-6.99 71.13 25.65 82.79 26.81 9.33 60.62-4.66 67.85-34.35 1.75-6.83 2.33-14.2 1.49-21.83v-.01z" fill="#78CEBC"/>
  <path opacity=".9" d="M2135.92 1466.87c-.05-12.02-8.21-22.51-18.71-28.34-17.48-8.16-40.8-2.33-46.63 17.49-3.5 13.99 5.83 26.82 18.65 32.65 11.66 5.83 25.65 3.5 35.65-3.16 6.35-4.45 10.54-10.99 11.04-18.64zm179.11-281.24c8.47-4.51 14.24-10.72 18.81-18.93 2.97-8.61-1.46-18.19-10.67-22.17-20.02-8.34-45.01-6.85-55.33 14.38-6.54 16.22 8.7 30.16 23.27 31.78 7.66 1.15 16.18-.51 23.92-5.07v.01zm211.61 292.19c-.22-6.63.95-12.46-3.71-18.29-8.17-8.16-19.82-10.5-29.15-3.5-13.99 10.49-17.49 30.32-5.83 41.98 9.33 8.16 20.99 4.66 29.34-2.49 4.8-4.47 8.29-10.72 9.35-17.7z" fill="#E2F9B4"/>
  <path opacity=".9" d="M2829.79 1386.75c.64-7.09-3.59-12.71-9.49-12.62-5.87.12-11 6.02-11.51 13.25-.51 7.23 3.72 12.92 9.48 12.68 5.76-.23 10.86-6.21 11.52-13.31zM2457.8 694.941c0-8.698-3.52-16.569-9.21-22.259-7.27-7.206-16.6-10.704-25.93-9.538-16.32 2.332-26.81 16.324-27.66 31.716-.15 8.78 3.37 16.65 9.07 22.341 5.7 5.701 13.57 9.223 22.25 9.223 17.39 0 31.48-14.097 31.48-31.483z" fill="#153A90"/>
  <path opacity=".9" d="M2041.6 490.785c1-15.38-9.49-31.704-25.82-34.036-22.15-2.332-43.13 19.822-34.97 41.976 5.83 13.993 19.82 23.321 34.97 22.155 5.83-1.166 12.83-2.332 16.36-7.591 5.55-5.375 9.13-13.293 9.46-22.504zm-308.96 57.239c-.15-16.65-11.81-30.642-26.97-36.472-8.16-2.332-17.49-1.166-24.48 3.498-12.83 10.494-17.49 30.316-4.66 43.142 12.82 10.494 32.64 17.49 47.33 9.211 5.4-3.568 8.82-10.645 8.78-19.39v.011z" fill="#00E4EF"/>
  <path opacity=".9" d="M2230.75 1175.21c.72-14.19-5.11-28.18-14.44-37.51-22.15-20.99-61.79-9.33-72.28 17.49-9.33 25.65 12.82 52.47 38.47 55.97 16.32 1.16 37.31-4.67 43.66-21.6 2.43-4.23 4.03-9.05 4.59-14.35z" fill="#FFF0C6"/>
  <path opacity=".9" d="M1715.73 913.72c-.36-7.533-4.63-13.328-10.4-16.231-5.77-2.903-13.05-2.903-19.47 1.178-5.83 3.498-8.16 9.328-8.16 15.158 0 4.664 1.17 10.494 5.83 13.992 8.16 6.996 19.82 5.83 26.42-.653 3.46-3.44 5.68-8.209 5.79-13.444h-.01z" fill="#153A90"/>
  <path opacity=".9" d="M1664.02 858.276c-4.98-15.578-23.64-21.408-38.79-19.076-5.83 1.166-9.33 6.996-8.16 12.826 3.5 11.66 13.99 17.49 25.58 19.379 12.28 1.213 22.1-4.734 21.37-13.129z" fill="#FFF0C6"/>
  <path opacity=".9" d="M736.053 1487.51c.805-14-9.688-27.99-24.844-25.66-9.326 2.33-15.155 10.49-18.653 18.66-4.663 12.82 2.332 26.81 15.156 30.31 8.161 1.17 16.322 0 21.113-6.63 4.232-4.21 6.925-10.07 7.228-16.68zM2117.92 820.801c2.79-15.403-12.37-31.728-27.52-24.732-12.83 6.996-19.82 23.321-13.99 37.313 5.83 12.826 23.32 16.324 33.2 4.792 4.42-4.337 7.52-10.459 8.33-17.373h-.02z" fill="#00E4EF"/>
  <path opacity=".9" d="M428.948 1601.99c.653-9.49-6.098-17.21-14.958-17.31-8.942-.06-16.263 7.26-16.497 16.46-.244 9.2 6.354 17.04 14.83 17.42 8.476.39 15.949-7.07 16.613-16.57h.012z" fill="#FFF0C6"/>
  <path opacity=".9" d="M663.748 1838.84c.933-9.69-5.328-17.74-13.955-18.01-8.627-.27-16.042 7.11-16.648 16.58-.618 9.47 5.538 17.64 13.85 18.13 8.312.49 15.82-7.01 16.753-16.7z" fill="#0682B5"/>
  <path opacity=".9" d="M747.513 1642.91c0-9.02-7.356-16.29-16.519-16.2-9.164.09-16.381 7.35-16.171 16.23.047 8.99 7.357 16.29 16.369 16.29s16.321-7.31 16.321-16.32z" fill="#78CEBC"/>
  <path opacity=".9" d="M471.209 637.807c9.015 0 16.322-7.309 16.322-16.324 0-9.016-7.307-16.324-16.322-16.324-9.014 0-16.321 7.308-16.321 16.324 0 9.015 7.307 16.324 16.321 16.324z" fill="#0682B5"/>
  <path opacity=".9" d="M920.454 284.669c.14-8.5-7.438-16.137-16.788-16.767-9.35-.629-16.73 6.448-16.636 15.438.093 9.002 7.414 16.045 16.543 16.173 9.128.128 16.753-6.343 16.893-14.844h-.012zm916.406 680.938c-.3-7.229-2.77-14.062-6.98-19.461-7.62-8.989-21.61-13.654-33.27-8.989-11.66 5.83-22.15 16.324-18.66 30.316 2.34 4.664 5.83 9.328 10.5 11.66 6.41 2.915 13.4 6.121 20.39 7.661 6.98 1.539 13.96 1.387 20.38-2.402 4.39-3.475 7.49-10.413 7.64-18.773v-.012zm-82.32-134.009c3.59-7.556-2.23-14.552-8.06-16.884-22.16-6.996-45.47-1.166-61.79 15.158-4.67 5.83-7 13.992-2.34 20.988 13.99 18.656 41.97 13.992 57.71.257 7.09-5.504 12.45-12.477 14.48-19.519z" fill="#00E4EF"/>
  <path opacity=".9" d="M1166.14 796.139c-.25-10.575-7.25-18.737-14.24-24.567-19.82-13.993-54.8-15.159-61.79 12.826-4.67 18.656 15.15 26.818 29.14 31.482 12.83 3.498 26.82 5.83 38.55-1.119 5.98-3.988 9.05-10.506 8.34-18.633v.011z" fill="#153A90"/>
  <path opacity=".9" d="M862.932 655.682c16.309 0 29.53-13.223 29.53-29.535 0-16.312-13.221-29.535-29.53-29.535-16.31 0-29.531 13.223-29.531 29.535 0 16.312 13.221 29.535 29.531 29.535z" fill="#78CEBC"/>
  <path opacity=".9" d="M977.184 493.7c1.003-13.631-14.153-25.291-26.977-21.793-16.322 4.664-23.317 24.486-13.99 38.479 9.326 11.66 24.482 9.328 34.205-.502 4.104-4.314 6.704-9.981 6.762-16.184z" fill="#0682B5"/>
  <path opacity=".9" d="M677.563 398.775c9.014 0 16.322-7.308 16.322-16.324 0-9.016-7.308-16.324-16.322-16.324s-16.322 7.308-16.322 16.324c0 9.016 7.308 16.324 16.322 16.324z" fill="#153A90"/>
  <path opacity=".9" d="M1498.31 293.834c9.02 0 16.33-7.308 16.33-16.324 0-9.015-7.31-16.324-16.33-16.324-9.01 0-16.32 7.309-16.32 16.324 0 9.016 7.31 16.324 16.32 16.324z" fill="#78CEBC"/>
  <path opacity=".9" d="M1810.76 20.988c5.8 0 10.49-4.698 10.49-10.494 0-5.796-4.69-10.494-10.49-10.494-5.79 0-10.49 4.698-10.49 10.494 0 5.796 4.7 10.494 10.49 10.494z" fill="#FFF0C6"/>
  <path opacity=".9" d="M1345.79 91.765c.15-8.244-7.07-15.112-16.08-15.112-9.01 0-16.39 6.868-16.54 15.135-.14 8.267 6.98 14.715 15.98 14.68 9-.035 16.47-6.483 16.63-14.703h.01zm203.43 585.745c2.44-8.944-.12-17.479-5.46-23.612-5.34-6.133-13.47-9.841-22.12-9.095-14.16.84-26.99 7.836-33.98 20.662-3.5 9.328-3.5 18.656 0 27.984 4.66 12.826 17.49 23.32 31.85 23.425 8.06-.198 14.57-4.722 19.52-12.057 2.47-3.661 4.65-7.975 6.41-12.627a70.396 70.396 0 003.79-14.692l-.01.012z" fill="#00E4EF"/>
  <path opacity=".9" d="M1750.1 339.215c-.13-16.557-12.95-30.549-29.27-34.047-9.33-2.332-17.49 1.166-24.49 8.162-6.99 9.328-6.99 20.988-2.33 31.482 8.16 17.49 31.48 26.818 47.41 14.296 5.36-4.688 8.68-11.742 8.68-19.893z" fill="#28DDDE"/>
  <path opacity=".9" d="M1989.13 277.51c0-12.663-10.27-22.935-22.93-22.935s-22.93 10.272-22.93 22.935c0 12.663 10.27 22.936 22.93 22.936 6.33 0 12.07-2.566 16.22-6.717a22.865 22.865 0 006.71-16.219z" fill="#50D5CD"/>
  <path opacity=".9" d="M2334.2 1308.86c.78-8.6-6.2-15.73-15.69-15.99-9.48-.26-17.55 6.65-17.9 15.47-.16 8.95 7.12 16.25 16.19 16.27 9.09.03 16.82-7.05 17.4-15.75zm279.53 699.82c.25-4.28-3.39-7.92-8.1-8.12-4.72-.2-8.66 3.19-8.8 7.58-.12 4.4 3.53 8.05 8.15 8.16 4.61.1 8.54-3.29 8.75-7.6v-.02z" fill="#78CEBC"/>
  <path opacity=".9" d="M1826.17 1448.31c5.41-9.78-.42-21.44-8.58-26.11-6.41-4.08-12.95-7.99-19.61-11.68-33.27-18.41-69.38-30.87-106.3-27.96-13.99 1.17-17.49 17.49-15.15 30.32 4.66 26.81 23.31 48.97 47.8 60.63 14.57 7 30.89 9.62 46.77 7.82a85.17 85.17 0 0015.66-3.27c5.5-1.69 10.58-4 15.31-6.65 4.74-2.65 9.11-5.64 13.2-8.71 4.82-4.2 8.64-9.04 10.9-14.4v.01z" fill="#00E4EF"/>
  <path opacity=".9" d="M1868.53 1611.95c1.52-26.49-22.96-48.65-48.13-48.32-6.62-.01-12.9 1.33-18.63 3.74a48.134 48.134 0 00-15.19 10.25c-12.14 11.32-15.63 27.65-13.3 43.97 5.83 24.49 26.81 44.31 53.63 40.81 8.74-1.16 16.9-4.95 23.51-10.54 6.61-5.58 11.67-12.98 14.24-21.3 2.38-5.85 3.76-12.13 3.86-18.61h.01z" fill="#05BAD7"/>
  <path opacity=".9" d="M2097.67 1762c.89-15.63-9.6-28.46-22.43-34.29-13.99-4.66-29.14-3.5-41.97 5.83-11.66 8.16-16.32 19.82-12.82 32.65 5.83 20.99 27.98 33.81 48.96 30.32 10.5-2.34 22.15-9.33 25.44-19.76 1.9-4.46 2.89-9.45 2.82-14.74v-.01zm35.4-551.67c-4.2-27.16-29.85-48.15-58.12-44.13-5.93 1.14-11.37 3.59-15.6 7.46-4.19 3.87-7.2 9.19-8.3 16.07-2.05 9.18-.88 19.68 3.2 28.42 12.82 24.49 44.3 29.15 66.26 15.45 7.95-5.26 12.91-13.25 12.55-23.27h.01z" fill="#0B8FC0"/>
  <path opacity=".9" d="M1995.94 2035.56c1.19-18.69-20.96-33.85-38.45-25.69-13.99 5.83-22.15 20.99-15.15 34.98 9.32 16.33 30.31 23.32 45.43 10.28 4.94-5.01 8.03-11.97 8.17-19.58v.01z" fill="#1065A8"/>
  <path opacity=".9" d="M2369.21 2089.52c0-9.04-7.3-16.31-16.23-16.08-8.84.51-15.84 8.66-15.71 18.02.11 9.37 7.24 16.16 15.96 15.33 8.81-.57 16-8.21 15.99-17.27h-.01zm-698.62-613.57c2.66-8.69 2.25-18-.64-26.61-3.53-10.54-9.34-20.78-16.93-29.15l-.3-.33c-18.64-20.33-51.6-18.66-67.86 3.63-10.09 13.81-16.42 31.63-20.27 47.69-2.33 10.49 1.17 22.15 9.69 29.4 4.66 4.59 10.95 8.87 17.92 11.82 6.97 2.95 14.64 4.58 22.69 4.58 24.14 0 44.86-14.68 53.71-35.61a59.74 59.74 0 001.98-5.44l.01.02z" fill="#153A90"/>
  <path opacity=".9" d="M1769.38 1582.57c0-6.62-1.34-12.9-3.76-18.61-7.25-17.17-24.25-29.2-44.05-29.2-26.39 0-47.8 21.41-47.8 47.81 0 13.2 5.36 25.15 14.01 33.8 4.32 4.32 9.47 7.82 15.19 10.25 22.51 11.31 53.99-.35 62.68-25.37a48.263 48.263 0 003.73-18.67v-.01z" fill="#5AD4C9"/>
  <path opacity=".9" d="M1869.37 1712.3c.68-18.42-12.14-32.41-28.46-38.24-25.65-6.99-51.3 16.33-46.63 43.15 3.49 17.49 17.48 31.48 34.97 36.14 17.49 3.5 34.98-8.16 38.51-25.01 1.43-4.99 2.02-10.42 1.61-16.04z" fill="#3CD9D6"/>
  <path opacity=".9" d="M1962.81 1735.39c.07-9.21-7.67-17.03-17.35-17.5-9.43-.1-16.55 8.05-15.94 18.06.62 10.03 8.28 17.6 17.06 16.93 8.93-.44 16.17-8.27 16.24-17.49h-.01z" fill="#153A90"/>
  <path opacity=".9" d="M2075.64 1905.15c-.46-9.37-7.92-17.05-16.58-17.04-8.53.2-14.81 8.33-14.21 17.99.64 9.72 7.87 17.13 16.31 16.73 8.44-.4 14.96-8.25 14.48-17.68z" fill="#00E4EF"/>
  <path opacity=".9" d="M1765.49 1903.25c-7.29-6.05-16.62-4.77-20.81 2.88-4.16 7.62-1.68 18.59 5.68 24.59 7.33 6 16.82 4.84 20.95-2.71 4.13-7.56 1.48-18.69-5.82-24.76zm-379.25-284.53c.21-9.92-6.89-18.35-15.92-18.56-9.05-.21-16.5 7.42-16.56 16.73-.06 9.33 7.17 17.37 16.08 18.13 8.86.9 16.19-6.39 16.4-16.31v.01z" fill="#78CEBC"/>
  <path opacity=".9" d="M1329.75 774.825c-.65-13.736-6.47-25.396-18.13-33.558-19.82-15.158-53.63-13.992-64.12 10.494-9.33 22.154 5.83 46.64 26.81 55.969 18.65 8.162 43.14 2.332 52.04-17.152 2.14-4.804 3.34-10.156 3.4-15.753zM1088.71 1803.06c0-5.55-1.11-10.82-3.14-15.61-2.03-4.8-4.95-9.11-8.58-12.73-10.21-9.71-26.53-13.21-40.52-9.71-22.15 5.83-34.98 32.65-24.72 53.64 2.08 4.76 5 9.07 8.63 12.68 7.24 7.24 17.25 11.73 28.31 11.73 5.52 0 10.79-1.12 15.57-3.14 9.51-3.79 17.68-10.79 21.28-21.25a39.943 39.943 0 003.16-15.62l.01.01z" fill="#153A90"/>
  <path opacity=".9" d="M2333.72 1604.41c-.83-14.29-6.66-29.45-20.65-36.44-17.48-8.16-40.8-4.67-54.17 11.79a42.61 42.61 0 00-8.78 16.19c-4.66 17.49 6.99 33.82 23.32 40.81 19.82 8.16 46.63 3.5 57.17-16.74 2.14-4.67 3.23-9.96 3.11-15.6v-.01z" fill="#78CEBC"/>
  <path opacity=".9" d="M958.298 2236.11c.361-9.53-6.074-18.13-14.398-19.17-8.301-1.07-15.436 5.97-15.937 15.72-.502 9.76 5.864 18.48 14.304 19.31 8.441.83 15.658-6.32 16.019-15.86h.012z" fill="#153A90"/>
  <path opacity=".9" d="M958.531 1883.1c0-9.01-7.31-16.32-16.38-16.31-9.07.03-16.334 7.3-16.275 16.31 0 9.02 7.309 16.33 16.333 16.33 9.024 0 16.322-7.31 16.322-16.33z" fill="#78CEBC"/>
  <path opacity=".9" d="M1199.3 1679.9c-5.43-9.32-15.93-17.49-27.58-12.82-11.66 5.83-12.83 19.82-8.16 30.31 3.49 7 10.49 11.66 17.48 14 9.33 2.33 17.49-4.67 20.35-14.04 1.35-5.38.77-11.62-2.08-17.45h-.01z" fill="#153A90"/>
  <path opacity=".9" d="M2338.36 2390c.37-6.96-8.91-10.3-14.69-6.69-5.78 4.79-1.19 12.77 5.92 13.64 4.76.45 8.69-2.68 8.78-6.95h-.01z" fill="#FFF0C6"/>
  <path opacity=".9" d="M2683.86 1472.48c1.76-8.53-4.16-15.95-13.48-16.53-9.26-.6-18.37 6.03-20.02 14.84-1.64 8.82 4.88 16.22 14.17 16.54 9.29.31 17.86-6.32 19.33-14.85z" fill="#0682B5"/>
  <path opacity=".9" d="M2060.73 1173.34c-1.82-9-11.94-16.27-21.21-16.1-9.24.18-15.25 7.71-14.4 16.72.84 9.01 8.72 16.08 19.4 15.67 10.86-.41 18.05-7.26 16.21-16.27v-.02zm-127.4 104.09c4.34-40.62-14.31-90.76-58.61-93.09-26.82-2.33-53.63 5.83-81.91 5.61-7.16.77-14.29 1.75-21.32 3.01-35.19 6.32-68.43 19.81-90.29 49.68-22.15 30.32-20.98 71.13-8.16 106.11 17.35 46.93 59.68 79.58 107.48 87a135.37 135.37 0 0020.76 1.61c6.41.14 12.79-.27 19.09-1.21 53.19-8.12 97.5-50.09 109.43-102.76 2.02-8.22 3.25-16.67 3.58-25.24.33-5.03.45-10.11.41-15.23-.02-5.12-.17-10.29-.45-15.49h-.01z" fill="#78CEBC"/>
  <path opacity=".9" d="M1746.69 998.92c-.63-6.11-2.72-11.287-5.74-15.788-3.03-4.512-7-8.348-11.41-11.823-15.7-10.832-32.02-21.326-50.05-27.903a92.92 92.92 0 00-24.64-3.311 92.79 92.79 0 00-24.63 3.311c-.08.024-.15.047-.24.07-13.33 3.708-24.31 13.339-29.81 26.049-12.24 28.369-13.89 60.715-16.19 92.005-.56 7.56-1.15 15.06-1.97 22.42 5.93 21.11 26.92 52.59 49.07 36.27 43.14-31.48 73.45-71.13 109.31-106.14 4.14-5.7 6.14-10.66 6.32-15.16h-.02z" fill="#5FA9B1"/>
  <path opacity=".9" d="M1556.99 790.997c-1.71-18.259-8.71-34.584-17.15-50.651-3.15-5.049-6.78-9.631-10.97-13.456-4.18-3.824-8.92-6.879-14.29-8.955-22.26-6.984-47.91-5.818-68.89 8.174-23.32 17.49-27.98 46.64-19.82 72.292 9.33 27.985 34.97 40.811 61.79 48.973 19.82 5.83 43.14 4.664 59.19-10.634 6.46-6.472 8.86-12.127 10.41-19.566 1.55-7.439 1.4-16.161-.27-26.177z" fill="#4784A6"/>
  <path opacity=".9" d="M1387.41 527.281c0-20.382-11.67-37.872-30.32-42.536-33.81-9.328-67.62 20.988-68.79 54.802 0 18.657 11.66 37.313 30.31 43.143 26.82 6.996 53.63-12.826 64.86-36.112a49.518 49.518 0 003.94-19.297z" fill="#2E5F9B"/>
  <path opacity=".9" d="M1154.38 277.09c-10.64-9.234-26.97-8.068-36.29 2.426-8.16 10.494-8.16 26.818 1.16 36.146 11.66 10.494 30.32 13.992 43.14 2.332 5.83-5.83 5.83-15.158 5.34-22.807-1.94-6.868-6.54-13.456-13.35-18.097z" fill="#153A90"/>
  <path opacity=".9" d="M1402.21 554.297c-.82-10.097-4.32-20.591-14.81-25.255-13.99-6.996-27.98 0-36.14 11.66-5.83 9.328-7 20.988-2.34 30.316 9.33 15.158 33.81 15.158 44.97 2.635 5.1-4.92 8.28-11.672 8.32-19.356z" fill="#78CEBC"/>
  <path opacity=".9" d="M1380.5 1688.16c-.11-9.43-3.61-18.76-9.44-26.92-10.49-14-27.98-17.49-43.13-9.33-18.66 10.49-23.32 34.98-9.33 51.3 12.83 15.16 36.14 23.32 51.73 9.24 6.19-5.72 10.07-14.27 10.17-24.29z" fill="#153A90"/>
  <path opacity=".9" d="M2056.74 492.919c.39-9.643-6.1-18.353-14.61-19.274-8.51-.922-15.68 6.051-15.92 15.426-.25 9.375 6.36 17.898 14.72 19.099 8.36 1.201 15.41-5.597 15.8-15.24l.01-.011zM358.123 834.863c9.014 0 16.322-7.309 16.322-16.325 0-9.015-7.308-16.324-16.322-16.324s-16.322 7.309-16.322 16.324c0 9.016 7.308 16.325 16.322 16.325z" fill="#78CEBC"/>
  <path opacity=".9" d="M1219.55 960.442c-.03-9.305-1.2-17.467-7.03-25.629-6.99-9.328-17.49-12.826-26.81-6.996-19.82 12.826-24.49 41.976-10.5 60.632 4.67 5.83 9.33 9.328 16.33 8.162 8.16-1.166 13.99-6.996 19.87-12.837 4.72-6.274 7.78-14.447 8.14-23.332z" fill="#0682B5"/>
  <path opacity=".9" d="M2628.76 391.779c8.14 0 14.74-6.599 14.74-14.738 0-8.14-6.6-14.739-14.74-14.739s-14.74 6.599-14.74 14.739c0 8.139 6.6 14.738 14.74 14.738z" fill="#78CEBC"/>
  <path opacity=".9" d="M2648.42 1177.67c13.84 0 25.06-11.22 25.06-25.07s-11.22-25.07-25.06-25.07c-13.85 0-25.07 11.22-25.07 25.07s11.22 25.07 25.07 25.07z" fill="#0682B5"/>
  <path opacity=".9" d="M2486.56 1672.14c-2.12-7.41-3.28-14.4-7.95-19.07-8.16-6.99-22.15-9.32-30.31 0-5.83 7-9.33 14-8.16 23.32 1.16 8.17 4.66 16.33 11.66 20.99 9.32 5.83 23.31 4.67 29.54-5.42 3.78-5.28 5.79-12.32 5.22-19.83v.01z" fill="#00E4EF"/>
  <path opacity=".9" d="M973.477 1246.94c3.544-8.96 7.041-24.12-2.285-28.79-23.317-11.66-51.297 10.5-64.121 31.49-10.493 19.82 5.829 38.47 23.316 47.8 11.659 5.83 23.317-3.5 27.316-13.86 5.759-9.89 11.682-23.52 15.774-36.64z" fill="#FFF0C6"/>
  <path opacity=".9" d="M986.359 1351.92c-2.914-7.5-5.106-16.41-7.368-25.61-2.261-9.2-4.593-18.69-7.811-27.38-4.652-15.48-16.31-31.8-34.963-28.31-19.82 3.5-38.473 11.66-51.939 28.21-3.8 5.04-6.808 10.91-8.86 17.34-7.986 25.58-2.157 53.56 17.662 72.22 13.991 11.66 30.312 19.82 49.082 18.41 4.64.06 9.724-.25 14.795-1.12 15.168-2.55 30.207-9.94 32.678-26.37.607-7-.466-16.08-3.287-27.39h.011z" fill="#ADE3B8"/>
  <path opacity=".9" d="M208.895 1516.98c0-9.02-7.321-16.33-16.345-16.33-9.023 0-16.298 7.31-16.298 16.33 0 9.01 7.31 16.32 16.321 16.32 9.012 0 16.322-7.31 16.322-16.32z" fill="#E2F9B4"/>
  <path opacity=".9" d="M605.631 1436.67c.326-8.97-3.299-16.38-8.907-22.13-17.266-17.99-52.241-17.99-62.757 6.51-2.309 6.41-2.309 13.41-.408 19.96 1.9 6.56 5.689 12.69 10.935 17.35 6.995 5.83 16.031 9.33 25.101 9.76 9.058.45 18.152-2.18 25.322-8.65 6.529-5.69 10.679-13.7 10.714-22.78v-.02z" fill="#85D3BB"/>
  <path opacity=".9" d="M1331.9 1914.79a46.395 46.395 0 00-2.76-14.73c-1.69-4.65-4.1-8.96-7.11-12.7-6.04-7.48-14.49-12.73-24.4-13.9-10.5-1.16-20.99 2.33-27.98 11.66-11.66 16.33-7 37.31 6.99 50.14 6.41 5.83 14.58 9.62 22.69 10.51 8.11.88 16.18-1.13 22.41-6.91 6.21-5.63 10.09-14.12 10.16-24.06v-.01z" fill="#00E4EF"/>
  <path opacity=".9" d="M677.015 1323.78c-5.444-28.67-36.922-53.16-66.068-39.16-11.658 5.83-20.985 15.15-22.151 29.15-2.332 16.32 5.829 31.48 18.654 40.81 12.824 8.16 25.648 12.82 40.804 10.49 13.99-2.33 25.649-11.66 28.365-25.38 1.236-4.92 1.411-10.3.396-15.91z" fill="#FFF0C6"/>
  <path opacity=".9" d="M781.556 1375.81c1.936-14.24-10.889-25.9-24.879-22.4-8.161 2.33-13.99 9.33-16.322 17.49-2.331 12.83 4.664 27.98 18.654 26.82 4.663 0 11.658 0 15.028-5.61a25.491 25.491 0 007.519-16.3z" fill="#A0DEB9"/>
  <path opacity=".9" d="M811.122 1229.99c-3.148-15.33-17.138-27-32.294-23.5-9.326 3.5-12.824 14-10.492 23.32 4.663 15.16 24.482 24.49 38.064 13.77 3.568-3.19 5.433-7.94 4.722-13.59z" fill="#00E4EF"/>
  <path opacity=".9" d="M1130.53 1290c.38-11.21-3.12-22.87-11.28-32.2-17.48-19.82-47.8-25.65-69.95-8.16-26.81 20.98-26.81 60.63 0 81.62 20.99 15.15 48.97 11.66 66.41-5.01a51.694 51.694 0 0014.83-36.25h-.01z" fill="#BAE9B7"/>
  <path opacity=".9" d="M1209.07 1210.83c-9.37-12.5-8.21-31.16-19.87-42.82-4.66-3.49-15.15-5.83-16.32-1.16-2.33 26.82 17.49 58.3 44.21 68.33.25-3.33-2.42-11.47-8.01-24.35h-.01z" fill="#FFF0C6"/>
  <path opacity=".9" d="M1365.2 889.793c2.38-3.952 3.54-9.783-1.12-12.115-9.33-2.332-18.65 3.498-25.65 9.328-10.49 8.163-20.98 24.487-12.82 34.981 6.99 8.162 17.49-6.996 25.93-13.363 5.78-6.203 10.98-13.176 13.67-18.831h-.01z" fill="#78CEBC"/>
  <path opacity=".9" d="M1490.83 838.326c-.84-21.268-17.16-38.759-38.15-43.423-19.82-3.498-34.97 12.826-38.47 31.483-1.16 5.83 0 12.826 5.83 16.324 19.82 10.494 41.97 10.494 62.77 7.894 6.35-1.866 8.04-1.831 8.02-12.278z" fill="#FFF0C6"/>
  <path opacity=".9" d="M1478.76 1205.61c1.9-9.61 3.07-20.11-2.76-28.27-9.91 8.75-17.78 19.82-22.73 31.62-4.96 11.8-7.67 18.17-6.32 25.95 1.05 3.02 16.28-6.5 22.5-11.36 4.41-4.67 7.64-9.62 9.31-17.95v.01z" fill="#D5F4B5"/>
  <path opacity=".9" d="M1619.78 1164.03c-1.55-13.51-3.88-31-16.7-37.99-10.5-4.67-16.32 10.49-19.82 20.99-2.33 11.66 1.16 23.32 8.16 32.64 5.83 7 20.98 19.83 28.12 7.18 1.93-4.48 1.98-12.39.24-22.83v.01z" fill="#FFF0C6"/>
  <path opacity=".9" d="M1125.81 642.984c.44-13.666-8.89-26.492-21.71-29.99-15.16-4.664-32.65 0-40.81 13.992-6.99 12.826-1.16 27.985 9.33 37.313 12.82 10.494 31.48 11.66 43.78 1.189 5.84-5.608 9.38-13.677 9.41-22.504z" fill="#0682B5"/>
  <path opacity=".9" d="M917.167 1072.43c-1.936-29.18-36.911-45.5-62.559-32.68-20.985 10.5-33.81 34.98-20.985 55.97 15.155 23.32 52.462 26.82 71.64 6.07 8.22-8 12.65-18.47 11.904-29.36zm1258.163 308.44c-.49-9.06-3.65-17.68-9.17-24.32-5.53-6.65-13.39-11.3-23.3-12.47-9.91-1.16-19.23 2.33-26.37 8.46-7.13 6.12-12.1 14.86-13.27 24.19-2.33 23.32 16.32 43.14 38.48 44.31 13.99 0 29.14-9.33 32.01-24.63 1.4-4.84 1.98-10.11 1.61-15.54h.01z" fill="#FFF0C6"/>
  <path opacity=".9" d="M2289.84 1568.9c.31-9.25-5.45-18.61-13.71-23.23-8.28-4.03-17.73-3.11-25.37.98-7.62 4.1-13.47 11.38-14.63 20.13-1.17 12.82 9.33 23.32 20.98 25.65 8.16 1.17 17.49 1.17 24.53-5.82 5.1-4.24 8.19-10.53 8.2-17.72v.01z" fill="#153A90"/>
  <path opacity=".9" d="M2198.25 1519.46c.56-8.04-6.55-15.03-15.88-15.66-9.32-.62-17.51 5.18-18.21 13.06-.7 7.88 6.4 14.95 15.88 15.72 9.48.77 17.66-5.08 18.22-13.13l-.01.01z" fill="#00E4EF"/>
  <path opacity=".9" d="M2144.98 1516.88c.53-6.48-5.31-12.25-13.01-12.91-7.69-.67-14.19 4.2-14.54 10.89-.35 6.68 5.44 12.46 12.96 12.92 7.52.45 14.07-4.41 14.59-10.9z" fill="#FFF0C6"/>
  <path opacity=".9" d="M1039.18 1149.62c1.96-27.07-26.02-51.55-51.666-42.23-34.976 12.83-46.634 68.8-17.488 92.12 17.488 13.99 36.144-10.5 50.854-21.97 9.78-9.29 16.79-18.64 18.3-27.92z" fill="#78CEBC"/>
  <path opacity=".9" d="M838.449 831.364c19.96 0 36.141-16.183 36.141-36.146s-16.181-36.146-36.141-36.146c-19.96 0-36.141 16.183-36.141 36.146s16.181 36.146 36.141 36.146z" fill="#FFF0C6"/>
  <path opacity=".9" d="M1387.96 1440.24c-5.23-16.86-11.06-34.35-26.21-46.01-5.83-3.5-12.83-4.66-19.82-1.16-16.32 8.16-18.65 26.81-13.99 43.14 5.83 23.32 32.64 44.31 55.29 28.81 5.02-4.71 7.13-13.06 4.73-24.78zm-397.159 211.84c.77-10.5-5.946-19.98-15.086-21.01-9.14-.98-17.313 7.02-18.339 17.81-1.025 10.78 5.596 20.15 14.981 20.87 9.374.72 17.651-7.16 18.444-17.67zm329.039-70.98c-.03-8.89-4.12-16.29-10.11-21.71-5.98-5.41-13.85-8.91-21.43-10.08-20.98-2.33-39.64 13.99-39.64 34.98 0 12.83 5.83 24.49 17.49 31.48 7.58 4.08 15.74 4.67 23.34 2.73 7.6-1.93 14.65-6.36 19.99-12.29 6.54-6.88 10.51-15.77 10.36-25.11z" fill="#78CEBC"/>
  <path opacity=".9" d="M184.995 988.776c-1.189-9.293-9-16.709-17.825-16.663-8.837.047-15.11 7.591-13.757 16.931 1.352 9.328 9.583 16.846 18.257 16.756 8.662-.09 14.515-7.731 13.325-17.024z" fill="#0682B5"/>
  <path opacity=".9" d="M514.264 969.956c4.582-19.985-11.74-37.475-31.559-36.309-18.654 1.166-36.141 12.826-41.971 31.482-3.497 15.158 3.498 32.648 19.82 38.481 18.653 6.99 40.804-2.33 48.977-19.603 2.32-4.338 3.963-9.083 4.721-14.051h.012zm644.726 505.314c.04-7.26-1.37-14.07-3.83-19.89s-5.98-10.65-10.16-13.96c-13.46-6.69-29.8-9.16-45.22-7.1-5.14.69-10.16 1.88-14.95 3.59-18.04 6.45-33.2 21.61-30.86 42.59 2.33 19.83 12.82 38.48 30.31 46.65 26.81 11.66 59.46-4.67 70.35-31.24a52.816 52.816 0 004.36-20.64z" fill="#97F2C8"/>
  <path opacity=".9" d="M852.439 950.682a56.595 56.595 0 00-4.453-22.084c-8.616-20.37-28.773-34.654-52.277-34.654-26.114 0-48.102 17.642-54.712 41.662a57.31 57.31 0 00-2.099 15.065c.291 22.632 14.282 44.786 34.707 52.309 6.634 2.62 13.757 3.72 21.335 3.22 21.195-1.41 43.346-13.075 52.917-33.865 2.962-6.46 4.582-13.805 4.582-21.641v-.012zm1344.181 25.513c-1.32-8.979-5.99-16.721-12.67-21.91s-15.44-7.812-24.77-6.646c-7.57 1.166-14.57 4.372-19.82 9.188-5.24 4.816-8.74 11.217-9.32 18.796.58 6.996 3.42 12.465 7.66 16.523 14.49 12.624 36.64 11.464 51.41 1.888 5.5-4.384 8.29-10.587 7.51-17.839z" fill="#4BEBDB"/>
  <path opacity=".9" d="M1195.98 920.016c.22-44.67-33.59-81.982-75.56-93.642-46.63-12.826-83.94 25.652-103.42 62.393a93.073 93.073 0 00-6.03 15.578c-3.05 10.634-4.22 21.711-3.64 32.788 2.33 37.313 27.98 71.127 62.96 85.117a90.296 90.296 0 0021.8 5.33c7.29.77 14.6.64 21.74-.38 43.9-6.11 74.21-45.758 81.08-87.63a99.255 99.255 0 001.07-19.577v.023z" fill="#00E4EF"/>
  <path opacity=".9" d="M2300.46 499.029c-.04-8.99-7.35-16.301-16.36-16.301s-16.32 7.311-16.32 16.324c0 9.013 7.37 16.289 16.52 16.207 9.15-.081 16.35-7.322 16.16-16.23z" fill="#0682B5"/>
  <path opacity=".9" d="M2165.55 624.375c-.76-9.55-5.52-18.19-12.5-24.545-6.73-6.518-15.87-10.611-25.95-10.611-10.09 0-19.23 4.093-25.84 10.704-6.61 6.612-10.7 15.741-10.7 25.839-.17 10.564 4.49 18.726 11.49 25.722 15.15 12.826 39.63 11.66 54.61-2.53 6.39-6.483 9.81-15.158 8.87-24.579h.02z" fill="#2C9BB7"/>
  <path opacity=".9" d="M2033.94 748.38c-1.77-10.145-6.21-19.239-12.4-26.912a67.518 67.518 0 00-10.5-10.389c-19.74-15.298-48.88-28.124-72.2-10.634-15.16 12.826-24.48 31.482-22.15 51.304 2.33 20.989 16.32 39.645 36.17 47.725 5.22 1.819 10.75 2.962 16.37 3.475 28.1 2.542 58.26-10.541 64.3-40.496.89-4.524 1.05-9.246.41-14.085v.012z" fill="#52B5BA"/>
  <path opacity=".9" d="M1897.06 873.469c.97-21.443-8.35-40.099-21.18-55.257-13.99-15.158-34.97-31.482-57.12-20.988-32.65 15.158-62.96 38.478-75.78 72.292-11.66 27.984 4.66 57.135 27.98 73.459 46.63 32.648 106.09 0 122.21-48.156 2.32-6.915 3.69-14.086 3.89-21.35z" fill="#78CEBC"/>
  <path opacity=".9" d="M1772.42 722.809c-2.63-49.182-49.26-96.989-98.23-93.491-41.97 3.498-68.78 45.475-73.44 85.119-1.17 17.49 2.33 33.814 11.65 48.972 15.16 23.321 36.15 38.479 62.96 44.309 45.47 9.328 90.94-24.486 96.43-68.806a76.97 76.97 0 00.61-16.103h.02z" fill="#153A90"/>
  <path opacity=".9" d="M1435.38 1289.5c2.15-11.87-1.35-35.19-13.01-32.86-46.63 9.33-87.44 32.65-131.74 47.81-3.5 1.17-2.33 9.33-1.89 14.04.89 7.41 3.05 17.52 6.36 26.66 2.42 7.63 6.27 14.94 10.93 21.83 12.57 24.92 47.55 41.24 70.86 19.09 4.67-4.37 9.12-8.9 13.34-13.56 12.67-13.98 23.35-29.24 31.97-45.71 7.11-13.63 11.78-26.36 13.18-37.3z" fill="#FFF0C6"/>
  <path opacity=".9" d="M1599.75 971.589c-1.81-23.845-11.63-45.801-26.53-63.804a131.49 131.49 0 00-16.47-16.616c-27.12-23.985-64.43-37.977-100.57-35.645-19.23 1.306-36.66 8.687-51.54 19.986-4.96 3.766-9.63 7.963-13.99 12.523-18.4 17.641-28.89 42.127-35.58 66.602a98.92 98.92 0 00-1.47 23.332c3.5 66.463 58.29 128.263 127.08 131.763 59.45 2.33 109.58-47.81 118.28-105.01 1.53-10.651 1.86-21.739.81-33.12l-.02-.011z" fill="#0682B5"/>
  <path opacity=".9" d="M1584.59 2091.82c9.01 0 16.32-7.31 16.32-16.32 0-9.02-7.31-16.33-16.32-16.33-9.02 0-16.32 7.31-16.32 16.33 0 9.01 7.3 16.32 16.32 16.32z" fill="#78CEBC"/>
  <path opacity=".9" d="M1650.15 1883.5c14.6-17.56 15.67-45.76 5.01-65.6-6.73-11.87-19.02-20.82-33.11-22.77-5.96-.71-12.12-.12-18.16 2.02-24.6 9.66-33.13 36.43-27.24 59.86 1.47 5.85 3.85 11.51 7.1 16.63 10.09 16.11 32.76 30.86 52.41 20.82 5.1-2.34 9.87-6 13.97-10.97l.02.01z" fill="#93D9BA"/>
  <path opacity=".9" d="M1725.07 1598.02c0-6.98-.94-13.74-2.7-20.15-8.83-32.08-38.2-55.65-73.08-55.65-41.85 0-75.78 33.94-75.78 75.8 0 20.93 8.49 39.87 22.2 53.59a76.45 76.45 0 0015.34 11.87c5.59 3.52 11.67 6.09 18.03 7.76 19.85 4.75 40.54 1.99 57.82-7.67a75.472 75.472 0 0015.98-11.95c8.62-9.04 14.45-19.53 18.8-31.05a76.08 76.08 0 003.4-22.55h-.01z" fill="#ADE3B8"/>
  <path opacity=".9" d="M1792.51 1397.37c1.77-45.11-7.56-91.75-37.87-125.57-31.48-37.31-88.61-30.32-127-3.94-7.11 4.86-14.23 10.45-20.6 16.81-8.04 8.05-11.45 15.56-13.52 24.76-.68 2.99-1.11 6.05-1.34 9.12-2.66 35.09-3.3 74.36 12.51 105.92 5.99 11.96 15.67 21.75 27.48 28.05l.19.11c6.7 3.54 13.81 6.37 21.24 8.43 8.94 2.46 18.33 3.77 27.53 4.52 36.2 3.29 81.67 4.45 102.77-32.16 4.48-8.11 7.78-19.6 8.63-36.04l-.02-.01z" fill="#C8EEB6"/>
  <path d="M1884.77 1121.44c-.32-1.95-.59-3.91-.81-5.87-1.66-14.74-6.15-28.94-12.32-42.95-2.07-4.96-4.38-9.85-6.87-14.62-3.24-6.13-6.91-12.02-10.99-17.64-16.32-22.49-39.02-40.624-64.9-51.992a158.528 158.528 0 00-22.89-8.022c-14.58-4.303-29.44-4.688-44.31-4.723-3.24 0-6.47.14-9.69.513-5.6.641-11.08 1.609-16.44 2.869-63.52 14.913-109.59 71.475-116.93 136.535-2.33 25.66 5.83 50.14 16.32 73.46 11.27 22.16 27.72 40.43 47.29 54.07 9.78 6.82 12.37 7.47 18.64 8.33 6.52 1.3 12.08.31 17.4-1.25 3.12-.91 6.15-2.09 9.13-3.37 25-10.69 50.53-17.56 76.59-23.24 4.79-1.05 9.6-2.05 14.43-3.03 3.92-.79 7.89-1.25 11.89-1.49 43.36-2.64 98.92-23.51 96.28-74.08-.09-1.5-.14-3-.16-4.5-.04-6.25-.59-12.59-1.64-19h-.02z" fill="#FFF0C6"/>
  <path opacity=".9" d="M1510.01 2330.58c.01-9.03-7.26-15.39-16.24-13.93-8.98 1.46-16.28 10.07-16.3 19.11-.02 9.04 7.24 15.08 16.23 13.62 8.99-1.46 16.3-9.76 16.31-18.8z" fill="#78CEBC"/>
  <path opacity=".9" d="M1465.89 2052.16c1.95-17.8-12.04-31.79-26.03-38.79-25.65-10.49-58.29 3.5-66.45 30.32-7 22.15 6.99 46.64 27.98 54.8 23.31 9.33 53.63-2.33 60.88-27.88 2.34-5.85 3.62-12.1 3.62-18.45z" fill="#05BAD7"/>
  <path opacity=".9" d="M1462.69 1792.93c2.81-27.92-20.51-52.4-48.49-54.74-25.65-2.33-53.63 7-65.29 31.49-16.32 36.14 8.16 85.11 47.8 90.94 31.48 3.5 57.13-22.15 63.63-50.47a71.433 71.433 0 002.34-17.24l.01.02z" fill="#0B8FC0"/>
  <path opacity=".9" d="M1618.98 1557.79c0-29.14-11.81-55.53-30.91-74.61-5.67-5.76-9.81-8.71-15.53-11.35-29.39-8.21-60.43-.58-90.29 10.26-7.46 2.71-14.85 5.62-22.13 8.54-20.26 7.38-41.25 14.37-48.24 36.53-10.49 38.48-4.66 80.45 22.15 110.77 20.99 22.15 51.3 26.82 79.39 25.64 7.34-.23 14.45-.98 21.33-2.39 48.08-9.84 84.24-52.39 84.24-103.38l-.01-.01z" fill="#1065A8"/>
  <path opacity=".9" d="M1665.22 1267.81c1.98-20.49-6.18-41.48-19.87-56.11-5.78-7.31-11.9-14.58-18.15-21.69-12.51-14.23-25.55-27.85-38.5-40.69-8-3.74-19.63-5.47-32.08-5.47-22.33 2.01-44.48 6.67-62.89 19.69-3.34 7.81-7.33 16.25-11.8 24.58-12.91 28.87-39.73 46.36-57.21 73.18-5.83 10.49-13.99 22.15-10.5 34.98 9.33 47.8 43.14 80.45 82.78 108.43 38.47 26.82 85.1 24.49 120.44-2.89 7.66-3.83 13.47-9.47 18.21-16.24 14.87-20.25 13.72-51.85 19.65-75.95 3.27-15.37 7.45-30.67 9.94-41.82h-.02z" fill="#153A90"/>
  <path opacity=".9" d="M1684.37 1242.34a19.18 19.18 0 001.2-21.09c-6.01-10.34-11.99-20.38-19.39-29.2-4.47-5.82-9.11-11.64-13.94-17.33-9.65-11.38-20.02-22.26-31.67-32.37-12.83-11.66-26.82 7-34.84 17.28-5.4 6.72-11.02 15.01-14.91 24.21-3.9 9.2-6.05 19.33-6.05 29.95 0 10.62 2.15 20.75 6.05 29.96 3.89 9.21 10.15 16.89 17.05 23.97 6.91 7.08 14.87 12.94 23.66 16.92 7.8 3.78 15.1 4.36 21.95 2.77 20.33-4.69 36.67-28.46 49.97-43.94.28-.33.55-.66.81-1.01.03-.04.06-.09.1-.15l.01.03z" fill="#78CEBC"/>
  <path opacity=".9" d="M1953.93 1125c-6.93-21.12-19.75-39.77-36.02-54.79-3.97-3.7-8.17-7.17-12.48-10.45a211.84 211.84 0 00-13.21-9.21c-5.06-3.25-10.26-6.2-15.36-8.51-15.27-6.94-29.55-8.1-35.96 5.89-2.78 5.83-5.25 11.98-7.41 18.39-1.7 5.57-3.28 11.52-4.68 17.71-1.39 6.19-2.59 12.61-3.48 19.13-6.58 35.72.41 83.52 40.05 97.51 34.3 11.77 74.37-9.43 87.6-41.25 4.52-10.88 4.85-23.12.99-34.26-.02-.04-.03-.1-.06-.15l.02-.01z" fill="#153A90"/>
  <path opacity=".9" d="M1510.81 1232.81c-1.09-7.45-3.88-14.59-7.42-23.23-.34-.81-.75-1.59-1.2-2.35-4.49-7.44-9.23-19.11-13.94-28.2-4.92-9.32-9.61-14.63-14.45-11.31-6.73 5.27-12.96 11.5-18.91 18.09-4.97 5.49-9.75 11.15-14.44 16.91-4.62 5.45-9.26 10.42-13.99 15.3-.21.23-.42.46-.61.69-14.62 17.39-33.45 30.53-49.06 46.5-9.54 9.75-3 26.25 10.62 26.86 42.18 1.89 90.44-5.45 118.8-36.13a16.31 16.31 0 003.57-6.11c1.62-5.12 1.97-10.79 1.04-17.02h-.01zm559.89 121.09c-.12-13.32-4.78-26.14-14.11-36.64-15.16-16.32-39.64-24.48-59.42-14.3a50.93 50.93 0 00-12.68 7.68 51.502 51.502 0 00-13.6 17.35 50.428 50.428 0 00-5.01 22.27c-.23 35.8 38.25 61.45 71.1 48.5 6.23-2.08 12.12-5.13 17.24-9.26 5.12-4.13 9.42-9.31 12.56-15.53 2.7-5.96 4.1-12.74 3.93-20.08l-.01.01z" fill="#0682B5"/>
  <path opacity=".9" d="M2278.78 1103.65c2.82-16.09-4.18-32.41-17-44.07-36.14-30.32-101.43-31.49-121.25 15.15-17.49 39.65 15.16 82.79 52.46 95.62 36.14 11.66 73.45-18.66 82.23-52.25 1.5-4.65 2.7-9.49 3.56-14.45z" fill="#78CEBC"/>
  <path opacity=".9" d="M2006.09 930.056c.37-20.884-7.79-45.37-28.78-54.698-27.98-10.494-55.96 9.328-66.45 33.814-9.33 23.321-4.66 53.637 19.82 66.463 26.81 13.992 60.62 1.166 70.81-25.221 2.65-6.18 4.25-13.036 4.6-20.358z" fill="#00E4EF"/>
  <path opacity=".9" d="M1888.95 1724.15c.92-8.1-3.74-13.93-8.4-19.76-8.16-7-20.99-9.33-30.31-2.33-13.99 9.33-15.16 27.98-5.83 41.97 9.32 12.83 29.14 15.16 38.95.97 4.03-5.58 6.18-13.01 5.59-20.85z" fill="#FFF0C6"/>
  <path opacity=".9" d="M2187.33 1649.9c0-16.74-13.57-30.31-30.32-30.31-8.37 0-15.94 3.39-21.39 8.94-6.75 5.89-9.08 14.05-9.08 22.21 1.17 15.16 12.82 30.32 30.63 29.71 8.23-.22 15.81-3.62 21.28-9.12 5.48-5.49 8.89-13.07 8.89-21.43h-.01z" fill="#153A90"/>
  <path opacity=".9" d="M1259.76 882.611c-2.94-13.095-8.77-25.921-21.59-32.917-10.49-5.83-20.99-1.166-25.65 5.83-11.66 16.324-2.33 37.313 10.49 50.139 8.16 8.162 23.32 9.328 30.11-.84 4.32-5.375 7.01-13.199 6.64-22.212z" fill="#0682B5"/>
  <path opacity=".9" d="M1469.46 1650.86c.71-18.76-14.44-33.92-33.1-36.25-27.98-2.33-51.29 26.82-44.3 53.63 2.33 8.17 7 15.75 13.41 20.85 21.57 16.47 51.88-1.02 60.84-22.85 2.01-4.85 3.13-10.04 3.15-15.38z" fill="#00E4EF"/>
  <path opacity=".9" d="M1661.56 1680.45c-.1-5.52-1.02-10.62-2.87-15.21-1.84-4.6-4.62-8.69-8.43-12.22-3.49-3.49-7.63-6.3-12.23-8.25a38.53 38.53 0 00-14.98-3.02c-10.62 0-20.24 4.31-27.2 11.28-3.49 3.48-6.3 7.62-8.24 12.23-3.2 6.49-4.36 13.49-3.2 20.49.88 5.83 2.92 11.21 5.85 15.94 2.94 4.72 6.77 8.76 11.21 11.9 20.26 14.13 49.41 4.8 57.16-17.57 1.9-4.84 2.94-10.1 2.93-15.56v-.01z" fill="#78CEBC"/>
  <path opacity=".9" d="M1620.77 1103.38c.95-26.31 13.77-55.46-1.77-80.32-3.52-5.51-7.06-11.37-11.01-16.93-16.58-24.677-42.23-54.993-73.71-43.333-6.85 2.472-14.12 4.921-21.61 7.416-7.5 2.495-15.22 5.06-22.97 7.777-7.75 2.717-15.53 5.585-23.15 8.699-7.63 3.125-15.09 6.494-22.19 10.202-28.41 14.869-51.15 35.269-55.81 67.339-4.66 33.81 34.98 53.63 58.29 76.95 10.5 11.66 16.32 25.66 15.98 40.23.61 9.67.74 19.63.36 28.84 5.81 24.22 40.79 17.22 60.03 24.16 11.67 1.33 21.87 2.26 32.83-.75 10.95-3.01 21.32-7.43 30.91-13.05 30.12-11.8 31.28-45.61 30.93-73.51.33-13.35 1.22-28.47 2.91-43.74l-.02.02z" fill="#00E4EF"/>
  <path opacity=".9" d="M2071.23 753.335c-4.15-27.238-35.63-38.898-58.94-28.404-7 3.498-12.54 9.037-15.74 15.45-3.21 6.413-4.08 13.7-1.75 20.696 9.33 25.653 45.47 38.479 66.83 17.199 6.52-6.518 10.36-15.415 9.61-24.952l-.01.011z" fill="#FFF0C6"/>
  <path opacity=".9" d="M983.188 851.023c1.236-8.978-.583-15.916-6.913-22.235-6.331-6.32-15.074-10.25-24.728-10.25-19.317 0-34.975 15.66-34.975 34.981 0 9.654 3.917 18.399 10.248 24.731 6.33 6.331 14.853 10.167 23.2 9.654 8.348-.513 15.751-5.188 21.627-12.115 5.875-6.926 10.317-15.787 11.553-24.766h-.012z" fill="#78CEBC"/>
  <path opacity=".9" d="M809.035 1267.31c-5.724-35.16-45.363-63.15-79.172-45.66-13.99 8.16-25.649 22.16-26.815 38.48-1.165 17.49 6.995 33.81 20.986 44.31 26.814 20.99 68.784 11.66 82.203-19.28 2.355-5.65 3.404-11.69 2.81-17.85h-.012zm835.345-425.416c-7.49-27.18-38.97-53.998-65.79-36.508-13.99 9.328-6.99 27.984 1.17 39.644 12.82 17.49 37.31 25.652 56.73 15.042 6.03-3.883 9.35-10.04 7.89-18.178zm-524.99 831.646c-.39-8.47-8.62-14.59-18.41-13.67-9.79.92-17.31 8.32-16.73 16.52.59 8.24 8.94 14.35 18.52 13.71 9.57-.62 16.97-8.02 16.62-16.56zm17.21 246.52c.19-9.34-6.56-17.79-15-18.99-8.44-1.2-15.51 5.58-15.82 15.21-.32 9.63 6.28 18.37 14.85 19.28 8.57.91 15.77-6.15 15.96-15.5h.01zm-670.054-408.91c9.014 0 16.322-7.31 16.322-16.33 0-9.01-7.308-16.32-16.322-16.32s-16.322 7.31-16.322 16.32c0 9.02 7.308 16.33 16.322 16.33z" fill="#0682B5"/>
  <path opacity=".9" d="M743.433 1108.06c.373-9.21-5.491-16.22-13.617-15.93-8.126.28-15.179 7.66-15.132 16.7.035 9.03 6.761 16.31 14.491 16.21 7.729-.11 13.885-7.77 14.258-16.98z" fill="#78CEBC"/>
  <path opacity=".9" d="M792.632 1388.18c.664-7.52-4.512-13.64-11.402-13.76-6.902-.12-12.836 5.77-13.431 13.25-.594 7.48 4.302 13.78 11.134 13.94 6.832.17 13.034-5.9 13.699-13.43z" fill="#FFF0C6"/>
  <path opacity=".9" d="M2116.2 1298.42c3.34-7.97-2.48-16.14-8.31-20.8-15.16-9.33-33.81 0-38.48 16.32-2.33 10.5 2.34 20.99 11.66 25.66 9.33 4.66 19.82 3.49 26.48-4.38 4.42-4.29 7.63-10.26 8.66-16.8h-.01z" fill="#A0DEB9"/>
  <path opacity=".9" d="M2126.97 1310.84c1.06-7.72-3.68-13.88-11.03-13.88-7.33 0-14.23 6.14-15.03 13.81-.51 7.66 5.16 14.03 12.29 14.08 7.14.06 13.08-6.29 13.77-14.01z" fill="#0682B5"/>
  <path opacity=".9" d="M782.687 1765.9c.851-7.65-3.859-14.04-10.504-14.31-6.645-.27-12.568 5.6-13.279 13.15-.711 7.57 3.917 14.04 10.434 14.38 6.517.34 12.486-5.59 13.349-13.23v.01z" fill="#FFF0C6"/>
  <path opacity=".9" d="M1259.21 1399.44c.07-7.23-5.64-13.03-12.72-13.04-7.07-.02-12.81 5.73-12.82 12.85 0 7.11 5.68 13 12.7 13.11 7.01.12 12.77-5.69 12.84-12.92zM951.384 998.92c-1.177-16.301-23.328-23.297-32.655-9.305-5.829 11.665 6.995 22.155 17.616 22.795 9.746.84 16.158-5.02 15.039-13.49zm505.796-381.751c.04-9.515-7.84-18.622-17.6-20.336-9.76-1.725-17.7 4.758-17.77 14.331-.07 9.573 7.79 18.516 17.58 20.195 9.8 1.679 17.76-4.664 17.81-14.179l-.02-.011zm782.27 812.941c-.99-14.89-13.81-28.88-28.97-23.05-18.65 5.83-23.32 31.48-9.33 46.64 4.67 4.66 11.08 6.7 17.26 6.11 6.18-.6 12.11-3.84 15.82-9.74 3.75-5.38 5.78-12.46 5.22-19.96zM677.202 1047.69c-2.134-13.77-11.46-26.59-25.45-30.09-16.322-3.5-36.142 3.5-39.639 20.99-2.332 16.32 8.161 31.48 23.317 37.31 11.658 4.66 24.482 1.17 33.739-6.67 5.363-5.5 8.488-13.12 8.033-21.55v.01zm500.218 475.47c.65-9.09-3.41-17.42-9.95-23.04-6.54-5.62-15.57-8.54-24.9-6.79-16.32 3.5-26.81 17.49-27.98 32.65 0 10.49 4.66 22.15 15.16 26.82 6.41 2.91 13.69 3.5 20.53 2.1 6.83-1.4 13.21-4.77 17.8-9.75 5.71-5.76 9.24-13.5 9.34-21.99z" fill="#0682B5"/>
  <path opacity=".9" d="M1189.81 768.528c.56-12.114-7.6-23.775-19.26-26.107-19.82-3.498-41.97 10.494-37.31 31.483 3.5 20.988 33.81 27.984 48.63 14.353 4.9-4.897 7.88-11.893 7.94-19.74v.011z" fill="#FFF0C6"/>
  <path opacity=".9" d="M1084.65 616.154c.79-7.824-3.87-14.82-9.7-19.484-10.49-6.996-25.65-9.328-34.97 1.166-9.33 10.494-4.67 24.486 5.83 32.648 9.32 5.831 22.15 6.997 31.29.619 4.56-3.452 7.41-8.781 7.55-14.96v.011zm-45.91 963.506c1.24-11.69-5.76-23.35-16.25-26.85-12.83-3.5-23.318 5.83-26.816 17.49-2.331 12.83 2.332 25.65 15.156 31.48 7 3.5 13.99 0 20.24-4.76 4.28-4.19 7.18-10.31 7.67-17.35v-.01z" fill="#00E4EF"/>
  <path opacity=".9" d="M746.348 648.301c8.37 0 15.156-6.786 15.156-15.158s-6.786-15.158-15.156-15.158c-8.371 0-15.156 6.786-15.156 15.158s6.785 15.158 15.156 15.158z" fill="#153A90"/>
  <path opacity=".9" d="M1039.35 964.534c-.54-20.381-8.7-42.536-29.69-48.366-10.488-2.332-19.815 2.332-26.81 10.494-8.161 9.912-11.658 21.863-11.075 33.675.583 11.811 5.246 23.46 13.407 32.788 5.829 5.83 13.99 10.495 22.248 11.865 8.25 1.38 16.61-.52 22.83-7.842 6.18-6.833 9.84-18.295 9.09-32.614z" fill="#78CEBC"/>
  <path opacity=".9" d="M1933.81 973.058c.37-17.245-5.46-34.735-18.29-46.396-6.99-6.413-15.44-9.619-24.19-10.505-28.27-1.155-58.58 16.335-64.78 45.148-1.38 6.378-1.38 13.152.37 20.148 4.66 17.49 22.15 25.657 34.34 38.757 5.18 4.12 10.88 7.03 18.28 7.03 7.41 0 14.46-1.5 20.88-4.21a53.444 53.444 0 0017.07-11.51 54.72 54.72 0 0011.6-17.147c2.79-6.483 4.43-13.666 4.74-21.327l-.02.012z" fill="#0682B5"/>
  <path opacity=".9" d="M1822.54 809.758c2.05-11.357-4.95-25.349-17.77-19.519-15.16 5.83-27.98 19.822-30.31 37.313 0 4.664 2.33 10.494 6.99 12.826 11.66 3.498 24.48-1.166 31.78-10.763 4.98-5.515 8.47-12.522 9.31-19.845v-.012z" fill="#FFF0C6"/>
  <path opacity=".9" d="M2336.87 1439.66c.69-13.96-12.14-23.29-22.63-29.12-17.49-8.16-38.47 2.34-44.3 20.99-4.67 15.16 3.5 33.82 17.49 40.81 13.99 5.83 31.47 2.34 40.68-9.6 6.03-6.21 9.49-14.36 8.76-23.08zM899.259 1758.42c.817-14.39-8.51-28.38-20.169-34.21-9.326-3.5-19.819-1.16-27.98 4.67-13.99 11.66-18.653 29.15-11.658 45.47 8.161 18.66 36.141 22.16 50.352 6.82 5.853-5.78 9.362-13.75 9.467-22.75h-.012zm1168.521-664.1c-1.86-12.59-10.02-23.08-19.15-30.98-4.91-3.92-10.51-6.9-16.46-8.46-5.96-1.57-12.3-1.72-18.72.03-8.74 2.33-16.61 7.29-22.15 13.99-12.24 14-8.09 31.26 2.14 44.93 3.4 4.56 7.48 8.71 11.85 12.21 13.12 10.49 30.83 17.71 47.22 14.76 5.54-.99 10.9-3.11 15.92-6.62 5.97-5.86 3.63-14.01 3.53-21.87-.41-5.56-1.8-11.66-4.18-17.99z" fill="#00E4EF"/>
  <path opacity=".9" d="M2215.26 1291.63c1.41-2.92 1.42-6.24.54-9.38-2.62-9.22-12.4-14.22-21.7-11.93-6.39 1.57-12.43 5.88-17.17 11.39-.96 1.11-1.79 2.33-2.45 3.64-3.95 7.68-5.61 16.22-1.31 23.75 7 10.5 23.32 5.83 32.04-1.54 4.71-4.14 8.42-9.73 10.05-15.94v.01z" fill="#153A90"/>
  <path opacity=".9" d="M1861.63 728.254c-.9-11.485-11.39-23.145-23.05-18.481-15.16 4.664-18.66 29.15-4.67 39.644 7 4.664 17.49 1.166 21.98-5.468 3.5-4.151 5.81-9.701 5.72-15.695h.02z" fill="#0682B5"/>
  <path opacity=".9" d="M1414.14 674.56c1.24-12.593-10.42-21.921-22.08-23.087-8.16 0-13.99 5.83-18.65 11.66-4.67 9.328-5.83 19.822 2.33 27.984 9.33 8.162 23.32 6.996 31.69-1.469 4.08-3.801 6.64-9.06 6.71-15.088z" fill="#FFF0C6"/>
  <path opacity=".9" d="M1039.53 747.074c-.72-15.135-11.21-29.127-27.53-26.795-10.5 2.332-18.657 10.494-23.321 19.822-8.161 17.49 1.166 40.81 20.981 41.976 9.33 0 17.49-4.664 22.55-12.336 4.68-6.25 7.5-14.295 7.32-22.667z" fill="#0682B5"/>
  <path opacity=".9" d="M2267.77 851.187c9.01 0 16.32-7.309 16.32-16.324 0-9.016-7.31-16.325-16.32-16.325-9.01 0-16.32 7.309-16.32 16.325 0 9.015 7.31 16.324 16.32 16.324z" fill="#78CEBC"/>
  <path opacity=".9" d="M1927.03 205.218c7.9 0 14.3-6.406 14.3-14.307 0-7.902-6.4-14.307-14.3-14.307s-14.31 6.405-14.31 14.307c0 7.901 6.41 14.307 14.31 14.307z" fill="#0682B5"/>
  <path opacity=".9" d="M1274.86 828.135c-.09-9.363-7.67-17.607-16.88-18.237-9.21-.629-16.44 6.985-16.29 16.581.2 9.678 7.67 17.583 16.79 17.898 9.1.303 16.46-6.891 16.38-16.242z" fill="#78CEBC"/>
  <path opacity=".9" d="M2119.16 1094.39c-1.95-16.16-15.94-27.82-32.26-30.15-16.32-2.33-32.64 7-37.31 23.32-3.49 17.49 5.83 36.15 23.32 41.98 16.32 4.66 39.64-2.34 44.47-21.03 1.7-4.4 2.39-9.2 1.78-14.12z" fill="#0682B5"/>
  <path opacity=".9" d="M2131.26 1037.93c-1.61-8.51-11-14.29-21.12-13.21-10.1 1.09-18.16 8.82-18.1 17.51.06 8.68 9.17 14.98 20.79 13.74 11.65-1.24 20.03-9.52 18.42-18.04h.01z" fill="#153A90"/>
  <path opacity=".9" d="M1463.62 1244.78c6.52.1 13.84.3 20.69-.67 17.11-2.42 26.72-21.26 18.8-36.6-.05-.08-.08-.17-.13-.25-3.66-8.92-15.32-24.08-23.48-12.42-10.49 14-22.15 27.99-28.12 43.79-.42 3.33 2.71 5.26 10.09 6.05.72.08 1.43.1 2.15.12v-.02z" fill="#78CEBC"/>
  <path opacity=".9" d="M1332.22 1317.43c20.12-4.46 37.49-16.64 51.6-31.4 7.02-7.35-.25-19.24-9.96-16.26-24.78 7.6-48.79 18.2-71.57 30.02-2.24 1.11 1.97 7.6 6.39 10.07.37.21.72.42 1.07.66a39.036 39.036 0 0019.76 7.12c.91.07 1.83 0 2.72-.21h-.01z" fill="#153A90"/>
  <path opacity=".9" d="M1488.46 1261.32c16.14 4.51 30.28 1.53 32.17-7.45 1.89-8.98-7.21-20.15-20.8-24.41-13.42-3.74-25.26 1.64-30.67 9.74s3.17 17.62 19.3 22.13v-.01z" fill="#FFF0C6"/>
  <path opacity=".9" d="M2080.07 922.313c0-9.013-7.3-16.335-16.26-16.37-8.91-.082-16.26 7.264-16.37 16.37 0 9.025 7.3 16.336 16.31 16.336 9.01 0 16.32-7.311 16.32-16.324v-.012zm-595.83-43.504c-10.57-15.123-39.72-23.285-49.04-6.961-7 11.66 16.32 10.494 25.14 13.748 16.59 2.075 26.57-.7 23.9-6.787z" fill="#E2F9B4"/>
  <path opacity=".9" d="M1383.39 1096.63c8.29 5.09 16.64 10.31 25.34 14.48 7.66 3.68 14.61-6.23 8.5-12.13-13.65-13.19-30.05-23.72-46.56-33.85-7.56-4.63-15.52 5.36-9.28 11.64.09.1.18.19.28.28 5.73 5.9 12.73 12.31 20.87 18.98.26.22.55.43.86.6h-.01z" fill="#0682B5"/>
  <path opacity=".9" d="M1273.39 1195.03c19.57 18.46 49.89 21.96 74.37 10.3 11.66-5.83 21.27-14.87 28.12-25.66 6.84-10.78 10.55-22.37 9.48-31.49-17.79-29.14-44.61-55.96-77.05-69.31-8.47 0-17.98 3.96-26.72 10.21-26.25 18.75-39.4 55.05-23.81 84.83 3.59 7.67 8.78 14.86 15.6 21.12h.01z" fill="#E2F9B4"/>
  <path opacity=".9" d="M1492.78 1001.6c.35-7.74-1.51-14.527-4.92-20.543-4.86-8.932-13.03-15.928-22.35-20.592-18.66-8.162-40.81 0-52.46 16.324-4.67 6.996-7 14.575-7.29 22.306-.29 7.735 1.46 15.605 4.95 23.185 12.83 25.65 48.97 30.31 69.36 10.06a43.319 43.319 0 0012.71-30.73v-.01z" fill="#FFF2C2"/>
  <path opacity=".9" d="M1266.66 1792.45c-.07-8.61-7.83-14.41-17.3-13.14-9.47 1.27-17.09 9.16-17.09 17.87s7.69 14.76 17.24 13.36c9.55-1.38 17.22-9.49 17.15-18.09z" fill="#FFF0C6"/>
  <path opacity=".9" d="M1245.7 1455.06c.2-10.29-7.34-18.85-16.87-19.15-9.52-.31-17.32 7.46-17.37 17.29-.05 9.83 7.57 18.34 16.93 19.11 9.36.77 17.1-6.95 17.3-17.25h.01z" fill="#00E4EF"/>
  <path opacity=".9" d="M1643.59 1041.51c3.79-9.65-.03-13.84-7.8-10.87-7.76 2.96-15.77 12.37-18.17 22.06-2.41 9.69.63 16.09 7 13.14 6.38-2.95 15.18-14.67 18.97-24.33z" fill="#0682B5"/>
  <path opacity=".9" d="M1608.97 1059.35c1.84-10.15-1.33-28.99-11.72-23.09-8.75 4.66-16.61 13.4-21.13 23.18-4.51 9.77-5.67 20.54-1.02 29.29 6.6 12.76 18.51.26 24.79-6.93 4.16-6.27 7.55-14.34 9.08-22.45z" fill="#153A90"/>
  <path opacity=".9" d="M1680.7 986.409c1.75-6.518-4.84-11.625-14.49-11.625-9.66 0-17.49 7.835-17.49 17.49 0 9.656 3.82 12.426 12.42 10.066 8.59-2.371 17.82-9.413 19.57-15.943l-.01.012z" fill="#00E4EF"/>
  <path opacity=".9" d="M1196.9 1791.64c-.7-14.96-8.86-28.95-25.18-32.45-13.99-2.33-24.49 7-26.82 19.83-1.16 11.66 2.33 22.15 9.33 30.31 9.33 9.33 24.48 11.66 34.39 1.54 4.96-4.69 8.12-11.48 8.29-19.23h-.01z" fill="#0682B5"/>
  <path opacity=".9" d="M925.526 1335.45c-.56-9.93-4.057-19.17-9.828-25.82-5.748-6.47-14.737-10.14-24.751-10.09-10.015.05-19.038 3.44-25.579 9.98-14.246 14.74-15.412 40.39 2.076 54.38 15.155 11.66 36.141 10.5 48.988-3.25 6.471-6.52 9.665-15.27 9.105-25.21l-.011.01z" fill="#153A90"/>
  <path opacity=".9" d="M1847.82 1460.83c-10.41 4.52-19.74 9.18-28.22 18.37-3.63 4.15-6.46 8.85-8.09 14.12-1.64 5.27-2.08 11.1-.91 17.51 4.66 26.82 20.98 47.81 45.46 57.14 9.33 3.5 19.57 5.96 29.8 6.74 5.12.38 10.24.36 15.25-.17 30.73-3.07 58.71-26.39 61.05-57.88 2.33-32.65-20.99-61.8-50.13-74.62-17.49-7-34.98 4.66-49.72 11.44-4.74 2.31-9.61 4.78-14.5 7.35h.01z" fill="#ADE3B8"/>
  <path opacity=".9" d="M1891.41 1520.23c-13.19 6.93-17.86 20.92-16.69 34.91 1.16 5.25 3.2 9.62 6.12 13.41 2.91 3.79 6.7 7 11.37 9.91 7.57 4.67 16.61 7.58 25.55 7.78 9.42.38 17.58-1.95 25.74-7.78 15.16-12.82 13.99-37.31-1.16-50.14-10.5-8.16-23.32-12.82-36.11-11.95-5.18.35-10.21 1.6-14.82 3.86z" fill="#153A90"/>
  <path opacity=".9" d="M1543.78 1490.25c0-13.2-1.22-18.9-7.9-23.94-14.2-6.26-32.38-7.36-48.76-3.24-5.45 1.37-10.71 3.32-15.56 5.85-13.06 5.84-24.72 18.67-23.55 31.5 1.16 20.98 22.15 36.14 43.13 38.47 14 1.17 27.99-4.66 38.64-14.84 4.33-4.32 7.82-9.48 10.25-15.19 2.42-5.72 3.75-12.01 3.75-18.61z" fill="#78CEBC"/>
  <path opacity=".9" d="M1879.89 1294.18c-1.67-43.38-48.31-74.86-89.11-69.61-6.61.38-13.21 1.36-19.74 2.78-13.05 2.85-25.73 7.51-37.39 12.96-30.31 15.16-45.47 48.97-38.47 82.78 6.99 33.82 30.31 59.47 61.79 71.13 18.79 6.55 39.24 6.55 57.99 1.15 6.25-1.8 12.32-4.2 18.07-7.15 11.36-5.66 20.69-14.99 29.83-24.12a82.652 82.652 0 0010.28-16.43 81.09 81.09 0 006.22-19 88.412 88.412 0 001.98-17.2c.09-5.77-.38-11.54-1.45-17.29z" fill="#153A90"/>
  <path opacity=".9" d="M1101.81 1459.97c.11-13.64-4.61-17.69-14.07-22.85-5.53-2.57-11.79-5.07-18.38-7.11-19.78-6.14-42.52-8.1-57.41 5.03-5.04 6.19-8.04 15.3-7.95 24.79 0 6.76 1.37 13.2 3.85 19.07 8.8 17.93 23.95 30.76 43.77 31.92 19.82 0 39.64-12.82 46.02-31.4 2.62-6.05 4.1-12.63 4.16-19.45h.01zm595.99.01c-8.5 5.2-5.19 12.81 5.68 17.13 10.87 4.33 25.55 1.62 33.94-6.01 8.38-7.64 8.1-15.48-2.54-17.35-10.65-1.88-28.58 1.03-37.08 6.23z" fill="#FFF0C6"/>
  <path opacity=".9" d="M1758.29 1497.91c-8.03 2.35-14.06 8.36-17.31 15.74a31.41 31.41 0 00-.52 24.09c6.3 16.21 24.54 24.23 40.75 17.94 8.1-3.15 14.15-9.3 17.4-16.66 3.24-7.37 3.69-15.99.53-24.09-3.15-8.11-9.27-13.75-16.7-16.3-7.42-2.56-16.12-3.06-24.14-.72h-.01z" fill="#AAF4C3"/>
  <path opacity=".9" d="M1821.75 1453.01c-5.3 3.08-19.31 5.34-14.64 12.36 4.68 5.29 13.18 5.99 21 3.59 7.86-2.38 15.01-7.89 16.74-15.31-1.08-4.48-11.3-4.51-23.1-.65v.01z" fill="#0682B5"/>
  <path opacity=".9" d="M1740.02 1578.43c12.87 0 23.31-10.44 23.31-23.32s-10.44-23.32-23.31-23.32c-12.88 0-23.32 10.44-23.32 23.32s10.44 23.32 23.32 23.32z" fill="#153A90"/>
  <path opacity=".9" d="M1952.91 1603.04c-12.9 3.39-24.56 13.89-23.4 27.88 0 23.32 27.98 37.31 50.13 30.32 9.33-3.5 17.49-12.83 18.66-23.32 1.16-12.83-5.83-27.99-19.46-33.02-7.7-3.42-16.89-4.24-25.92-1.87l-.01.01zm-227.45 225.15c5.25 3.97 11.09 3.93 16.34 1.85s9.93-6.13 12.89-10.16c8.11-11.74 5.78-30.39-9.38-36.22-7-2.34-13.99 0-19.53 4.68-6.14 6.14-9.66 15.79-8.54 24.61.77 6.19 3.56 11.75 8.22 15.21v.03z" fill="#00E4EF"/>
  <path opacity=".9" d="M1696.04 1795.84c5.03 4.83 10.77 7.72 16.79 9.04 6.02 1.31 12.31 1.05 18.45-.45 35.02-7.94 59.5-46.41 42.01-80.23-16.32-31.48-64.12-41.98-86.27-11.66-3.5 4.96-6.27 10.2-8.27 15.61-6 16.25-5.08 34.02 3.86 49.99 3.36 6.8 7.86 12.86 13.43 17.69v.01z" fill="#0682B5"/>
  <path opacity=".9" d="M1030.4 2019.24c1.42-11.7-6.75-22.19-17.24-25.69-6.99-1.17-15.154 0-20.983 5.83-8.161 8.16-8.161 20.99-3.498 30.32 6.996 10.49 24.481 17.49 34.791 6.2 4.09-3.95 6.73-9.83 6.93-16.66z" fill="#FFF0C6"/>
  <path opacity=".9" d="M1141.7 1596.92c2.04-16.13-15.45-23.12-29.44-20.79-16.32 3.5-27.98 24.49-16.32 38.48 10.49 11.66 29.14 10.49 38.68-.85 4.44-4.53 7.13-10.49 7.08-16.83v-.01z" fill="#E2F9B4"/>
  <path opacity=".9" d="M1060.41 1620.74c-.61-8.48-2.95-16.64-8.78-23.63-10.49-12.83-30.31-15.16-41.97-3.5-13.986 15.16-15.151 40.81 2.34 53.63 11.65 8.17 29.14 5.83 38.75-4.32 5.87-5.67 9.52-13.48 9.66-22.19v.01z" fill="#AAF4C3"/>
  <path opacity=".9" d="M1836.54 1071.62c6.71.78 13.71-2.72 14.86-9.71.58-7.58-.87-14.58-3.79-20.99-2.91-6.41-7.28-12.24-12.53-17.49-16.32-16.32-41.97-25.653-64.12-15.16-4.66 3.5-7 8.16-4.66 13.99 6.99 15.16 20.98 23.32 33.27 32.22 7.06 4.7 13.99 8.77 20.31 11.77 6.32 2.99 12.03 4.94 16.65 5.37h.01z" fill="#00E4EF"/>
  <path opacity=".9" d="M1759.61 1161.44c8.39-1.82 16.57-4.67 24.17-8.6 4.67-2.13 9.07-4.75 13.15-7.78 13.66-7.36 20.65-22.52 26.44-36.27 1.61-4.79 2.71-9.77 3.26-14.85.53-5.07.51-10.26-.14-15.46-.67-4.88-1.83-9.62-3.45-14.21-6.49-18.3-20.21-33.86-38.09-43.18-27.98-14-60.63-11.66-87.44 4.66-24.48 16.32-40.8 43.14-38.47 72.29 2.33 30.32 26.81 55.97 55.88 62.79 6.7 1.83 13.92 2.89 21.45 3.06 7.53.16 15.31-.8 23.26-2.47l-.02.02z" fill="#AAF4C3"/>
  <path opacity=".9" d="M1240.55 1628.3a60.944 60.944 0 00-26.86-26.52c-20.99-10.49-44.31 1.17-53.63 20.99-9.33 22.15 0 47.81 18.65 62.96 10.49 8.17 22.15 12.83 36.14 10.5 23.32-4.67 33.81-29.15 31.61-49.66-.81-6.1-2.76-12.28-5.91-18.27z" fill="#71EFD2"/>
  <path opacity=".9" d="M1869.1 621.973c-9.54-12.465-29.36-8.967-38.68 2.693-3.5 4.664-4.67 9.328-3.5 15.158 2.33 9.328 10.49 13.992 18.65 15.158 11.66 0 24.48-5.83 26.86-18.248 1.19-5.13.18-10.447-3.32-14.75l-.01-.011z" fill="#153A90"/>
  <path opacity=".9" d="M1912.34 565.328c-15.47-17.63-42.29-21.128-63.27-11.8-27.98 11.66-37.31 52.47-13.99 72.292 23.32 19.823 58.29 11.661 76.95-11.66 6.99-9.328 10.49-22.154 7.51-33.289-1.08-5.539-3.46-10.832-7.2-15.543z" fill="#71EFD2"/>
  <path opacity=".9" d="M1398.18 1533.4c-2.62-16.75-13.11-29.57-26.32-40.56a80.958 80.958 0 00-14.54-8.51c-10.2-4.61-21.22-6.94-31.71-6.16-24.49 1.17-43.14 22.16-51.3 44.31-5.83 17.49-4.66 37.31 4.66 53.64 2.92 4.86 6.45 8.91 10.43 12.21 3.98 3.3 8.41 5.86 13.15 7.76 35.88 16.17 84.85-4.81 93.36-45.45a67.158 67.158 0 002.27-17.24z" fill="#39E9E0"/>
  <path opacity=".9" d="M1555.25 1390.45c3.53-46.37-29.12-90.68-74.59-104.67-37.3-10.49-79.27 1.17-104.92 31.48-4.86 5.64-9 11.59-12.44 17.8-3.44 6.2-6.17 12.63-8.2 19.21-14.58 46.18 7.7 100.16 50.13 121.57a87.537 87.537 0 0019.38 7.07c6.33 1.84 12.87 3.09 19.53 3.68 6.64.6 13.42.53 20.21-.24 34.98-3.5 65.29-25.66 80.31-55.47 6.05-12.03 9.81-25.69 10.61-40.41l-.02-.02z" fill="#00E4EF"/>
  <path opacity=".9" d="M1579.1 1463.15c1.64-8.27-2.63-13.82-9.98-11.8-7.36 2.03-15.59 10.81-17.76 18.81-2.17 8 2.87 12.54 10.75 10.78 7.88-1.76 15.33-9.51 16.99-17.79zm-114.56 277.33c.97-20.94-25.85-27.94-39.84-16.28-12.82 10.5-16.32 30.32-3.49 41.98 10.49 9.33 27.98 5.83 35.55-5.91 4.74-5.54 7.71-12.57 7.78-19.79z" fill="#FFF0C6"/>
</svg>
